<?xml version="1.0" encoding="UTF-8"?>
<svg width="160px" height="50px" viewBox="0 0 160 50" version="1.1" xmlns="http://www.w3.org/2000/svg" xmlns:xlink="http://www.w3.org/1999/xlink">
    <title>gravity_devnet</title>
    <g id="Page-1" stroke="none" stroke-width="1" fill="none" fill-rule="evenodd">
        <g id="Home_desktop" transform="translate(-192.000000, -98.000000)">
            <g id="gravity_devnet" transform="translate(194.000000, 99.000000)">
                <g id="Logo_Gravity_-Copy-3" opacity="0.822986421">
                    <polygon id="Path" stroke="#FFFFFF" points="0 13.6114364 48.3174194 6.45446809 34.812209 47.332766"></polygon>
                    <polygon id="Path" stroke="#FFFFFF" points="11.8109247 37.6510638 46.1699785 20.0657857 18.1570622 0"></polygon>
                    <polygon id="Path" stroke="#FFFFFF" points="33.2853333 33.3480851 29.5173436 9.68170213 12.8846452 22.2944997"></polygon>
                    <polygon id="Path" stroke="#FFFFFF" points="34.3590538 22.6992192 19.3269677 20.4391489 23.5286415 33.3480851"></polygon>
                    <path d="M66.290572,34.7470134 C67.1266237,34.7470134 67.842671,34.4585372 68.438714,33.8816764 C69.034757,33.3047238 69.3327785,32.6063414 69.3327785,31.7865291 L69.3327785,25.7517487 L62.8535634,25.7517487 L62.8535634,28.233948 L66.8014925,28.233948 L66.8014925,31.4450019 C66.8014925,31.7790029 66.7472731,32.0028634 66.6389269,32.116767 C66.5305807,32.2305788 66.2983441,32.2875765 65.9422172,32.2875765 L55.9795462,32.2875765 C55.6389634,32.2875765 55.4106129,32.2305788 55.2944946,32.116767 C55.1783763,32.0028634 55.1203634,31.7790029 55.1203634,31.4450019 L55.1203634,21.6525954 C55.1203634,21.3185944 55.1783763,21.0947339 55.2944946,20.9808303 C55.4106129,20.8670185 55.6389634,20.8100208 55.9795462,20.8100208 L65.9422172,20.8100208 C66.2983441,20.8100208 66.5305807,20.8670185 66.6389269,20.9808303 C66.7472731,21.0947339 66.8014925,21.3185944 66.8014925,21.6525954 L66.8014925,22.2903088 L69.3327785,22.2903088 L69.3327785,21.3110682 C69.3327785,20.4912559 69.034757,19.7928735 68.438714,19.2159209 C67.842671,18.6390602 67.1266237,18.3505839 66.290572,18.3505839 L55.6312839,18.3505839 C54.7952322,18.3505839 54.083071,18.6390602 53.4947075,19.2159209 C52.9064365,19.7928735 52.6123011,20.4912559 52.6123011,21.3110682 L52.6123011,31.7865291 C52.6123011,32.6063414 52.9064365,33.3047238 53.4947075,33.8816764 C54.083071,34.4585372 54.7952322,34.7470134 55.6312839,34.7470134 L66.290572,34.7470134 Z M76.0136045,34.7470134 L76.0136045,24.8407952 C76.0136045,24.5067942 76.0717099,24.2829336 76.1878282,24.16903 C76.3039465,24.0552182 76.532297,23.9982205 76.8728798,23.9982205 L84.0488045,23.9982205 L84.0488045,21.5387836 L76.5245249,21.5387836 C75.6884733,21.5387836 74.976312,21.8272599 74.3880411,22.4041206 C73.7996776,22.9810732 73.5055421,23.6794556 73.5055421,24.4992679 L73.5055421,34.7470134 L76.0136045,34.7470134 Z M101.089324,34.7470134 L101.089324,24.4992679 C101.089324,23.6794556 100.795096,22.9810732 100.20664,22.4041206 C99.6191095,21.8272599 98.9066707,21.5387836 98.070249,21.5387836 L87.3882923,21.5387836 L87.3882923,23.9982205 L97.7223567,23.9982205 C98.062847,23.9982205 98.2876816,24.0552182 98.3959353,24.16903 C98.504189,24.2829336 98.5578532,24.5067942 98.5578532,24.8407952 L98.5578532,26.9131801 L87.3882923,26.9131801 L87.3882923,31.7865291 C87.3882923,32.6063414 87.6825203,33.3047238 88.2709763,33.8816764 C88.858507,34.4585372 89.5709459,34.7470134 90.4073676,34.7470134 L101.089324,34.7470134 Z M98.5578532,32.2875765 L90.7552598,32.2875765 C90.4147696,32.2875765 90.186234,32.2305788 90.0705783,32.116767 C89.9539974,32.0028634 89.895707,31.7790029 89.895707,31.4450019 L89.895707,29.2131886 L98.5578532,29.2131886 L98.5578532,32.2875765 Z M113.808671,34.7470134 L121.239316,21.5387836 L118.336821,21.5387836 L112.554038,31.9687198 L106.772181,21.5387836 L103.868761,21.5387836 L111.300331,34.7470134 L113.808671,34.7470134 Z M127.246933,19.6714436 L127.246933,17.2119149 L124.739519,17.2119149 L124.739519,19.6714436 L127.246933,19.6714436 Z M127.246933,34.7470134 L127.246933,21.5387836 L124.739519,21.5387836 L124.739519,34.7470134 L127.246933,34.7470134 Z M139.679454,34.7470134 L139.679454,32.2875765 L135.011592,32.2875765 C134.671101,32.2875765 134.442566,32.2305788 134.32691,32.116767 C134.210329,32.0028634 134.152039,31.7790029 134.152039,31.4450019 L134.152039,23.9982205 L139.679454,23.9982205 L139.679454,21.5387836 L134.152039,21.5387836 L134.152039,17.3713432 L131.644624,17.3713432 L131.644624,31.7865291 C131.644624,32.6063414 131.938852,33.3047238 132.526383,33.8816764 C133.114839,34.4585372 133.827278,34.7470134 134.663699,34.7470134 L139.679454,34.7470134 Z M153.744107,39.8025532 C154.580529,39.8025532 155.292043,39.5141687 155.880499,38.9372162 C156.468955,38.3602636 156.763183,37.661973 156.763183,36.8421607 L156.763183,21.5843083 L154.254843,21.5843083 L154.254843,31.4450019 C154.254843,31.7790029 154.197478,32.0028634 154.080897,32.116767 C153.965241,32.2305788 153.736706,32.2875765 153.396215,32.2875765 L146.429118,32.2875765 C146.088628,32.2875765 145.860093,32.2305788 145.743512,32.116767 C145.627856,32.0028634 145.569565,31.7790029 145.569565,31.4450019 L145.569565,21.5843083 L143.062151,21.5843083 L143.062151,31.7865291 C143.062151,32.6063414 143.355454,33.3047238 143.94391,33.8816764 C144.532366,34.4585372 145.244804,34.7470134 146.080301,34.7470134 L154.254843,34.7470134 L154.254843,36.4777793 C154.254843,36.8117803 154.197478,37.0357326 154.080897,37.1495444 C153.965241,37.263448 153.736706,37.3203539 153.396215,37.3203539 L145.430779,37.3203539 L145.430779,39.8025532 L153.744107,39.8025532 Z" id="Shape" fill="#FFFFFF" fill-rule="nonzero"></path>
                </g>
                <g id="Group-3-Copy" transform="translate(85.952000, 3.118298)" fill="#FF8E1E" fill-rule="nonzero">
                    <path d="M6.80738753,8.71489362 C7.22971756,8.71489362 7.59299297,8.56428936 7.89721376,8.26308085 C8.20143455,7.96187234 8.35354495,7.59611915 8.35354495,7.16582128 L8.35354495,7.16582128 L8.35354495,2.51860426 C8.35354495,2.08830638 8.20143455,1.72255319 7.89721376,1.42134468 C7.59299297,1.12013617 7.22971756,0.969531915 6.80738753,0.969531915 L6.80738753,0.969531915 L0.622757849,0.969531915 L0.622757849,8.71489362 L6.80738753,8.71489362 Z M6.53060626,7.16522364 L2.42437125,7.16522364 C2.27375214,7.16323152 2.19396875,7.1562591 2.18502108,7.14430638 C2.17428387,7.12996312 2.16891527,7.01521702 2.16891527,6.80006809 L2.16936265,2.78514988 C2.17085393,2.63374878 2.17607341,2.55207187 2.18502108,2.54011915 C2.19575828,2.52577589 2.30849892,2.51860426 2.52324301,2.51860426 L2.52324301,2.51860426 L6.43158538,2.51860426 C6.64632946,2.51860426 6.76085964,2.52577589 6.77517591,2.54011915 C6.78949219,2.55446241 6.79665032,2.66920851 6.79665032,2.88435745 L6.79665032,2.88435745 L6.79665032,6.80006809 C6.79665032,7.01521702 6.78949219,7.12996312 6.77517591,7.14430638 C6.76085964,7.15864965 6.64632946,7.16582128 6.43158538,7.16582128 L6.53060626,7.16522364 Z M19.1766469,8.71489362 L19.1766469,7.16582128 L13.6040378,7.16582128 L13.6040378,5.61674894 L18.0921892,5.61674894 L18.0921892,4.0676766 L13.6040378,4.0676766 L13.6040378,2.51860426 L19.1766469,2.51860426 L19.1766469,0.969531915 L12.0471432,0.969531915 L12.0471432,8.71489362 L19.1766469,8.71489362 Z M28.3032705,8.71489362 L32.7699475,0.969531915 L30.9875716,0.969531915 L27.6375639,6.78931064 L24.2875561,0.969531915 L22.494443,0.969531915 L26.9718572,8.71489362 L28.3032705,8.71489362 Z M43.3460938,8.71489362 L43.3460938,3.28238298 L47.8986684,8.71489362 L49.5307234,8.71489362 L49.5307234,0.969531915 L47.9738288,0.969531915 L47.9738288,6.38052766 L43.4319914,0.969531915 L41.7999363,0.969531915 L41.7999363,8.71489362 L43.3460938,8.71489362 Z M60.3538254,8.71489362 L60.3538254,7.16582128 L54.7812163,7.16582128 L54.7812163,5.61674894 L59.2693677,5.61674894 L59.2693677,4.0676766 L54.7812163,4.0676766 L54.7812163,2.51860426 L60.3538254,2.51860426 L60.3538254,0.969531915 L53.2243217,0.969531915 L53.2243217,8.71489362 L60.3538254,8.71489362 Z M68.1490357,8.71489362 L68.1490357,2.51860426 L71.2413505,2.51860426 L71.2413505,0.969531915 L63.5105634,0.969531915 L63.5105634,2.51860426 L66.6028783,2.51860426 L66.6028783,8.71489362 L68.1490357,8.71489362 Z" id="DEVNET"></path>
                </g>
            </g>
        </g>
    </g>
</svg>