<?xml version="1.0" encoding="UTF-8"?>
<svg width="154px" height="46px" viewBox="0 0 154 46" version="1.1" xmlns="http://www.w3.org/2000/svg" xmlns:xlink="http://www.w3.org/1999/xlink">
    <title>gravity_alpha</title>
    <g id="Page-1" stroke="none" stroke-width="1" fill="none" fill-rule="evenodd">
        <g id="SuSy_Gravity_Main_Desktop" transform="translate(-59.000000, -201.000000)">
            <g id="gravity_alpha" transform="translate(61.000000, 202.000000)">
                <g id="Logo_Gravity_-Copy-3" opacity="0.822986421">
                    <polygon id="Path" stroke="#FFFFFF" points="0 12.6530362 45 6 32.4220421 44"></polygon>
                    <polygon id="Path" stroke="#FFFFFF" points="11 35 43 18.6529257 16.9104188 0"></polygon>
                    <polygon id="Path" stroke="#FFFFFF" points="31 31 27.4907161 9 12 20.724713"></polygon>
                    <polygon id="Path" stroke="#FFFFFF" points="32 21.1009356 18 19 21.9131916 31"></polygon>
                    <path d="M61.7391363,32.3004278 C62.5177856,32.3004278 63.1846699,32.0322636 63.7397893,31.4960204 C64.2949087,30.9596919 64.5724683,30.3104835 64.5724683,29.5483954 L64.5724683,23.9385322 L58.5381089,23.9385322 L58.5381089,26.2459564 L62.2149776,26.2459564 L62.2149776,29.2309155 C62.2149776,29.541399 62.1644808,29.7494972 62.0635735,29.8553807 C61.9626662,29.9611789 61.7463748,30.0141633 61.4146991,30.0141633 L52.1360539,30.0141633 C51.8188551,30.0141633 51.6061829,29.9611789 51.4980371,29.8553807 C51.3898914,29.7494972 51.3358616,29.541399 51.3358616,29.2309155 L51.3358616,20.128006 C51.3358616,19.8175225 51.3898914,19.6094243 51.4980371,19.5035408 C51.6061829,19.3977426 51.8188551,19.3447582 52.1360539,19.3447582 L61.4146991,19.3447582 C61.7463748,19.3447582 61.9626662,19.3977426 62.0635735,19.5035408 C62.1644808,19.6094243 62.2149776,19.8175225 62.2149776,20.128006 L62.2149776,20.7208171 L64.5724683,20.7208171 L64.5724683,19.8105262 C64.5724683,19.048438 64.2949087,18.3992297 63.7397893,17.8629012 C63.1846699,17.326658 62.5177856,17.0584937 61.7391363,17.0584937 L51.8117029,17.0584937 C51.0330536,17.0584937 50.3697885,17.326658 49.8218214,17.8629012 C49.2739405,18.3992297 49,19.048438 49,19.8105262 L49,29.5483954 C49,30.3104835 49.2739405,30.9596919 49.8218214,31.4960204 C50.3697885,32.0322636 51.0330536,32.3004278 51.8117029,32.3004278 L61.7391363,32.3004278 Z M70.7945964,32.3004278 L70.7945964,23.0917202 C70.7945964,22.7812367 70.8487124,22.5731385 70.9568581,22.467255 C71.0650038,22.3614568 71.2776761,22.3084724 71.5948748,22.3084724 L78.2781087,22.3084724 L78.2781087,20.0222079 L71.2704376,20.0222079 C70.4917884,20.0222079 69.8285233,20.2903721 69.2806423,20.8266153 C68.7326752,21.3629438 68.4587348,22.0121522 68.4587348,22.7742403 L68.4587348,32.3004278 L70.7945964,32.3004278 Z M94.1486456,32.3004278 L94.1486456,22.7742403 C94.1486456,22.0121522 93.874619,21.3629438 93.3265657,20.8266153 C92.7793742,20.2903721 92.1158506,20.0222079 91.3368566,20.0222079 L81.388311,20.0222079 L81.388311,22.3084724 L91.0128503,22.3084724 C91.3299629,22.3084724 91.5393606,22.3614568 91.6401817,22.467255 C91.7410028,22.5731385 91.7909825,22.7812367 91.7909825,23.0917202 L91.7909825,25.0181856 L81.388311,25.0181856 L81.388311,29.5483954 C81.388311,30.3104835 81.6623376,30.9596919 82.2103909,31.4960204 C82.7575825,32.0322636 83.4211061,32.3004278 84.2001,32.3004278 L94.1486456,32.3004278 Z M91.7909825,30.0141633 L84.5241064,30.0141633 C84.2069938,30.0141633 83.9941492,29.9611789 83.8864343,29.8553807 C83.7778577,29.7494972 83.7235694,29.541399 83.7235694,29.2309155 L83.7235694,27.1562473 L91.7909825,27.1562473 L91.7909825,30.0141633 Z M105.994696,32.3004278 L112.915162,20.0222079 L110.211949,20.0222079 L104.826205,29.7177578 L99.4413236,20.0222079 L96.7372494,20.0222079 L103.658576,32.3004278 L105.994696,32.3004278 Z M118.510303,18.2863498 L118.510303,16 L116.175044,16 L116.175044,18.2863498 L118.510303,18.2863498 Z M118.510303,32.3004278 L118.510303,20.0222079 L116.175044,20.0222079 L116.175044,32.3004278 L118.510303,32.3004278 Z M130.089221,32.3004278 L130.089221,30.0141633 L125.741849,30.0141633 C125.424736,30.0141633 125.211891,29.9611789 125.104176,29.8553807 C124.9956,29.7494972 124.941312,29.541399 124.941312,29.2309155 L124.941312,22.3084724 L130.089221,22.3084724 L130.089221,20.0222079 L124.941312,20.0222079 L124.941312,16.1482028 L122.606053,16.1482028 L122.606053,29.5483954 C122.606053,30.3104835 122.88008,30.9596919 123.427271,31.4960204 C123.975325,32.0322636 124.638848,32.3004278 125.417842,32.3004278 L130.089221,32.3004278 Z M143.188211,37 C143.967205,37 144.629867,36.7319211 145.17792,36.1955926 C145.725973,35.659264 146,35.010141 146,34.2480529 L146,20.0645271 L143.66388,20.0645271 L143.66388,29.2309155 C143.66388,29.541399 143.610453,29.7494972 143.501877,29.8553807 C143.394162,29.9611789 143.181317,30.0141633 142.864205,30.0141633 L136.375461,30.0141633 C136.058348,30.0141633 135.845504,29.9611789 135.736927,29.8553807 C135.629212,29.7494972 135.574924,29.541399 135.574924,29.2309155 L135.574924,20.0645271 L133.239665,20.0645271 L133.239665,29.5483954 C133.239665,30.3104835 133.51283,30.9596919 134.060884,31.4960204 C134.608937,32.0322636 135.27246,32.3004278 136.050593,32.3004278 L143.66388,32.3004278 L143.66388,33.909328 C143.66388,34.2198116 143.610453,34.4279951 143.501877,34.5337933 C143.394162,34.6396768 143.181317,34.6925758 142.864205,34.6925758 L135.445666,34.6925758 L135.445666,37 L143.188211,37 Z" id="Shape" fill="#FFFFFF" fill-rule="nonzero"></path>
                </g>
                <path d="M102.41,10 L102.41,5.58 C102.41,5.2 102.275,4.875 102.005,4.605 C101.735,4.335 101.41,4.2 101.03,4.2 L101.03,4.2 L96.52,4.2 L96.52,5.51 L100.75,5.51 C100.936667,5.51 101.041667,5.52166667 101.065,5.545 C101.088333,5.56833333 101.1,5.67333333 101.1,5.86 L101.1,5.86 L101.1,6.44 L96.52,6.44 L96.52,8.62 C96.52,9 96.655,9.325 96.925,9.595 C97.195,9.865 97.52,10 97.9,10 L97.9,10 L102.41,10 Z M101.1,8.69 L98.18,8.69 C97.9933333,8.69 97.8883333,8.67833333 97.865,8.655 C97.8416667,8.63166667 97.83,8.52666667 97.83,8.34 L97.83,8.34 L97.83,7.62 L101.1,7.62 L101.1,8.69 Z M110.89,10 L110.89,8.69 L110,8.69 C109.82,8.69 109.718333,8.67833333 109.695,8.655 C109.671667,8.63166667 109.66,8.52666667 109.66,8.34 L109.66,8.34 L109.66,2.29 L108.34,2.29 L108.34,8.62 C108.34,9 108.475,9.325 108.745,9.595 C109.015,9.865 109.34,10 109.72,10 L109.72,10 L110.89,10 Z M118.031223,12.3 L118.031223,10 L121.231223,10 C121.611223,10 121.936223,9.865 122.206223,9.595 C122.476223,9.325 122.611223,9 122.611223,8.62 L122.611223,8.62 L122.611223,5.58 C122.611223,5.2 122.476223,4.875 122.206223,4.605 C121.936223,4.335 121.611223,4.2 121.231223,4.2 L121.231223,4.2 L116.721223,4.2 L116.721223,12.3 L118.031223,12.3 Z M120.951223,8.69 L118.381223,8.69 C118.194556,8.69 118.089556,8.67833333 118.066223,8.655 C118.04289,8.63166667 118.031223,8.52666667 118.031223,8.34 L118.031223,8.34 L118.031223,5.86 C118.031223,5.67333333 118.04289,5.56833333 118.066223,5.545 C118.089556,5.52166667 118.194556,5.51 118.381223,5.51 L118.381223,5.51 L120.951223,5.51 C121.13789,5.51 121.24289,5.52166667 121.266223,5.545 C121.289556,5.56833333 121.301223,5.67333333 121.301223,5.86 L121.301223,5.86 L121.301223,8.34 C121.301223,8.52666667 121.289556,8.63166667 121.266223,8.655 C121.24289,8.67833333 121.13789,8.69 120.951223,8.69 L120.951223,8.69 Z M129.771223,10 L129.771223,5.86 C129.771223,5.67333333 129.78289,5.56833333 129.806223,5.545 C129.829556,5.52166667 129.934556,5.51 130.121223,5.51 L130.121223,5.51 L132.691223,5.51 C132.87789,5.51 132.98289,5.52166667 133.006223,5.545 C133.029556,5.56833333 133.041223,5.67333333 133.041223,5.86 L133.041223,5.86 L133.041223,10 L134.351223,10 L134.351223,5.58 C134.351223,5.2 134.214556,4.875 133.941223,4.605 C133.66789,4.335 133.344556,4.2 132.971223,4.2 L132.971223,4.2 L129.771223,4.2 L129.771223,2.3 L128.461223,2.3 L128.461223,10 L129.771223,10 Z M146.131223,10 L146.131223,5.58 C146.131223,5.2 145.996223,4.875 145.726223,4.605 C145.456223,4.335 145.131223,4.2 144.751223,4.2 L144.751223,4.2 L140.241223,4.2 L140.241223,5.51 L144.471223,5.51 C144.65789,5.51 144.76289,5.52166667 144.786223,5.545 C144.809556,5.56833333 144.821223,5.67333333 144.821223,5.86 L144.821223,5.86 L144.821223,6.44 L140.241223,6.44 L140.241223,8.62 C140.241223,9 140.376223,9.325 140.646223,9.595 C140.916223,9.865 141.241223,10 141.621223,10 L141.621223,10 L146.131223,10 Z M144.821223,8.69 L141.901223,8.69 C141.714556,8.69 141.609556,8.67833333 141.586223,8.655 C141.56289,8.63166667 141.551223,8.52666667 141.551223,8.34 L141.551223,8.34 L141.551223,7.62 L144.821223,7.62 L144.821223,8.69 Z" id="alpha" fill="#FF8E1E" fill-rule="nonzero"></path>
            </g>
        </g>
    </g>
</svg>