<?xml version="1.0" encoding="UTF-8"?>
<svg width="160px" height="50px" viewBox="0 0 160 50" version="1.1" xmlns="http://www.w3.org/2000/svg" xmlns:xlink="http://www.w3.org/1999/xlink">
    <title>Group 10</title>
    <g id="Page-1" stroke="none" stroke-width="1" fill="none" fill-rule="evenodd">
        <g id="Home_desktop" transform="translate(-48.000000, -36.000000)">
            <g id="Group-10" transform="translate(50.000000, 37.000000)">
                <g id="Logo_Gravity_-Copy-7" opacity="0.822986421">
                    <polygon id="Path" stroke="#FFFFFF" points="0 13.728979 48.5347034 6.51020614 34.9687599 47.7415117"></polygon>
                    <polygon id="Path" stroke="#FFFFFF" points="11.8640386 37.9762025 46.3776055 20.2390653 18.2387147 0"></polygon>
                    <polygon id="Path" stroke="#FFFFFF" points="33.4350179 33.636065 29.6500834 9.76530921 12.9425876 22.4870256"></polygon>
                    <polygon id="Path" stroke="#FFFFFF" points="34.5135668 22.8952401 19.4138814 20.6156528 23.6344501 33.636065"></polygon>
                    <path d="M66.5886815,35.0470739 C67.4284929,35.0470739 68.1477603,34.7561065 68.7464837,34.1742642 C69.3452071,33.5923293 69.6445688,32.887916 69.6445688,32.0610241 L69.6445688,25.9741299 L63.1362167,25.9741299 L63.1362167,28.4777644 L67.1018996,28.4777644 L67.1018996,31.7165476 C67.1018996,32.0534329 67.0474364,32.2792266 66.9386029,32.3941138 C66.8297695,32.5089085 66.5964886,32.5663984 66.2387601,32.5663984 L56.2312869,32.5663984 C55.8891725,32.5663984 55.6597951,32.5089085 55.5431546,32.3941138 C55.4265141,32.2792266 55.3682404,32.0534329 55.3682404,31.7165476 L55.3682404,21.8395781 C55.3682404,21.5026928 55.4265141,21.2768991 55.5431546,21.1620119 C55.6597951,21.0472172 55.8891725,20.9897273 56.2312869,20.9897273 L66.2387601,20.9897273 C66.5964886,20.9897273 66.8297695,21.0472172 66.9386029,21.1620119 C67.0474364,21.2768991 67.1018996,21.5026928 67.1018996,21.8395781 L67.1018996,22.4827985 L69.6445688,22.4827985 L69.6445688,21.4951015 C69.6445688,20.6682097 69.3452071,19.9637963 68.7464837,19.3818615 C68.1477603,18.8000192 67.4284929,18.5090518 66.5886815,18.5090518 L55.8814584,18.5090518 C55.0416471,18.5090518 54.3262832,18.8000192 53.7352738,19.3818615 C53.1443574,19.9637963 52.8488992,20.6682097 52.8488992,21.4951015 L52.8488992,32.0610241 C52.8488992,32.887916 53.1443574,33.5923293 53.7352738,34.1742642 C54.3262832,34.7561065 55.0416471,35.0470739 55.8814584,35.0470739 L66.5886815,35.0470739 Z M76.3554386,35.0470739 L76.3554386,25.0553098 C76.3554386,24.7184245 76.4138053,24.4926308 76.5304458,24.3777435 C76.6470862,24.2629489 76.8764637,24.205459 77.2185781,24.205459 L84.426773,24.205459 L84.426773,21.7247834 L76.8686567,21.7247834 C76.0288453,21.7247834 75.3134814,22.0157509 74.722565,22.5975931 C74.1315557,23.179528 73.8360975,23.8839414 73.8360975,24.7108332 L73.8360975,35.0470739 L76.3554386,35.0470739 Z M101.543924,35.0470739 L101.543924,24.7108332 C101.543924,23.8839414 101.248373,23.179528 100.657271,22.5975931 C100.067098,22.0157509 99.3514552,21.7247834 98.5112721,21.7247834 L87.7812785,21.7247834 L87.7812785,24.205459 L98.1618154,24.205459 C98.5038368,24.205459 98.7296825,24.2629489 98.838423,24.3777435 C98.9471635,24.4926308 99.0010691,24.7184245 99.0010691,25.0553098 L99.0010691,27.1455909 L87.7812785,27.1455909 L87.7812785,32.0610241 C87.7812785,32.887916 88.0768297,33.5923293 88.6679319,34.1742642 C89.2581048,34.7561065 89.9737475,35.0470739 90.8139307,35.0470739 L101.543924,35.0470739 Z M99.0010691,32.5663984 L91.1633874,32.5663984 C90.8213659,32.5663984 90.5918026,32.5089085 90.4756268,32.3941138 C90.3585217,32.2792266 90.2999691,32.0534329 90.2999691,31.7165476 L90.2999691,29.4654613 L99.0010691,29.4654613 L99.0010691,32.5663984 Z M114.32047,35.0470739 L121.784531,21.7247834 L118.868984,21.7247834 L113.060195,32.2447882 L107.252337,21.7247834 L104.33586,21.7247834 L111.80085,35.0470739 L114.32047,35.0470739 Z M127.819164,19.8413178 L127.819164,17.3605497 L125.300474,17.3605497 L125.300474,19.8413178 L127.819164,19.8413178 Z M127.819164,35.0470739 L127.819164,21.7247834 L125.300474,21.7247834 L125.300474,35.0470739 L127.819164,35.0470739 Z M140.307594,35.0470739 L140.307594,32.5663984 L135.61874,32.5663984 C135.276719,32.5663984 135.047156,32.5089085 134.93098,32.3941138 C134.813875,32.2792266 134.755322,32.0534329 134.755322,31.7165476 L134.755322,24.205459 L140.307594,24.205459 L140.307594,21.7247834 L134.755322,21.7247834 L134.755322,17.5213548 L132.236632,17.5213548 L132.236632,32.0610241 C132.236632,32.887916 132.532183,33.5923293 133.122356,34.1742642 C133.713458,34.7561065 134.429101,35.0470739 135.269284,35.0470739 L140.307594,35.0470739 Z M154.435497,40.1462712 C155.27568,40.1462712 155.990393,39.8553963 156.581495,39.2734615 C157.172598,38.6915266 157.468149,37.9872058 157.468149,37.160314 L157.468149,21.7707013 L154.948529,21.7707013 L154.948529,31.7165476 C154.948529,32.0534329 154.890906,32.2792266 154.7738,32.3941138 C154.657625,32.5089085 154.428061,32.5663984 154.08604,32.5663984 L147.087612,32.5663984 C146.74559,32.5663984 146.516027,32.5089085 146.398922,32.3941138 C146.282746,32.2792266 146.224194,32.0534329 146.224194,31.7165476 L146.224194,21.7707013 L143.705503,21.7707013 L143.705503,32.0610241 C143.705503,32.887916 144.000125,33.5923293 144.591227,34.1742642 C145.182329,34.7561065 145.897972,35.0470739 146.737226,35.0470739 L154.948529,35.0470739 L154.948529,36.7927859 C154.948529,37.1296712 154.890906,37.3555575 154.7738,37.4703521 C154.657625,37.5852394 154.428061,37.6426367 154.08604,37.6426367 L146.084783,37.6426367 L146.084783,40.1462712 L154.435497,40.1462712 Z" id="Shape" fill="#FFFFFF" fill-rule="nonzero"></path>
                </g>
                <path d="M110.215972,6.2180815 L110.376435,6.22640672 C110.690499,6.25970756 110.963387,6.39291094 111.195099,6.62601684 C111.465431,6.89797374 111.600597,7.22299539 111.600597,7.6010818 L111.600597,7.6010818 L111.600597,11.9988238 L111.592321,12.1576119 C111.559219,12.4686905 111.426812,12.7407828 111.195099,12.9738887 C110.924768,13.2458456 110.598392,13.3818241 110.215972,13.3818241 L110.215972,13.3818241 L104.479673,13.3818241 L104.479673,6.2180815 L110.215972,6.2180815 Z M109.939048,7.54138395 L106.131331,7.54138395 L106.030254,7.5427769 C105.908407,7.54649143 105.838253,7.55763503 105.819791,7.5762077 C105.796714,7.59942353 105.785175,7.70389477 105.785175,7.88962143 L105.785175,7.88962143 L105.785175,11.7102841 L105.78656,11.8119695 C105.790252,11.9345491 105.801329,12.0051252 105.819791,12.0236979 C105.842868,12.0469137 105.946715,12.0585216 106.131331,12.0585216 L106.131331,12.0585216 L109.939048,12.0585216 C110.117071,12.0585216 110.219269,12.0469137 110.245643,12.0236979 C110.272017,12.000482 110.285204,11.8960108 110.285204,11.7102841 L110.285204,11.7102841 L110.285204,7.88962143 L110.283621,7.78793609 C110.279401,7.66535649 110.266742,7.59478036 110.245643,7.5762077 C110.219269,7.55299186 110.117071,7.54138395 109.939048,7.54138395 L109.939048,7.54138395 Z" id="Combined-Shape" fill="#FF8E1E" fill-rule="nonzero"></path>
                <polygon id="Path" fill="#FF8E1E" fill-rule="nonzero" points="126.557184 13.3818241 126.557184 12.0585216 121.315393 12.0585216 121.315393 10.4665788 125.528606 10.4665788 125.528606 9.13332674 121.315393 9.13332674 121.315393 7.54138395 126.557184 7.54138395 126.557184 6.2180815 120 6.2180815 120 13.3818241"></polygon>
                <polygon id="Path" fill="#FF8E1E" fill-rule="nonzero" points="135.305503 13.3818241 135.305503 8.13836249 138.01541 11.3620466 140.715427 8.12841285 140.715427 13.3818241 142.03082 13.3818241 142.03082 6.2180815 140.586855 6.2180815 138.01541 9.3124203 135.434075 6.2180815 134 6.2180815 134 13.3818241"></polygon>
                <path d="M155.74619,6.57280427 L155.904029,6.58112949 C156.213248,6.61443033 156.483714,6.74763371 156.715427,6.98073961 C156.985758,7.25269651 157.120924,7.57771816 157.120924,7.95580457 L157.120924,7.95580457 L157.120924,12.3535465 L157.112648,12.5123347 C157.079547,12.8234133 156.947139,13.0955056 156.715427,13.3286115 C156.445095,13.6005684 156.122017,13.7365468 155.74619,13.7365468 L155.74619,13.7365468 L151.374734,13.7365468 L151.216895,13.7282216 C150.907676,13.6949208 150.63721,13.5617174 150.405497,13.3286115 C150.135166,13.0566546 150,12.7316329 150,12.3535465 L150,12.3535465 L150,7.95580457 L150.008275,7.7970164 C150.041377,7.48593779 150.173784,7.21384552 150.405497,6.98073961 C150.675828,6.70878272 150.998907,6.57280427 151.374734,6.57280427 L151.374734,6.57280427 L155.74619,6.57280427 Z M155.459375,7.89610672 L151.651659,7.89610672 L151.550581,7.89749967 C151.428734,7.9012142 151.35858,7.9123578 151.340118,7.93093047 C151.317041,7.9541463 151.305503,8.05861754 151.305503,8.2443442 L151.305503,8.2443442 L151.305503,12.0650069 L151.306887,12.1666922 C151.31058,12.2892718 151.321657,12.359848 151.340118,12.3784206 C151.363195,12.4016365 151.467042,12.4132444 151.651659,12.4132444 L151.651659,12.4132444 L155.459375,12.4132444 C155.637398,12.4132444 155.739597,12.4016365 155.76597,12.3784206 C155.792344,12.3552048 155.805531,12.2507336 155.805531,12.0650069 L155.805531,12.0650069 L155.805531,8.2443442 L155.803949,8.14265886 C155.799729,8.02007926 155.787069,7.94950313 155.76597,7.93093047 C155.739597,7.90771463 155.637398,7.89610672 155.459375,7.89610672 L155.459375,7.89610672 Z" id="Combined-Shape" fill="#FF8E1E" fill-rule="nonzero"></path>
            </g>
        </g>
    </g>
</svg>