<svg width="170" height="54" viewBox="0 0 170 54" fill="none" xmlns="http://www.w3.org/2000/svg">
  <g opacity="0.822986">
    <path fill-rule="evenodd" clip-rule="evenodd" d="M1.29675 16.2381L52.7829 8.48669L38.392 52.7602L1.29675 16.2381Z" stroke="white"/>
    <path fill-rule="evenodd" clip-rule="evenodd" d="M13.3883 42.6392L50.0969 23.5903L20.1684 1.85443L13.3883 42.6392Z" stroke="white"/>
    <path fill-rule="evenodd" clip-rule="evenodd" d="M36.8914 37.3038L32.7563 12.4294L14.5031 25.686L36.8914 37.3038Z" stroke="white"/>
    <path fill-rule="evenodd" clip-rule="evenodd" d="M37.6808 26.0796L21.5349 23.6488L26.0479 37.5329L37.6808 26.0796Z" stroke="white"/>
    <path fill-rule="evenodd" clip-rule="evenodd" d="M138.099 22.7849V20.1052H135.389V22.7849H138.099ZM72.2177 39.21C73.1213 39.21 73.8952 38.8957 74.5394 38.2672C75.1836 37.6386 75.5057 36.8777 75.5057 35.9845V29.4095H68.503V32.1139H72.7699V35.6124C72.7699 35.9763 72.7113 36.2202 72.5942 36.3443C72.4771 36.4683 72.2261 36.5304 71.8412 36.5304H61.0736C60.7055 36.5304 60.4587 36.4683 60.3332 36.3443C60.2077 36.2202 60.145 35.9763 60.145 35.6124V24.9434C60.145 24.5795 60.2077 24.3356 60.3332 24.2115C60.4587 24.0875 60.7055 24.0254 61.0736 24.0254H71.8412C72.2261 24.0254 72.4771 24.0875 72.5942 24.2115C72.7113 24.3356 72.7699 24.5795 72.7699 24.9434V25.6382H75.5057V24.5713C75.5057 23.6781 75.1836 22.9172 74.5394 22.2886C73.8952 21.6601 73.1213 21.3458 72.2177 21.3458H60.6972C59.7936 21.3458 59.0239 21.6601 58.388 22.2886C57.7522 22.9172 57.4343 23.6781 57.4343 24.5713V35.9845C57.4343 36.8777 57.7522 37.6386 58.388 38.2672C59.0239 38.8957 59.7936 39.21 60.6972 39.21H72.2177ZM82.7263 39.21V28.417C82.7263 28.0531 82.7891 27.8092 82.9146 27.6851C83.0401 27.5611 83.2869 27.499 83.655 27.499H91.4107V24.8194H83.2785C82.3749 24.8194 81.6052 25.1337 80.9694 25.7622C80.3335 26.3908 80.0156 27.1517 80.0156 28.0449V39.21H82.7263ZM109.828 28.0449V39.21H98.283C97.379 39.21 96.609 38.8957 95.974 38.2672C95.338 37.6386 95.02 36.8777 95.02 35.9845V30.6749H107.092V28.417C107.092 28.0531 107.034 27.8092 106.917 27.6851C106.8 27.5611 106.557 27.499 106.189 27.499H95.02V24.8194H106.565C107.469 24.8194 108.239 25.1337 108.874 25.7622C109.51 26.3908 109.828 27.1517 109.828 28.0449ZM107.092 36.5304H98.659C98.291 36.5304 98.044 36.4683 97.919 36.3443C97.793 36.2202 97.73 35.9763 97.73 35.6124V33.1808H107.092V36.5304ZM131.606 24.8194L123.575 39.21H120.864L112.832 24.8194H115.97L122.219 36.183L128.469 24.8194H131.606ZM138.099 24.8194V39.21H135.389V24.8194H138.099ZM151.536 39.21V36.5304H146.491C146.123 36.5304 145.876 36.4683 145.751 36.3443C145.625 36.2202 145.562 35.9763 145.562 35.6124V27.499H151.536V24.8194H145.562V20.2789H142.852V35.9845C142.852 36.8777 143.17 37.6386 143.805 38.2672C144.441 38.8957 145.211 39.21 146.115 39.21H151.536ZM169.046 43.7753C168.41 44.4039 167.641 44.7181 166.737 44.7181H157.752V42.0137H166.361C166.729 42.0137 166.976 41.9517 167.101 41.8276C167.227 41.7036 167.289 41.4596 167.289 41.0957V39.21H158.454C157.551 39.21 156.781 38.8957 156.145 38.2672C155.509 37.6386 155.192 36.8777 155.192 35.9845V24.869H157.902V35.6124C157.902 35.9763 157.965 36.2202 158.09 36.3443C158.216 36.4683 158.463 36.5304 158.831 36.5304H166.361C166.729 36.5304 166.976 36.4683 167.101 36.3443C167.227 36.2202 167.289 35.9763 167.289 35.6124V24.869H170V41.4927C170 42.3859 169.682 43.1467 169.046 43.7753Z" fill="white"/>
  </g>
</svg>
