<svg width="120" height="51" viewBox="0 0 120 51" fill="none" xmlns="http://www.w3.org/2000/svg">
  <path fill-rule="evenodd" clip-rule="evenodd" d="M65 21.6982H63V19.572H65V21.6982ZM65 31.572H63V23H65V31.572Z" fill="white"/>
  <path d="M54 19.572H56.1528V29.6174H61V31.572H54V19.572Z" fill="white"/>
  <path d="M74.8508 24.2678C75.3898 24.9628 75.6578 25.8988 75.6578 27.0748V31.7628H73.5748V27.2428C73.5748 26.4578 73.4428 25.8788 73.1798 25.5028C72.9168 25.1278 72.4938 24.9408 71.9118 24.9408C71.2718 24.9408 70.7448 25.1808 70.3308 25.6628V31.7628H68.2478V23.3608H70.1968L70.2298 23.9488C70.9358 23.4668 71.6868 23.2268 72.4818 23.2268C73.5248 23.2268 74.3138 23.5748 74.8508 24.2678Z" fill="white"/>
  <path d="M78.3362 20H80.4202V26.806L83.0242 23.36H85.3772L82.3182 27.394L85.4442 31.763H83.0912L80.4202 28.032V31.763H78.3362V20Z" fill="white"/>
  <path fill-rule="evenodd" clip-rule="evenodd" d="M91.7004 20H87.5164V31.763H89.6664V27.679H91.7504C93.0954 27.679 94.1204 27.36 94.8264 26.721C95.5314 26.083 95.8854 25.108 95.8854 23.797C95.8854 21.266 94.4904 20 91.7004 20ZM93.1544 25.377C92.7894 25.713 92.2374 25.881 91.4984 25.881H89.6664V21.797H91.4474C92.2094 21.797 92.7754 21.963 93.1444 22.294C93.5154 22.624 93.6994 23.136 93.6994 23.831C93.6994 24.526 93.5184 25.041 93.1544 25.377Z" fill="white"/>
  <path fill-rule="evenodd" clip-rule="evenodd" d="M97.4519 29.7642C97.7979 30.4242 98.2969 30.9512 98.9479 31.3422C99.5959 31.7342 100.365 31.9322 101.25 31.9322C102.134 31.9322 102.902 31.7342 103.551 31.3422C104.202 30.9512 104.7 30.4242 105.047 29.7642C105.395 29.1022 105.569 28.3742 105.569 27.5782C105.569 26.7832 105.395 26.0502 105.047 25.3772C104.7 24.7042 104.202 24.1722 103.551 23.7812C102.902 23.3882 102.134 23.1912 101.25 23.1912C100.365 23.1912 99.5959 23.3882 98.9479 23.7812C98.2969 24.1722 97.7979 24.7042 97.4519 25.3772C97.1039 26.0502 96.9309 26.7832 96.9309 27.5782C96.9309 28.3742 97.1039 29.1022 97.4519 29.7642ZM103.434 27.5782C103.434 28.3742 103.242 29.0132 102.854 29.4942C102.467 29.9752 101.933 30.2172 101.25 30.2172C100.567 30.2172 100.031 29.9752 99.6439 29.4942C99.2579 29.0132 99.0649 28.3742 99.0649 27.5782C99.0649 26.7712 99.2579 26.1252 99.6439 25.6372C100.031 25.1502 100.567 24.9062 101.25 24.9062C101.933 24.9062 102.467 25.1502 102.854 25.6372C103.242 26.1252 103.434 26.7712 103.434 27.5782Z" fill="white"/>
  <path fill-rule="evenodd" clip-rule="evenodd" d="M107.439 29.7642C107.786 30.4242 108.285 30.9512 108.936 31.3422C109.584 31.7342 110.353 31.9322 111.238 31.9322C112.122 31.9322 112.89 31.7342 113.539 31.3422C114.19 30.9512 114.687 30.4242 115.034 29.7642C115.382 29.1022 115.556 28.3742 115.556 27.5782C115.556 26.7832 115.382 26.0502 115.034 25.3772C114.687 24.7042 114.19 24.1722 113.539 23.7812C112.89 23.3882 112.122 23.1912 111.238 23.1912C110.353 23.1912 109.584 23.3882 108.936 23.7812C108.285 24.1722 107.786 24.7042 107.439 25.3772C107.091 26.0502 106.919 26.7832 106.919 27.5782C106.919 28.3742 107.091 29.1022 107.439 29.7642ZM113.421 27.5782C113.421 28.3742 113.229 29.0132 112.842 29.4942C112.455 29.9752 111.921 30.2172 111.238 30.2172C110.554 30.2172 110.019 29.9752 109.632 29.4942C109.246 29.0132 109.052 28.3742 109.052 27.5782C109.052 26.7712 109.246 26.1252 109.632 25.6372C110.019 25.1502 110.554 24.9062 111.238 24.9062C111.921 24.9062 112.455 25.1502 112.842 25.6372C113.229 26.1252 113.421 26.7712 113.421 27.5782Z" fill="white"/>
  <path d="M117.394 31.769H119.477V19.999H117.394V31.769Z" fill="white"/>
  <path d="M36.4964 8.78906L33.6172 10.4571V12.6633L36.4964 10.9944L42.4708 14.4307V21.306L28.6055 29.2831V32.5419L30.5219 33.6454V30.3867L44.3872 22.4078V13.3281L36.4964 8.78906Z" fill="white"/>
  <path d="M28.6052 45.2373L22.6308 48.6746L16.6564 45.2373V30.9784C16.6564 29.9329 16.0899 28.956 15.1784 28.432L13.7737 27.6379L11.8396 28.752L14.2255 30.0895C14.5422 30.2715 14.7399 30.6126 14.7399 30.9784V46.3409L22.6308 50.8808L30.5225 46.3409V42.9898L28.6052 41.8863V45.2373Z" fill="white"/>
  <path d="M2.79123 37.2601V30.3865L8.76299 26.9502L8.7674 26.9528L16.6565 22.4077V19.127L14.7401 18.0234V21.305L0.874756 29.283V38.3636L8.76564 42.9035L11.6703 41.2029V38.9976L8.76564 40.6973L2.79123 37.2601Z" fill="white"/>
  <path d="M16.6565 6.45333L22.6309 3.0161L28.6053 6.45333V22.4084L31.5091 24.0325L33.4362 22.9237L30.5226 21.3058V5.34979L22.6309 0.810791L14.74 5.34979V8.64105L16.6565 9.74458V6.45333Z" fill="white"/>
  <path d="M5.65029 22.9258L2.79147 21.3052V14.4308L8.765 10.9944L22.6312 18.9715L25.5103 17.2639V15.0577L22.6312 16.7653L8.765 8.78735L0.875 13.3281V22.4079L3.725 24.0328L5.65029 22.9258Z" fill="white"/>
  <path d="M44.3875 32.678V29.2971L41.5578 27.6387L39.6202 28.7536L42.4702 30.4006V32.678V37.2601L36.4967 40.6973L22.6314 32.7202L19.7778 34.3909V36.5971L22.6314 34.9264L36.4967 42.9035L44.3381 38.3918L44.3875 38.3768V38.3636V32.678Z" fill="white"/>
</svg>
