<svg width="124" height="116" viewBox="0 0 124 116" fill="none" xmlns="http://www.w3.org/2000/svg">
  <rect x="9" y="11" width="105" height="105" rx="33.5" fill="url(#paint0_linear)"/>
  <path fill-rule="evenodd" clip-rule="evenodd" d="M82.5953 70.2825C82.7706 70.7395 82.9366 71.3578 82.9828 72.0747C83.0473 73.3383 82.7245 75.1127 80.8887 76.7257C81.0086 77.5502 81.0086 78.8585 80.2614 80.1579C79.2743 81.8785 77.3463 83.0435 74.5235 83.626C72.6324 84.0203 70.1509 84.1009 67.1435 83.8769C61.0827 83.9934 55.1788 83.2675 54.8467 83.2227L52.6788 82.9718C52.0515 83.4019 51.2858 83.6529 50.4648 83.6529H44.8376C42.7158 83.6529 41 81.9771 41 79.9249V65.3627C41 63.3016 42.7251 61.6347 44.8376 61.6347H50.4648C51.129 61.6347 51.7471 61.796 52.2913 62.0828C52.6788 61.2584 53.2507 60.3174 54.0994 59.4482C54.1456 59.4034 54.1917 59.3585 54.247 59.3227C57.1437 57.163 60.5569 49.3845 61.7654 46.2122C61.6455 45.2264 61.5255 43.0936 62.5403 41.9376C62.9923 41.4268 63.6196 41.149 64.3207 41.149C65.031 41.149 67.4848 41.3103 69.0162 43.3625C70.4645 45.3161 70.5475 48.2375 69.256 52.055C68.1675 55.2632 68.066 56.6881 68.1029 57.2616C68.6011 57.154 69.09 57.0555 69.5605 56.9748H69.5697C69.6527 56.9569 71.6822 56.5178 74.1084 56.4102C77.5585 56.2489 80.0585 56.8314 81.516 58.1308C83.527 59.9142 83.2872 62.1903 82.6876 63.6421C83.2042 64.2963 83.8315 65.3627 83.8868 66.7248C83.9237 67.9615 83.4994 69.1533 82.5953 70.2825ZM50.4648 64.0453H44.8376C44.0904 64.0453 43.4907 64.6368 43.4907 65.3537V79.916C43.4907 80.6418 44.0996 81.2243 44.8376 81.2243H50.4648C51.212 81.2243 51.8116 80.6329 51.8116 79.916V65.3537C51.8116 64.6278 51.212 64.0453 50.4648 64.0453ZM80.1415 63.1761C80.1415 63.1671 80.4644 62.6743 80.5751 62.0022C80.7134 61.1687 80.4736 60.4787 79.8278 59.9052C78.0659 58.3459 72.9921 58.7044 70.1601 59.3137C70.1232 59.3227 70.0863 59.3317 70.0402 59.3406C69.5328 59.4302 68.9885 59.5378 68.435 59.6543C67.8446 59.8604 67.0328 59.8335 66.424 59.3048C65.1971 58.2473 65.3354 55.8457 66.876 51.2843C67.8907 48.2912 67.9276 46.033 66.9867 44.7694C66.1934 43.703 64.8834 43.5686 64.3853 43.5596C64.1639 43.9181 64.0993 45.1458 64.2653 46.1584C64.293 46.3556 64.2746 46.5617 64.21 46.7588C64.0347 47.2159 59.985 57.9875 55.843 61.1777C54.7636 62.3158 54.2932 63.651 54.1271 64.2515C54.2378 64.601 54.3024 64.9773 54.3024 65.3627V79.916C54.3024 80.1848 54.2747 80.4536 54.2194 80.7046L55.1511 80.8121H55.1603C55.2157 80.8211 61.2211 81.5738 67.1527 81.4484C67.1896 81.4484 67.2358 81.4484 67.2819 81.4484C70.0771 81.6634 72.3372 81.6007 74.0069 81.2512C76.0733 80.8211 77.4386 80.0683 78.0659 79.0019C78.7208 77.8996 78.3611 76.7616 78.3334 76.654C78.1397 76.1522 78.3149 75.6055 78.7577 75.2829C81.4883 73.2935 80.2337 70.9725 80.0677 70.6857C79.7633 70.2197 79.8371 69.6283 80.2337 69.225C81.0271 68.4185 81.4145 67.612 81.3869 66.8234C81.35 65.6494 80.4182 64.7712 80.3537 64.7175C79.8924 64.3321 79.8094 63.6779 80.1415 63.1761Z" fill="url(#paint1_linear)"/>
  <path d="M111.959 64.9388L104.93 68.6344L106.272 60.807L100.585 55.2636L108.444 54.1216L111.959 47L115.474 54.1216L123.333 55.2636L117.646 60.807L118.989 68.6344L111.959 64.9388Z" fill="#878EA1"/>
  <path fill-rule="evenodd" clip-rule="evenodd" d="M60.9592 17.9388L53.9298 21.6344L55.2723 13.807L49.5853 8.26359L57.4445 7.12159L60.9592 0L64.4739 7.12159L72.333 8.26359L66.6461 13.807L67.9886 21.6344L60.9592 17.9388Z" fill="#878EA1"/>
  <path d="M11.9592 64.9388L4.92975 68.6344L6.27225 60.807L0.585324 55.2636L8.44447 54.1216L11.9592 47L15.4739 54.1216L23.333 55.2636L17.6461 60.807L18.9886 68.6344L11.9592 64.9388Z" fill="#878EA1"/>
  <defs>
    <linearGradient id="paint0_linear" x1="49.1095" y1="-42.2257" x2="11.9974" y2="104.765" gradientUnits="userSpaceOnUse">
      <stop stop-color="#2E3356"/>
      <stop offset="1" stop-color="#10111A"/>
    </linearGradient>
    <linearGradient id="paint1_linear" x1="38.1807" y1="56.2" x2="68.8176" y2="38.2973" gradientUnits="userSpaceOnUse">
      <stop stop-color="#6000FF" stop-opacity="0.15"/>
      <stop offset="0.343724" stop-color="#4200C0"/>
      <stop offset="1" stop-color="#FF5E00"/>
    </linearGradient>
  </defs>
</svg>
