<?xml version="1.0" standalone="no"?>
<!DOCTYPE svg PUBLIC "-//W3C//DTD SVG 20010904//EN"
 "http://www.w3.org/TR/2001/REC-SVG-20010904/DTD/svg10.dtd">
<svg version="1.0" xmlns="http://www.w3.org/2000/svg"
 width="700.000000pt" height="700.000000pt" viewBox="0 0 700.000000 700.000000"
 preserveAspectRatio="xMidYMid meet">
<metadata>
Created by potrace 1.11, written by Peter Selinger 2001-2013
</metadata>
<g transform="translate(0.000000,700.000000) scale(0.100000,-0.100000)"
fill="#000000" stroke="none">
<path d="M2599 6243 c0 -4 -3 -19 -5 -33 -9 -51 -34 -196 -40 -234 -3 -21 -7
-47 -9 -56 -2 -10 -7 -40 -11 -67 -3 -26 -8 -57 -11 -68 -2 -11 -6 -35 -9 -54
-2 -18 -18 -110 -33 -205 -16 -94 -32 -187 -35 -206 -3 -19 -8 -46 -10 -60 -3
-14 -7 -41 -10 -60 -3 -19 -7 -44 -10 -55 -2 -11 -7 -40 -10 -65 -16 -104 -9
-95 -94 -109 -42 -6 -88 -13 -102 -15 -14 -3 -45 -7 -70 -10 -25 -3 -54 -8
-65 -10 -11 -2 -41 -6 -66 -10 -25 -4 -57 -9 -70 -11 -32 -5 -66 -10 -335 -50
-128 -19 -245 -36 -260 -39 -16 -2 -49 -8 -74 -11 -25 -4 -53 -9 -64 -11 -10
-2 -39 -6 -65 -9 -25 -3 -71 -9 -101 -15 -30 -5 -75 -12 -100 -15 -25 -4 -85
-12 -135 -20 -49 -8 -108 -17 -130 -20 -56 -8 -87 -14 -91 -18 -4 -4 73 -80
1035 -1027 l473 -465 -6 -50 c-3 -27 -8 -61 -11 -75 -2 -13 -7 -40 -10 -60 -3
-20 -7 -45 -9 -57 -3 -11 -7 -38 -10 -59 -4 -22 -13 -79 -22 -129 -16 -97 -22
-133 -30 -180 -2 -16 -6 -41 -9 -55 -3 -14 -7 -38 -9 -55 -3 -16 -12 -73 -21
-125 -9 -52 -18 -108 -21 -125 -3 -16 -7 -43 -10 -60 -3 -16 -7 -41 -9 -55 -2
-14 -14 -83 -26 -153 -11 -71 -19 -130 -17 -133 3 -2 34 11 69 29 64 34 210
110 524 272 94 49 236 123 318 166 l147 77 119 -116 c66 -65 332 -326 591
-582 260 -256 569 -560 689 -677 l216 -212 46 142 c26 78 95 291 154 472 58
182 113 348 120 370 14 39 41 123 241 740 53 165 127 395 165 510 38 116 103
316 146 447 l77 236 90 46 c106 54 225 117 244 129 9 6 -22 33 -100 90 -62 44
-115 82 -117 84 -2 1 8 38 22 80 14 43 82 251 151 463 68 212 164 506 212 653
47 147 85 269 83 271 -2 2 -41 -2 -86 -9 -45 -7 -103 -16 -130 -20 -26 -3 -88
-12 -138 -20 -49 -8 -108 -17 -130 -20 -22 -3 -51 -8 -65 -10 -14 -2 -74 -11
-135 -20 -60 -9 -121 -18 -135 -20 -101 -16 -162 -25 -205 -30 -27 -3 -57 -8
-65 -10 -8 -2 -35 -7 -60 -10 -41 -6 -137 -20 -200 -30 -14 -2 -43 -6 -65 -10
-23 -3 -50 -7 -60 -9 -11 -2 -42 -7 -70 -11 -27 -4 -61 -8 -75 -10 -14 -2 -38
-6 -55 -9 -33 -5 -105 -16 -145 -21 -29 -4 -108 -16 -130 -20 -8 -1 -38 -6
-66 -10 l-51 -6 -224 162 c-123 89 -435 316 -694 504 -517 375 -495 359 -496
348z m663 -649 c295 -214 533 -392 530 -395 -4 -4 -119 -23 -257 -43 -137 -21
-288 -44 -335 -51 -47 -8 -105 -17 -130 -20 -25 -3 -85 -12 -135 -20 -49 -8
-110 -17 -135 -20 -25 -3 -85 -13 -135 -21 -118 -18 -128 -18 -121 4 3 9 8 37
11 62 3 25 8 52 10 60 2 8 6 33 10 55 3 22 7 47 10 55 2 8 6 35 9 60 3 25 10
68 15 95 5 28 12 68 15 90 4 23 8 52 11 65 3 13 7 42 10 65 3 22 8 47 10 55 2
8 7 35 11 60 3 25 7 50 8 55 1 6 8 50 16 98 8 53 18 86 24 84 6 -2 252 -179
548 -393z m2608 -245 c0 -5 -4 -18 -10 -31 -5 -13 -57 -171 -116 -353 -58
-181 -137 -424 -174 -540 -38 -115 -71 -220 -75 -232 -3 -13 -11 -23 -16 -23
-9 0 -1239 889 -1272 920 -16 15 -4 18 200 49 227 33 499 74 568 85 130 21
164 26 205 31 25 3 70 9 100 15 30 5 75 12 100 15 25 3 70 10 100 15 30 5 75
12 100 15 25 3 70 10 100 15 30 6 77 13 105 16 27 3 51 7 52 8 7 6 33 2 33 -5z
m-2065 -308 c-6 -4 -118 -86 -250 -181 -132 -96 -271 -197 -310 -225 -38 -28
-236 -172 -440 -320 -203 -147 -384 -279 -401 -291 l-31 -24 24 133 c12 72 25
150 28 172 6 40 31 192 39 230 2 11 14 86 27 167 24 157 22 152 84 162 17 2
48 7 70 11 22 3 54 7 70 9 17 2 80 12 140 21 61 9 135 20 165 25 348 53 675
102 715 106 28 4 52 8 54 10 2 2 9 4 15 4 6 0 6 -3 1 -9z m475 -187 c33 -25
730 -530 895 -650 191 -138 255 -188 255 -197 0 -7 -13 -52 -30 -102 l-30 -90
-142 -73 c-79 -40 -210 -107 -293 -150 -82 -43 -244 -127 -360 -186 -115 -60
-214 -112 -220 -116 -21 -16 -52 -20 -52 -8 -1 7 -4 38 -8 68 l-6 55 150 149
c83 82 150 150 149 152 -2 1 -25 5 -53 8 -27 4 -57 9 -65 11 -8 2 -37 6 -65
10 -64 7 -179 25 -181 28 -1 1 -5 22 -8 47 -3 25 -8 56 -11 70 -3 14 -8 45
-11 70 -3 25 -7 47 -9 50 -2 3 -6 30 -10 60 -4 30 -8 57 -10 60 -2 3 -7 33
-10 65 -4 33 -9 63 -11 66 -2 3 -6 24 -9 47 -2 22 -12 80 -20 129 -9 48 -18
103 -20 120 -3 18 -12 72 -21 120 -8 49 -17 102 -19 118 -2 17 -10 69 -19 115
-8 47 -17 99 -20 117 l-4 32 111 -81 c62 -44 132 -96 157 -114z m-382 -21 c7
-43 14 -89 17 -103 4 -24 51 -307 60 -360 2 -14 25 -147 50 -297 48 -292 49
-297 37 -289 -4 2 -30 7 -57 10 -28 3 -90 13 -140 21 -111 18 -363 56 -390 60
-11 1 -40 5 -65 9 -25 4 -56 9 -70 11 -32 4 -110 16 -131 20 -9 2 -40 6 -70
10 -30 3 -61 8 -69 10 -8 2 -35 7 -60 10 -51 7 -56 8 -203 30 -60 9 -110 15
-113 13 -3 -4 88 -294 170 -540 l33 -97 -131 68 c-72 38 -201 105 -286 149
l-155 81 2 41 c3 103 -3 96 206 247 105 77 334 242 507 368 173 126 401 291
505 367 105 76 201 146 214 155 13 10 43 32 65 50 23 18 46 32 52 32 6 1 16
-34 22 -76z m-1538 -15 c0 -7 -18 -121 -40 -253 -22 -132 -43 -256 -46 -275
-3 -19 -14 -84 -24 -145 -11 -60 -21 -126 -24 -145 -16 -122 -13 -116 -98
-178 -44 -31 -90 -64 -102 -72 -12 -8 -37 -26 -54 -40 l-32 -26 105 -54 106
-55 -6 -55 c-3 -30 -9 -72 -13 -93 l-7 -38 -167 163 c-91 90 -370 363 -618
608 -496 489 -466 449 -359 464 65 8 110 15 149 21 19 3 96 15 170 26 74 11
146 21 160 24 14 2 88 13 165 25 77 11 151 23 165 25 14 2 41 6 60 9 19 2 98
14 175 26 195 30 308 47 323 49 6 0 12 -5 12 -11z m621 -1018 c30 -5 79 -12
109 -15 30 -4 57 -8 60 -10 3 -1 30 -6 61 -9 31 -4 65 -8 75 -10 28 -5 94 -15
139 -21 22 -3 51 -8 65 -11 14 -2 43 -7 65 -9 22 -3 94 -14 160 -24 66 -11
143 -22 170 -26 28 -3 57 -8 65 -10 8 -2 35 -7 60 -10 88 -11 84 -8 96 -66 28
-139 52 -98 -210 -355 -127 -126 -239 -235 -248 -242 -15 -12 -27 -8 -90 26
-84 45 -422 221 -455 236 -19 9 -38 57 -108 274 -47 144 -88 269 -91 277 -7
18 3 18 77 5z m2326 -187 c-3 -5 -27 -78 -55 -163 -146 -452 -282 -870 -347
-1070 -41 -124 -101 -310 -135 -415 -34 -104 -75 -228 -90 -275 -15 -47 -67
-206 -115 -353 l-86 -268 -54 53 c-113 113 -1043 1029 -1196 1178 l-162 158
51 26 50 26 26 -78 26 -78 198 193 c108 107 213 202 232 213 l35 18 140 -73
c77 -40 208 -107 290 -150 83 -43 192 -100 243 -127 63 -34 92 -45 92 -35 0 8
-6 52 -14 98 -8 46 -17 98 -19 114 -14 81 -47 282 -51 300 -2 11 -7 42 -10 68
-4 27 -9 59 -12 70 -2 12 -6 32 -8 44 -3 12 1 26 7 31 7 5 89 49 182 97 94 48
240 124 325 168 249 130 455 236 458 237 2 0 1 -3 -1 -7z m-1037 -19 c0 -8 -4
-12 -10 -9 -5 3 -10 10 -10 16 0 5 5 9 10 9 6 0 10 -7 10 -16z m-1418 -384
l107 -55 74 -230 c42 -126 78 -240 81 -252 6 -18 -2 -26 -61 -58 -37 -19 -75
-37 -85 -38 -9 -1 -157 136 -367 342 -313 307 -350 347 -346 370 3 14 8 42 11
61 3 19 9 59 14 89 6 30 10 56 10 59 0 3 139 -68 562 -288z m1317 0 c1 -13
-122 -86 -182 -109 -5 -2 30 36 79 84 83 81 89 85 95 63 4 -12 7 -30 8 -38z
m-1626 -440 l278 -275 -108 -56 c-59 -31 -180 -94 -268 -139 -88 -46 -211
-109 -273 -142 l-113 -59 6 48 c4 26 8 55 11 64 3 9 7 34 10 55 2 22 6 46 9
54 2 8 7 38 10 65 4 28 8 57 10 65 2 8 6 29 9 45 3 17 12 71 20 120 9 50 18
108 21 130 4 22 8 51 11 65 2 14 7 41 10 60 3 19 7 46 10 60 3 14 7 41 10 60
2 19 6 44 9 55 2 11 4 24 4 29 1 13 20 -4 324 -304z m977 90 c0 -3 -17 -13
-37 -22 -21 -10 -81 -40 -133 -68 -63 -33 -96 -45 -99 -37 -3 7 -28 83 -56
169 l-52 157 189 -97 c103 -53 188 -99 188 -102z m695 73 c9 -60 19 -117 21
-128 2 -11 6 -33 8 -50 2 -16 7 -47 11 -69 5 -26 4 -37 -3 -35 -26 9 -402 204
-402 209 0 5 330 179 341 180 3 0 14 -48 24 -107z"/>
</g>
</svg>
