<svg width="30" height="30" viewBox="0 0 30 30" fill="none" xmlns="http://www.w3.org/2000/svg">
<path fill-rule="evenodd" clip-rule="evenodd" d="M20.3082 23.1353H7.34545C6.05091 23.1353 5 22.1738 5 20.9V6.23889C5 5.03097 6.05273 4.00271 7.35 4.00271L22.5927 4C23.8909 4 24.9382 5.02646 25 6.23437V25.6667C25 25.6667 19.7809 21.2241 19.6891 21.1447L20.3082 23.1353ZM13.2083 9.12879C13.2083 9.12879 11.6637 9.07101 9.99737 10.2753C9.99737 10.2753 8.33101 13.1137 8.33101 16.6128C8.33101 16.6128 9.25464 18.1837 11.7874 18.2432C11.7874 18.2432 12.1574 17.7621 12.531 17.3387C11.1083 16.9162 10.5546 16.0712 10.5546 16.0712C10.5546 16.0712 10.6783 16.1307 10.8637 16.2517H10.9183C10.9448 16.2517 10.9577 16.2637 10.9712 16.2765C10.9721 16.2772 10.9729 16.278 10.9737 16.2788V16.2842C10.9883 16.2987 11.001 16.3113 11.0292 16.3113C14.0537 17.53 16.5819 17.8117 19.4665 16.008C19.4665 16.008 18.9119 16.853 17.4301 17.2755C17.7356 17.6962 18.1646 18.1782 18.1646 18.1782C20.2406 18.1339 21.2766 17.0713 21.6136 16.7256C21.6879 16.6493 21.7283 16.608 21.7383 16.62C21.7383 13.1263 20.0619 10.2825 20.0619 10.2825C18.5637 9.19469 17.1637 9.14594 16.8992 9.14504L16.7301 9.31025C18.6437 9.85192 19.5701 10.6978 19.5701 10.6978C14.9216 8.4259 11.03 10.3186 10.4438 10.6037C10.4009 10.6246 10.3756 10.6369 10.3692 10.6382C10.3692 10.6382 11.2937 9.73365 13.3328 9.25067L13.2083 9.12879Z" fill="#EEECEC"/>
<path d="M17.4995 15.8819C18.0901 15.8819 18.571 15.4116 18.571 14.8316C18.571 14.2555 18.0926 13.7852 17.4995 13.7852V13.7875C16.9115 13.7875 16.4298 14.2562 16.4281 14.8363C16.4281 15.4116 16.909 15.8819 17.4995 15.8819Z" fill="#F2F2F2"/>
<path d="M13.571 14.8316C13.571 14.2555 13.0934 13.7852 12.5029 13.7852C11.909 13.7875 11.4281 14.2562 11.4281 14.8363C11.4281 15.4116 11.909 15.8819 12.4995 15.8819C13.0901 15.8819 13.571 15.4116 13.571 14.8316Z" fill="#F2F2F2"/>
</svg>
