<svg width="30" height="30" viewBox="0 0 30 30" fill="none" xmlns="http://www.w3.org/2000/svg">
<path d="M15.0001 4C8.95823 4 4 8.95823 4 15.0001C4 20.1559 7.61779 24.8393 12.4219 26.0002V22.3609C11.9459 22.4651 11.5078 22.4681 11.0233 22.3253C10.3732 22.1335 9.84497 21.7004 9.45288 21.0401C9.20295 20.6185 8.76 20.1612 8.29791 20.1948L8.18462 18.9108C9.18382 18.8252 10.0482 19.5196 10.5613 20.3816C10.7893 20.765 11.0516 20.9897 11.3883 21.0891C11.7138 21.1849 12.0632 21.139 12.4704 20.9951C12.5727 20.1799 12.9461 19.8747 13.2283 19.445V19.4444C10.3631 19.017 9.22125 17.497 8.76806 16.2972C8.1675 14.7042 8.48977 12.714 9.55174 11.4563C9.57238 11.4318 9.60965 11.3677 9.59521 11.3229C9.10828 9.85202 9.70163 8.63529 9.72345 8.50621C10.2854 8.67238 10.3767 8.33904 12.1645 9.42518L12.4735 9.61082C12.6027 9.68786 12.5621 9.64389 12.6913 9.63415C13.4378 9.43139 14.2246 9.31944 14.9999 9.30937C15.7811 9.31944 16.5629 9.43139 17.3402 9.64238L17.4403 9.65245C17.4315 9.6511 17.4674 9.64607 17.5277 9.61015C19.7609 8.25746 19.6807 8.69957 20.2796 8.50487C20.3012 8.63411 20.8867 9.87065 20.405 11.3229C20.34 11.5229 22.3411 13.3553 21.2319 16.2967C20.7788 17.497 19.6371 19.017 16.7719 19.4444V19.445C17.1391 20.0048 17.5804 20.3026 17.5781 21.4574V26.0002C22.3824 24.8393 26 20.1559 26 15.0001C26.0002 8.95823 21.0419 4 15.0001 4Z" fill="#EEECEC"/>
</svg>
