<svg width="30" height="30" viewBox="0 0 30 30" fill="none" xmlns="http://www.w3.org/2000/svg">
<path d="M24.9949 24.9992V24.9984H25.0001V17.3463C25.0001 13.6028 24.1969 10.7191 19.8349 10.7191C17.738 10.7191 16.3309 11.8736 15.7564 12.9682H15.6957V11.0686H11.56V24.9984H15.8664V18.1009C15.8664 16.2848 16.2096 14.5287 18.4512 14.5287C20.6598 14.5287 20.6928 16.6012 20.6928 18.2174V24.9992H24.9949Z" fill="#EEECEC"/>
<path d="M4.8399 10.7191H9.03994V24.9992H4.8399V10.7191Z" fill="#EEECEC"/>
<path d="M6.52002 4C5.12885 4 4 5.12359 4 6.50827C4 7.89296 5.12885 9.04005 6.52002 9.04005C7.9112 9.04005 9.04005 7.89296 9.04005 6.50827C9.03917 5.12359 7.91032 4 6.52002 4Z" fill="#EEECEC"/>
</svg>
