<svg width="30" height="30" viewBox="0 0 30 30" fill="none" xmlns="http://www.w3.org/2000/svg">
<path d="M26.0052 8.20846L28 6.39659V6H21.0896L16.1646 17.6387L10.5615 6H3.31562V6.39659L5.64583 9.06C5.87292 9.25681 5.99167 9.54462 5.96146 9.8344V20.3011C6.03333 20.6779 5.90417 21.0656 5.625 21.3396L3 24.36V24.7516H10.4427V24.3551L7.81771 21.3396C7.53333 21.0646 7.39896 20.6838 7.45625 20.3011V11.2477L13.9896 24.7566H14.749L20.3667 11.2477V22.0091C20.3667 22.293 20.3667 22.3513 20.1708 22.5373L18.15 24.3936V24.7912H27.9542V24.3946L26.0063 22.5837C25.8354 22.4611 25.7469 22.2554 25.7833 22.0556V8.73659C25.7469 8.53582 25.8344 8.33011 26.0052 8.20846Z" fill="#EEECEC"/>
</svg>
