<svg width="30" height="30" viewBox="0 0 30 30" fill="none" xmlns="http://www.w3.org/2000/svg">
<path fill-rule="evenodd" clip-rule="evenodd" d="M22.6002 13.2803C23.0708 12.801 23.71 12.4934 24.4364 12.4934C27.1168 12.4954 28.0071 16.1606 25.5893 17.4277C25.6956 17.8192 25.7388 18.255 25.7388 18.6706C25.7388 22.818 21.1627 26.1786 15.5201 26.1786C9.90137 26.1786 5.32534 22.818 5.32534 18.6706C5.32534 18.255 5.36463 17.8385 5.45184 17.4479C2.98413 16.1857 3.86676 12.4934 6.56158 12.4934C7.288 12.4934 7.95212 12.801 8.42267 13.3005C10.1582 12.0769 12.4659 11.291 15.0304 11.182L16.5043 4.37221C16.5675 4.12921 16.8004 3.95564 17.0381 4.02025L21.7598 5.08868C22.0808 4.45996 22.7248 4 23.4713 4C24.5428 4 25.3947 4.89582 25.3947 5.96521C25.3947 7.03461 24.537 7.93043 23.4704 7.93043C22.4239 7.93043 21.571 7.05775 21.571 5.98932L17.2959 5.00961L15.9532 11.1868C18.5379 11.2707 20.8704 12.0576 22.6002 13.2803ZM11.2918 15.7443C10.2204 15.7443 9.36746 16.6208 9.36746 17.7095C9.36746 18.7789 10.2252 19.6554 11.2918 19.6506C12.3392 19.6506 13.1922 18.7789 13.1922 17.7095C13.1922 16.615 12.3383 15.7443 11.2918 15.7443ZM19.7544 22.3388C17.9902 24.1401 13.0116 24.1401 11.2464 22.3388C11.0518 22.1653 11.0518 21.8586 11.2464 21.6609C11.416 21.4874 11.7169 21.4874 11.8865 21.6609C13.234 23.0717 17.7036 23.0958 19.1095 21.6609C19.2791 21.4874 19.58 21.4874 19.7496 21.6609C19.948 21.8596 19.948 22.1662 19.7544 22.3388ZM17.8163 17.717C17.8163 18.7854 18.6692 19.6561 19.7157 19.6561C20.7823 19.6561 21.6352 18.7806 21.64 17.717C21.64 16.6225 20.7823 15.7517 19.7157 15.7517C18.6692 15.7517 17.8163 16.6283 17.8163 17.717Z" fill="#EEECEC"/>
</svg>
