<svg width="30" height="30" viewBox="0 0 30 30" fill="none" xmlns="http://www.w3.org/2000/svg">
<path d="M27 8.23812C26.1447 8.61768 25.2333 8.86927 24.2831 8.99143C25.2606 8.401 26.0067 7.47317 26.3574 6.35484C25.4461 6.90456 24.4398 7.29285 23.3674 7.50953C22.5021 6.57734 21.2687 6 19.9232 6C17.3127 6 15.2111 8.14359 15.2111 10.7715C15.2111 11.1496 15.2427 11.5131 15.3203 11.8592C11.4002 11.6658 7.93156 9.7651 5.60137 6.86965C5.19456 7.5837 4.95594 8.401 4.95594 9.28083C4.95594 10.9329 5.79688 12.3973 7.05037 13.2452C6.29281 13.2306 5.54962 13.0081 4.92 12.6576C4.92 12.6722 4.92 12.6911 4.92 12.71C4.92 15.0281 6.55444 16.9536 8.69775 17.3971C8.31394 17.5033 7.89563 17.5542 7.4615 17.5542C7.15963 17.5542 6.85488 17.5367 6.56881 17.4727C7.17975 19.3618 8.91337 20.7506 10.9748 20.7957C9.3705 22.0653 7.33356 22.8303 5.12844 22.8303C4.74175 22.8303 4.37088 22.8128 4 22.7648C6.08869 24.1275 8.56406 24.9055 11.2335 24.9055C19.9102 24.9055 24.654 17.6342 24.654 11.3313C24.654 11.1205 24.6468 10.9169 24.6367 10.7147C25.5726 10.0429 26.3589 9.20375 27 8.23812Z" fill="#EEECEC"/>
</svg>
