<svg width="16" height="20" viewBox="0 0 16 20" fill="none" xmlns="http://www.w3.org/2000/svg">
  <path d="M0.0567455 16.5685L1.43039 14.3041C2.0648 13.2589 2.40002 12.0618 2.40002 10.8434V8.8598C2.40002 6.35563 4.08969 4.23758 6.40019 3.55475V2.13455C6.40019 1.26184 7.11782 0.552124 8.00027 0.552124C8.88272 0.552124 9.60034 1.26184 9.60034 2.13455V3.55475C11.9108 4.23758 13.6005 6.35563 13.6005 8.8598V10.8434C13.6005 12.0618 13.9357 13.2581 14.5693 14.3033L15.943 16.5678C16.0174 16.6904 16.019 16.8423 15.9478 16.9665C15.8766 17.0907 15.7445 17.1675 15.6005 17.1675H0.399959C0.255953 17.1675 0.12316 17.0908 0.0519447 16.9673C-0.0192699 16.8439 -0.0168705 16.6904 0.0567455 16.5685Z" fill="#EEECEC"/>
  <path d="M10.4615 17.7828C10.0207 18.8702 9.08734 19.629 8.00003 19.629C6.91272 19.629 5.97934 18.8702 5.53847 17.7828H10.4615V17.7828Z" fill="#EEECEC"/>
</svg>
