<svg width="30" height="30" viewBox="0 0 30 30" fill="none" xmlns="http://www.w3.org/2000/svg">
<path d="M3.08512 24.5071L5.14558 21.1836C6.0972 19.6496 6.60004 17.8926 6.60004 16.1043V13.1931C6.60004 9.51772 9.13453 6.40909 12.6003 5.40692V3.3225C12.6003 2.04164 13.6767 1 15.0004 1C16.3241 1 17.4005 2.04164 17.4005 3.3225V5.40692C20.8662 6.40909 23.4007 9.51772 23.4007 13.1931V16.1043C23.4007 17.8926 23.9036 19.6484 24.854 21.1824L26.9144 24.5059C27.0261 24.6859 27.0285 24.9089 26.9217 25.0912C26.8148 25.2735 26.6168 25.3862 26.4008 25.3862H3.59994C3.38393 25.3862 3.18474 25.2735 3.07792 25.0924C2.97109 24.9112 2.9747 24.6859 3.08512 24.5071Z" fill="#EEECEC"/>
<path d="M18.6919 26.2905C18.0306 27.8865 16.6306 29.0001 14.9996 29.0001C13.3687 29.0001 11.9686 27.8865 11.3073 26.2905H18.6919V26.2905Z" fill="#EEECEC"/>
</svg>
