<svg width="30" height="30" viewBox="0 0 30 30" fill="none" xmlns="http://www.w3.org/2000/svg">
<path d="M2.70649 26.5405C2.31631 26.1497 2.31631 25.516 2.70649 25.1251L25.0856 2.70722C25.4758 2.31636 26.1084 2.31636 26.4986 2.70722L27.2485 3.45845C27.6387 3.84931 27.6387 4.48302 27.2485 4.87389L4.86941 27.2918C4.47922 27.6826 3.84661 27.6826 3.45642 27.2918L2.70649 26.5405Z" fill="#D8D8D8"/>
<path d="M27.2935 26.5405C27.6837 26.1497 27.6837 25.516 27.2935 25.1251L4.91442 2.70721C4.52424 2.31635 3.89162 2.31635 3.50144 2.70721L2.75151 3.45844C2.36132 3.8493 2.36132 4.48302 2.75151 4.87388L25.1306 27.2918C25.5208 27.6826 26.1534 27.6826 26.5436 27.2918L27.2935 26.5405Z" fill="#D8D8D8"/>
</svg>
