<svg width="14" height="14" viewBox="0 0 14 14" fill="none" xmlns="http://www.w3.org/2000/svg">
  <path fill-rule="evenodd" clip-rule="evenodd" d="M11.5417 6.58984C11.7124 6.09394 12.1834 5.7365 12.7365 5.7365C13.4332 5.7365 14 6.30331 14 7C14 7.69669 13.4332 8.2635 12.7365 8.2635C12.1834 8.2635 11.7124 7.90606 11.5417 7.41016H10.6282C10.5496 8.11007 10.2724 8.75071 9.85436 9.27432L10.5015 9.92146C10.9729 9.6915 11.5587 9.77175 11.9498 10.1629C12.4424 10.6556 12.4424 11.4571 11.9498 11.9498C11.7035 12.1961 11.3799 12.3193 11.0563 12.3193C10.7328 12.3193 10.4092 12.1961 10.1629 11.9498C9.77175 11.5586 9.69153 10.9729 9.92146 10.5015L9.27432 9.85439C8.75071 10.2724 8.11007 10.5496 7.41016 10.6282V11.5417C7.90606 11.7124 8.2635 12.1834 8.2635 12.7365C8.2635 13.4332 7.69669 14 7 14C6.30331 14 5.7365 13.4332 5.7365 12.7365C5.7365 12.1834 6.09394 11.7124 6.58984 11.5417V10.6282C5.88993 10.5496 5.24929 10.2724 4.72568 9.85439L4.07854 10.5015C4.30847 10.9729 4.22822 11.5586 3.83709 11.9498C3.59078 12.1961 3.26722 12.3193 2.94366 12.3193C2.62011 12.3193 2.29655 12.1961 2.05023 11.9498C1.55758 11.4571 1.55758 10.6556 2.05023 10.1629C2.44136 9.77175 3.02712 9.6915 3.4985 9.92146L4.14564 9.27432C3.72755 8.75071 3.4504 8.11007 3.37179 7.41016H2.45829C2.28755 7.90606 1.81664 8.2635 1.2635 8.2635C0.566809 8.2635 0 7.69669 0 7C0 6.30331 0.566809 5.7365 1.2635 5.7365C1.81664 5.7365 2.28755 6.09394 2.45829 6.58984H3.37179C3.4504 5.88993 3.72758 5.24929 4.14564 4.72568L3.4985 4.07854C3.32396 4.16369 3.13389 4.20659 2.94366 4.20659C2.62011 4.20659 2.29655 4.08343 2.05023 3.83709C1.55758 3.34444 1.55758 2.54289 2.05023 2.05023C2.54286 1.55755 3.34447 1.55755 3.83709 2.05023C4.22825 2.44136 4.30847 3.02709 4.07854 3.49847L4.72568 4.14561C5.24929 3.72755 5.88993 3.4504 6.58984 3.37179V2.45829C6.09394 2.28755 5.7365 1.81664 5.7365 1.2635C5.7365 0.566809 6.30331 0 7 0C7.69669 0 8.2635 0.566809 8.2635 1.2635C8.2635 1.81664 7.90606 2.28755 7.41016 2.45829V3.37179C8.11007 3.45037 8.75071 3.72755 9.27432 4.14561L9.92146 3.49847C9.69153 3.02709 9.77178 2.44136 10.1629 2.05023C10.6555 1.55755 11.4571 1.55755 11.9498 2.05023C12.4424 2.54289 12.4424 3.34444 11.9498 3.83709C11.7035 4.08343 11.3799 4.20659 11.0563 4.20659C10.8661 4.20659 10.676 4.16366 10.5015 4.07854L9.85436 4.72568C10.2724 5.24929 10.5496 5.88993 10.6282 6.58984H11.5417ZM11.0563 2.5007C10.9429 2.5007 10.8294 2.5439 10.7429 2.63028C10.5701 2.80309 10.5701 3.08427 10.7429 3.25705C10.9158 3.42981 11.1969 3.42981 11.3697 3.25705C11.5425 3.08427 11.5425 2.80306 11.3697 2.63028C11.2833 2.5439 11.1698 2.5007 11.0563 2.5007ZM9.66716 6.05071L9.53375 6.00045C9.02139 5.80746 8.46396 5.82444 7.96425 6.04849C7.66062 6.18464 7.32238 6.1938 7.01179 6.07452C6.70119 5.9552 6.45611 5.72184 6.32171 5.41748L5.87371 4.40289C6.21906 4.25253 6.59993 4.16894 7 4.16894C8.2282 4.16894 9.27607 4.95518 9.66716 6.05071ZM7.44319 1.2635C7.44319 1.01913 7.2444 0.820312 7 0.820312C6.75563 0.820312 6.55681 1.01913 6.55681 1.2635C6.55681 1.50787 6.7556 1.70669 7 1.70669C7.2444 1.70669 7.44319 1.50787 7.44319 1.2635ZM2.63028 3.25705C2.45749 3.08427 2.45749 2.80306 2.63028 2.63028C2.71668 2.5439 2.83019 2.5007 2.94366 2.5007C3.05714 2.5007 3.17064 2.5439 3.25705 2.63028C3.42984 2.80306 3.42984 3.08427 3.25705 3.25705C3.08424 3.42984 2.80312 3.42984 2.63028 3.25705ZM0.820312 7C0.820312 7.2444 1.01913 7.44319 1.2635 7.44319C1.5079 7.44319 1.70669 7.24437 1.70669 7C1.70669 6.75563 1.50787 6.55681 1.2635 6.55681C1.01913 6.55681 0.820312 6.7556 0.820312 7ZM2.63028 11.3697C2.45749 11.1969 2.45749 10.9157 2.63028 10.7429C2.71668 10.6566 2.83019 10.6134 2.94366 10.6134C3.05714 10.6134 3.17064 10.6566 3.25705 10.7429C3.42986 10.9157 3.42986 11.1969 3.25705 11.3697C3.08424 11.5425 2.80309 11.5425 2.63028 11.3697ZM5.05302 8.08514L4.30762 7.87536C4.6337 8.87584 5.50282 9.63328 6.56537 9.7977C6.44186 8.99161 5.85476 8.31075 5.05302 8.08514ZM7 13.1797C6.7556 13.1797 6.55681 12.9809 6.55681 12.7365C6.55681 12.4921 6.75563 12.2933 7 12.2933C7.24437 12.2933 7.44319 12.4921 7.44319 12.7365C7.44319 12.9809 7.2444 13.1797 7 13.1797ZM5.27524 7.29548C6.43155 7.62092 7.26646 8.62796 7.3929 9.80366C8.76865 9.61179 9.83106 8.42773 9.83106 6.99995L9.83093 6.9889L9.24462 6.76807C8.93613 6.65186 8.60059 6.66217 8.29979 6.797C7.79543 7.02311 7.23352 7.03847 6.71759 6.84023C6.20164 6.64202 5.79452 6.25439 5.57129 5.74878L5.17059 4.84127C4.562 5.35779 4.17386 6.12637 4.16913 6.98417L5.27524 7.29548ZM11.3697 10.7429C11.5425 10.9157 11.5425 11.1969 11.3697 11.3697C11.1969 11.5425 10.9158 11.5425 10.7429 11.3697C10.5702 11.1969 10.5702 10.9157 10.7429 10.7429C10.8294 10.6566 10.9429 10.6134 11.0563 10.6134C11.1698 10.6134 11.2833 10.6566 11.3697 10.7429ZM12.2933 7C12.2933 7.24437 12.4921 7.44319 12.7365 7.44319C12.9809 7.44319 13.1797 7.24437 13.1797 7C13.1797 6.75563 12.9809 6.55681 12.7365 6.55681C12.4921 6.55681 12.2933 6.75563 12.2933 7Z" fill="#44D7B6"/>
</svg>
