<svg width="30" height="30" viewBox="0 0 30 30" fill="none" xmlns="http://www.w3.org/2000/svg">
  <path d="M7.80208 24.996C9.34963 24.996 10.6042 23.7414 10.6042 22.1939C10.6042 20.6463 9.34963 19.3918 7.80208 19.3918C6.25453 19.3918 5 20.6463 5 22.1939C5 23.7414 6.25453 24.996 7.80208 24.996Z" fill="#00E6B3"/>
  <path d="M5 12.2691V15.9066C10.0193 15.9066 14.0874 19.9812 14.0874 24.9941H17.725C17.725 17.9696 12.0245 12.2691 5 12.2691Z" fill="#00E6B3"/>
  <path d="M5 5V8.63752C14.036 8.63752 21.3625 15.964 21.3625 25H25C24.9936 13.9525 16.0411 5 5 5Z" fill="#00E6B3"/>
</svg>
