<svg width="30" height="30" viewBox="0 0 30 30" fill="none" xmlns="http://www.w3.org/2000/svg">
<path d="M5.64271 27.9948C7.65452 27.9948 9.28541 26.3639 9.28541 24.3521C9.28541 22.3402 7.65452 20.7094 5.64271 20.7094C3.6309 20.7094 2 22.3402 2 24.3521C2 26.3639 3.6309 27.9948 5.64271 27.9948Z" fill="#00E6B3"/>
<path d="M2 11.4499V16.1787C8.5251 16.1787 13.8137 21.4756 13.8137 27.9923H18.5424C18.5424 18.8606 11.1318 11.4499 2 11.4499Z" fill="#00E6B3"/>
<path d="M2 2V6.72878C13.7468 6.72878 23.2712 16.2532 23.2712 28H28C27.9917 13.6382 16.3535 2 2 2Z" fill="#00E6B3"/>
</svg>
