<svg width="13" height="11" viewBox="0 0 13 11" fill="none" xmlns="http://www.w3.org/2000/svg">
  <path d="M2.49917 10.9948C3.4081 10.9948 4.14494 10.3049 4.14494 9.45386C4.14494 8.60285 3.4081 7.91296 2.49917 7.91296C1.59023 7.91296 0.853394 8.60285 0.853394 9.45386C0.853394 10.3049 1.59023 10.9948 2.49917 10.9948Z" fill="#00E6B3"/>
  <path d="M0.853394 3.99707V5.99738C3.80143 5.99738 6.1908 8.23803 6.1908 10.9947H8.32726C8.32726 7.13184 4.97913 3.99707 0.853394 3.99707Z" fill="#00E6B3"/>
  <path d="M0.853394 0V2.00031C6.16058 2.00031 10.4637 6.02923 10.4637 10.9982H12.6002C12.5964 4.92306 7.33828 0 0.853394 0Z" fill="#00E6B3"/>
</svg>
