<svg width="30" height="30" viewBox="0 0 30 30" fill="none" xmlns="http://www.w3.org/2000/svg">
  <path d="M19.5362 14.8965L16.9949 12.9952C16.5343 12.6507 15.8979 13.0015 15.8979 13.5987V14.7616H3.69586C3.31156 14.7616 3 15.0923 3 15.5001C3 15.9079 3.31156 16.2385 3.69586 16.2385H15.8979V17.4014C15.8979 18.0026 16.5378 18.3468 16.9947 18.005L19.5361 16.1036C19.9307 15.8085 19.9251 15.1881 19.5362 14.8965Z" fill="#44D7B6"/>
  <path d="M15.9154 27C11.9184 27 8.40807 24.6979 6.52896 21.2505C6.33654 20.8976 6.4502 20.4457 6.78286 20.2416C7.11557 20.0375 7.54121 20.1581 7.73364 20.5111C9.36809 23.5095 12.4232 25.523 15.9154 25.523C21.1234 25.523 25.3603 21.0268 25.3603 15.5C25.3603 9.97325 21.1234 5.47692 15.9154 5.47692C12.4214 5.47692 9.36729 7.49207 7.73369 10.4888C7.54126 10.8418 7.11563 10.9625 6.78291 10.7583C6.45024 10.5541 6.33658 10.1024 6.52902 9.74935C8.40844 6.30153 11.919 4 15.9154 4C21.9048 4 26.7519 9.14337 26.7519 15.5C26.7519 21.8561 21.9053 27 15.9154 27Z" fill="#44D7B6"/>
</svg>
