<svg width="19" height="20" viewBox="0 0 19 20" fill="none" xmlns="http://www.w3.org/2000/svg">
  <path d="M17.0935 13.4258L16.063 16.9619L14.04 16.4004L17.0935 13.4258Z" fill="#E4761B" stroke="#E4761B" stroke-width="0.952079"/>
  <path d="M14.04 16.4004L15.9912 13.6872L17.0935 13.4258L14.04 16.4004Z" fill="#E4761B" stroke="#E4761B" stroke-width="0.952079"/>
  <path fill-rule="evenodd" clip-rule="evenodd" d="M16.5529 10.074L15.5773 10.7598L15.9912 13.6873L17.0935 13.4258L16.5529 10.074Z" fill="#F6851B"/>
  <path d="M15.5773 10.7598L15.3035 10.3703L15.0651 10.5379L15.1059 10.8264L15.5773 10.7598ZM16.5529 10.074L17.0228 9.99818L16.9017 9.2469L16.2791 9.68453L16.5529 10.074ZM15.9912 13.6873L15.5198 13.7539L15.5929 14.271L16.101 14.1504L15.9912 13.6873ZM17.0935 13.4258L17.2033 13.889L17.6339 13.7869L17.5634 13.35L17.0935 13.4258ZM15.851 11.1492L16.8266 10.4634L16.2791 9.68453L15.3035 10.3703L15.851 11.1492ZM16.4625 13.6206L16.0486 10.6931L15.1059 10.8264L15.5198 13.7539L16.4625 13.6206ZM16.9836 12.9626L15.8813 13.2241L16.101 14.1504L17.2033 13.889L16.9836 12.9626ZM16.0829 10.1498L16.6235 13.5016L17.5634 13.35L17.0228 9.99818L16.0829 10.1498Z" fill="#F6851B"/>
  <path fill-rule="evenodd" clip-rule="evenodd" d="M17.1399 7.57935L14.3356 8.7452L16.9118 8.98523L17.0005 8.21799L17.1399 7.57935Z" fill="#763D16"/>
  <path d="M14.3356 8.7452L14.1528 8.30563L14.2914 9.21919L14.3356 8.7452ZM17.1399 7.57935L17.605 7.68084L17.7995 6.78959L16.9571 7.13978L17.1399 7.57935ZM16.9118 8.98523L16.8676 9.45921L17.3312 9.50241L17.3847 9.03989L16.9118 8.98523ZM17.0005 8.21799L16.5354 8.1165L16.5303 8.13972L16.5276 8.16333L17.0005 8.21799ZM14.5183 9.18476L17.3226 8.01891L16.9571 7.13978L14.1528 8.30563L14.5183 9.18476ZM16.956 8.51124L14.3797 8.27121L14.2914 9.21919L16.8676 9.45921L16.956 8.51124ZM16.5276 8.16333L16.4389 8.93056L17.3847 9.03989L17.4734 8.27266L16.5276 8.16333ZM16.6748 7.47785L16.5354 8.1165L17.4656 8.31949L17.605 7.68084L16.6748 7.47785Z" fill="#763D16"/>
  <path fill-rule="evenodd" clip-rule="evenodd" d="M17.4735 7.84938L17.0005 8.21799L17.1399 7.57935L17.4735 7.84938ZM16.9118 8.98523L17.3764 8.53517L17.0005 8.21799L16.9118 8.98523ZM16.9118 8.98523L14.3356 8.7452L16.5528 10.0739L16.9118 8.98523Z" fill="#763D16"/>
  <path d="M17.0005 8.21799L16.5354 8.1165L16.5303 8.13972L16.5276 8.16333L17.0005 8.21799ZM17.4735 7.84938L17.7661 8.22487L18.2389 7.85643L17.773 7.47935L17.4735 7.84938ZM17.1399 7.57935L17.4394 7.20931L16.8394 6.72371L16.6748 7.47785L17.1399 7.57935ZM17.3764 8.53517L17.7076 8.87708L18.0857 8.51083L17.6834 8.17136L17.3764 8.53517ZM14.3356 8.7452L14.3797 8.27121L14.0909 9.15353L14.3356 8.7452ZM16.5528 10.0739L16.3081 10.4823L16.8186 10.7882L17.0049 10.223L16.5528 10.0739ZM17.2931 8.59348L17.7661 8.22487L17.1809 7.47389L16.7079 7.84251L17.2931 8.59348ZM16.6748 7.47785L16.5354 8.1165L17.4656 8.31949L17.605 7.68084L16.6748 7.47785ZM17.773 7.47935L17.4394 7.20931L16.8404 7.94938L17.174 8.21941L17.773 7.47935ZM17.0452 8.19326L16.5806 8.64332L17.243 9.32714L17.7076 8.87708L17.0452 8.19326ZM16.6935 8.58181L17.0694 8.89899L17.6834 8.17136L17.3075 7.85418L16.6935 8.58181ZM17.3847 9.03989L17.4734 8.27266L16.5276 8.16333L16.4389 8.93056L17.3847 9.03989ZM16.956 8.51124L14.3797 8.27121L14.2914 9.21919L16.8676 9.45921L16.956 8.51124ZM14.0909 9.15353L16.3081 10.4823L16.7975 9.6656L14.5803 8.33687L14.0909 9.15353ZM17.0049 10.223L17.3639 9.1343L16.4597 8.83615L16.1007 9.92486L17.0049 10.223Z" fill="#763D16"/>
  <path d="M11.8649 15.5388L12.566 15.766L14.04 16.4003L11.8649 15.5388Z" fill="#E2761B" stroke="#E2761B" stroke-width="0.952079"/>
  <path fill-rule="evenodd" clip-rule="evenodd" d="M13.6429 9.101L16.5528 10.074L17.2201 9.2253L16.9118 8.98527L16.5528 10.074L14.3356 8.74524L13.6429 9.101Z" fill="#763D16"/>
  <path d="M16.5528 10.074L16.4019 10.5254L16.7198 10.6318L16.927 10.3682L16.5528 10.074ZM13.6429 9.101L13.4254 8.67755L12.4199 9.19401L13.492 9.55247L13.6429 9.101ZM17.2201 9.2253L17.5943 9.51953L17.89 9.14352L17.5126 8.84967L17.2201 9.2253ZM16.9118 8.98527L17.2043 8.60964L16.6712 8.19468L16.4597 8.8362L16.9118 8.98527ZM14.3356 8.74524L14.5803 8.33691L14.3534 8.20093L14.1181 8.32179L14.3356 8.74524ZM16.7038 9.6225L13.7939 8.64953L13.492 9.55247L16.4019 10.5254L16.7038 9.6225ZM16.8459 8.93106L16.1786 9.77973L16.927 10.3682L17.5943 9.51953L16.8459 8.93106ZM16.6194 9.36089L16.9277 9.60092L17.5126 8.84967L17.2043 8.60964L16.6194 9.36089ZM17.0049 10.223L17.3639 9.13434L16.4597 8.8362L16.1007 9.9249L17.0049 10.223ZM14.0909 9.15357L16.3081 10.4823L16.7975 9.66564L14.5803 8.33691L14.0909 9.15357ZM13.8604 9.52444L14.5531 9.16869L14.1181 8.32179L13.4254 8.67755L13.8604 9.52444Z" fill="#763D16"/>
  <path d="M15.0282 5.40625L14.3356 8.74522L13.6429 9.10098L15.0282 5.40625Z" fill="#763D16" stroke="#763D16" stroke-width="0.952079"/>
  <path d="M17.1399 7.57937L14.3356 8.74522L15.0282 5.40625L17.1399 7.57937Z" fill="#763D16" stroke="#763D16" stroke-width="0.952079"/>
  <path d="M15.0282 5.40625L17.955 5.06335L17.1399 7.57937L15.0282 5.40625Z" fill="#763D16" stroke="#763D16" stroke-width="0.952079"/>
  <path d="M16.5528 10.0739L15.5772 10.7597L13.6429 9.10095L16.5528 10.0739Z" fill="#F6851B" stroke="#F6851B" stroke-width="0.952079"/>
  <path d="M17.8283 2.65881L17.955 5.06339L15.0282 5.40628L17.8283 2.65881Z" fill="#763D16" stroke="#763D16" stroke-width="0.952079"/>
  <path d="M17.8283 2.65881L11.979 6.97504L11.903 4.04755L17.8283 2.65881Z" fill="#E2761B" stroke="#E2761B" stroke-width="0.952079"/>
  <path d="M7.55292 3.69604L11.903 4.04752L11.979 6.97501L7.55292 3.69604Z" fill="#F6851B" stroke="#F6851B" stroke-width="0.952079"/>
  <path d="M13.6429 9.10098L11.9789 6.97501L15.0282 5.40625L13.6429 9.10098Z" fill="#763D16" stroke="#763D16" stroke-width="0.952079"/>
  <path d="M13.643 9.10095L15.5772 10.7597L12.8616 11.064L13.643 9.10095Z" fill="#E4761B" stroke="#E4761B" stroke-width="0.952079"/>
  <path d="M12.8616 11.064L11.9789 6.97498L13.6429 9.10094L12.8616 11.064Z" fill="#E4761B" stroke="#E4761B" stroke-width="0.952079"/>
  <path d="M15.0282 5.40628L11.9789 6.97504L17.8283 2.65881L15.0282 5.40628Z" fill="#763D16" stroke="#763D16" stroke-width="0.952079"/>
  <path d="M7.59094 16.3318L8.97198 17.7934L7.09259 16.0575L7.59094 16.3318Z" fill="#C0AD9E" stroke="#C0AD9E" stroke-width="0.952079"/>
  <path d="M14.04 16.4004L14.6946 13.8758L15.9912 13.6873L14.04 16.4004Z" fill="#CD6116" stroke="#CD6116" stroke-width="0.952079"/>
  <path d="M1.99078 9.29811L4.3812 6.7478L2.29909 8.99378L1.99078 9.29811Z" fill="#E2761B" stroke="#E2761B" stroke-width="0.952079"/>
  <path fill-rule="evenodd" clip-rule="evenodd" d="M9.65192 6.89785L11.979 6.97501L7.55292 3.69604L9.65192 6.89785ZM14.6946 13.8758L15.9912 13.6872L15.5773 10.7597L14.6946 13.8758Z" fill="#F6851B"/>
  <path d="M11.979 6.97501L11.9632 7.45078L13.4892 7.50138L12.2624 6.5925L11.979 6.97501ZM9.65192 6.89785L9.2538 7.15885L9.38924 7.36545L9.63614 7.37363L9.65192 6.89785ZM7.55292 3.69604L7.83629 3.31354L7.1548 3.95704L7.55292 3.69604ZM15.9912 13.6872L16.0597 14.1583L16.5289 14.0901L16.4625 13.6206L15.9912 13.6872ZM14.6946 13.8758L14.2366 13.7461L14.0364 14.4526L14.7631 14.3469L14.6946 13.8758ZM15.5773 10.7597L16.0486 10.6931L15.1193 10.63L15.5773 10.7597ZM11.9948 6.49923L9.66769 6.42208L9.63614 7.37363L11.9632 7.45078L11.9948 6.49923ZM7.26954 4.07855L11.6956 7.35752L12.2624 6.5925L7.83629 3.31354L7.26954 4.07855ZM10.05 6.63686L7.95103 3.43505L7.1548 3.95704L9.2538 7.15885L10.05 6.63686ZM15.9226 13.2162L14.6261 13.4047L14.7631 14.3469L16.0597 14.1583L15.9226 13.2162ZM15.1059 10.8264L15.5198 13.7539L16.4625 13.6206L16.0486 10.6931L15.1059 10.8264ZM15.1526 14.0056L16.0353 10.8895L15.1193 10.63L14.2366 13.7461L15.1526 14.0056Z" fill="#F6851B"/>
  <path d="M15.5773 10.7598L14.6946 13.8759L14.6228 12.3542L15.5773 10.7598Z" fill="#E4751F" stroke="#E4751F" stroke-width="0.952079"/>
  <path d="M12.8616 11.0641L15.5772 10.7598L14.6228 12.3542L12.8616 11.0641Z" fill="#CD6116" stroke="#CD6116" stroke-width="0.952079"/>
  <path d="M9.65192 6.89783L11.979 6.97498L12.8617 11.064L9.65192 6.89783Z" fill="#F6851B" stroke="#F6851B" stroke-width="0.952079"/>
  <path fill-rule="evenodd" clip-rule="evenodd" d="M3.3718 1L9.65191 6.89784L7.55291 3.69604L3.3718 1ZM2.09212 18.9421L7.54868 17.2276L1.0025 14.7202L2.09212 18.9421Z" fill="#E4761B"/>
  <path d="M9.65191 6.89784L9.32603 7.24485L10.05 6.63685L9.65191 6.89784ZM3.3718 1L3.62977 0.599922L3.04591 1.34701L3.3718 1ZM7.55291 3.69604L7.95102 3.43504L7.8957 3.35065L7.81088 3.29596L7.55291 3.69604ZM7.54868 17.2276L7.69138 17.6818L8.99545 17.272L7.71896 16.7831L7.54868 17.2276ZM2.09212 18.9421L1.63119 19.0611L1.75649 19.5466L2.23482 19.3963L2.09212 18.9421ZM1.0025 14.7202L1.17278 14.2757L0.310934 13.9455L0.541566 14.8392L1.0025 14.7202ZM9.97779 6.55084L3.69768 0.652994L3.04591 1.34701L9.32603 7.24485L9.97779 6.55084ZM7.15479 3.95703L9.25379 7.15884L10.05 6.63685L7.95102 3.43504L7.15479 3.95703ZM3.11382 1.40008L7.29493 4.09611L7.81088 3.29596L3.62977 0.599922L3.11382 1.40008ZM7.40599 16.7735L1.94943 18.488L2.23482 19.3963L7.69138 17.6818L7.40599 16.7735ZM0.832225 15.1647L7.37841 17.6722L7.71896 16.7831L1.17278 14.2757L0.832225 15.1647ZM2.55306 18.8232L1.46344 14.6012L0.541566 14.8392L1.63119 19.0611L2.55306 18.8232Z" fill="#E4761B"/>
  <path d="M2.80164 10.3526L4.86263 8.71094L6.58997 9.11813L2.80164 10.3526Z" fill="#763D16" stroke="#763D16" stroke-width="0.952079"/>
  <path d="M6.58996 9.11812L4.86261 8.71093L5.78752 4.83618L6.58996 9.11812Z" fill="#763D16" stroke="#763D16" stroke-width="0.952079"/>
  <path d="M2.29907 8.99383L4.86264 8.71094L2.80165 10.3526L2.29907 8.99383Z" fill="#763D16" stroke="#763D16" stroke-width="0.952079"/>
  <path d="M14.6228 12.3542L13.5585 11.8099L12.8616 11.0641L14.6228 12.3542Z" fill="#CD6116" stroke="#CD6116" stroke-width="0.952079"/>
  <path d="M2.2991 8.99385L2.11749 8.02087L4.86267 8.71096L2.2991 8.99385Z" fill="#763D16" stroke="#763D16" stroke-width="0.952079"/>
  <path d="M13.3389 13.0357L13.5585 11.8098L14.6228 12.3542L13.3389 13.0357Z" fill="#233447" stroke="#233447" stroke-width="0.952079"/>
  <path d="M14.6946 13.8759L13.3389 13.0358L14.6228 12.3542L14.6946 13.8759Z" fill="#F6851B" stroke="#F6851B" stroke-width="0.952079"/>
  <path fill-rule="evenodd" clip-rule="evenodd" d="M5.78754 4.83618L4.86263 8.71093L2.11745 8.02085L1.89362 7.20218L5.78754 4.83618ZM5.78754 4.83618L6.58997 9.11812L9.6519 6.89786L5.78754 4.83618Z" fill="#763D16"/>
  <path d="M4.86263 8.71093L4.74657 9.1726L5.2138 9.29006L5.32566 8.82146L4.86263 8.71093ZM5.78754 4.83618L6.01161 4.41618L5.77222 4.28846L5.54034 4.42935L5.78754 4.83618ZM2.11745 8.02085L1.65827 8.14639L1.73163 8.41471L2.0014 8.48252L2.11745 8.02085ZM1.89362 7.20218L1.64642 6.79535L1.33981 6.98165L1.43443 7.32773L1.89362 7.20218ZM6.58997 9.11812L6.12208 9.2058L6.2606 9.94498L6.86942 9.5035L6.58997 9.11812ZM9.6519 6.89786L9.93135 7.28324L10.5478 6.83626L9.87597 6.47785L9.6519 6.89786ZM5.32566 8.82146L6.25057 4.94671L5.32451 4.72565L4.3996 8.6004L5.32566 8.82146ZM2.0014 8.48252L4.74657 9.1726L4.97868 8.24925L2.23351 7.55917L2.0014 8.48252ZM1.43443 7.32773L1.65827 8.14639L2.57664 7.8953L2.3528 7.07663L1.43443 7.32773ZM5.54034 4.42935L1.64642 6.79535L2.14081 7.60901L6.03473 5.24301L5.54034 4.42935ZM7.05787 9.03044L6.25543 4.7485L5.31964 4.92387L6.12208 9.2058L7.05787 9.03044ZM9.37245 6.51247L6.31052 8.73274L6.86942 9.5035L9.93135 7.28324L9.37245 6.51247ZM5.56346 5.25619L9.42782 7.31786L9.87597 6.47785L6.01161 4.41618L5.56346 5.25619Z" fill="#763D16"/>
  <path fill-rule="evenodd" clip-rule="evenodd" d="M9.65189 6.89783L6.58997 9.11809L6.78424 11.0383L11.016 11.1283L9.65189 6.89783Z" fill="#E4761B"/>
  <path d="M6.58997 9.11809L6.31052 8.73271L6.08877 8.8935L6.11634 9.16601L6.58997 9.11809ZM9.65189 6.89783L10.105 6.75173L9.9036 6.12729L9.37244 6.51244L9.65189 6.89783ZM6.78424 11.0383L6.31062 11.0862L6.35301 11.5053L6.77412 11.5143L6.78424 11.0383ZM11.016 11.1283L11.0059 11.6043L11.6743 11.6185L11.4691 10.9822L11.016 11.1283ZM6.86942 9.50348L9.93134 7.28321L9.37244 6.51244L6.31052 8.73271L6.86942 9.50348ZM7.25786 10.9904L7.06359 9.07017L6.11634 9.16601L6.31062 11.0862L7.25786 10.9904ZM11.0262 10.6524L6.79436 10.5624L6.77412 11.5143L11.0059 11.6043L11.0262 10.6524ZM9.19882 7.04392L10.563 11.2744L11.4691 10.9822L10.105 6.75173L9.19882 7.04392Z" fill="#E4761B"/>
  <path fill-rule="evenodd" clip-rule="evenodd" d="M11.016 11.1283L12.8616 11.064L9.6519 6.89783L11.016 11.1283ZM6.58997 9.11809L2.80164 10.3525L6.78425 11.0383L6.58997 9.11809Z" fill="#F6851B"/>
  <path d="M12.8616 11.064L12.8782 11.5398L13.8042 11.5075L13.2387 10.7735L12.8616 11.064ZM11.016 11.1283L10.563 11.2744L10.6733 11.6166L11.0326 11.6041L11.016 11.1283ZM9.6519 6.89783L10.029 6.6073L9.19883 7.04392L9.6519 6.89783ZM2.80164 10.3525L2.65415 9.89991L2.72085 10.8217L2.80164 10.3525ZM6.58997 9.11809L7.0636 9.07017L7.00414 8.48246L6.44249 8.66547L6.58997 9.11809ZM6.78425 11.0383L6.70346 11.5075L7.32094 11.6138L7.25787 10.9904L6.78425 11.0383ZM12.8451 10.5883L10.9995 10.6526L11.0326 11.6041L12.8782 11.5398L12.8451 10.5883ZM9.2748 7.18836L12.4845 11.3546L13.2387 10.7735L10.029 6.6073L9.2748 7.18836ZM11.4691 10.9822L10.105 6.75173L9.19883 7.04392L10.563 11.2744L11.4691 10.9822ZM2.94912 10.8051L6.73746 9.57071L6.44249 8.66547L2.65415 9.89991L2.94912 10.8051ZM6.86503 10.5692L2.88242 9.88339L2.72085 10.8217L6.70346 11.5075L6.86503 10.5692ZM6.11635 9.16601L6.31063 11.0862L7.25787 10.9904L7.0636 9.07017L6.11635 9.16601Z" fill="#F6851B"/>
  <path d="M13.5585 11.8099L13.3389 13.0358L12.8616 11.0641L13.5585 11.8099Z" fill="#CD6116" stroke="#CD6116" stroke-width="0.952079"/>
  <path d="M3.37183 1L9.65194 6.89784L5.78758 4.83617L3.37183 1Z" fill="#763D16" stroke="#763D16" stroke-width="0.952079"/>
  <path d="M1.0025 14.7202L6.29857 14.4973L7.54868 17.2276L1.0025 14.7202Z" fill="#E4761B" stroke="#E4761B" stroke-width="0.952079"/>
  <path d="M7.54869 17.2277L6.29858 14.4974L8.90016 14.3688L7.54869 17.2277Z" fill="#CD6116" stroke="#CD6116" stroke-width="0.952079"/>
  <path fill-rule="evenodd" clip-rule="evenodd" d="M1.0025 14.7202L2.80165 10.3525L6.78426 11.0383L6.29857 14.4973L1.0025 14.7202ZM13.3389 13.0357L14.6946 13.8758L15.4421 15.6632L13.3389 13.0357ZM12.8617 11.0641L13.208 12.3413L11.5355 12.4399L11.016 11.1283L12.8617 11.0641Z" fill="#F6851B"/>
  <path d="M2.80165 10.3525L2.88243 9.8834L2.5067 9.8187L2.36149 10.1712L2.80165 10.3525ZM1.0025 14.7202L0.562344 14.5389L0.278846 15.2271L1.02252 15.1958L1.0025 14.7202ZM6.78426 11.0383L7.25567 11.1045L7.31984 10.6475L6.86504 10.5692L6.78426 11.0383ZM6.29857 14.4973L6.31859 14.9729L6.71484 14.9563L6.76999 14.5635L6.29857 14.4973ZM14.6946 13.8758L15.1338 13.6921L15.0749 13.5515L14.9453 13.4712L14.6946 13.8758ZM13.3389 13.0357L13.5896 12.6311L12.9672 13.3332L13.3389 13.0357ZM15.4421 15.6632L15.0705 15.9607L15.8813 15.4795L15.4421 15.6632ZM13.208 12.3413L13.236 12.8166L13.8207 12.7821L13.6674 12.2168L13.208 12.3413ZM12.8617 11.0641L13.3211 10.9395L13.2223 10.5752L12.8451 10.5883L12.8617 11.0641ZM11.5355 12.4399L11.0929 12.6152L11.2197 12.9354L11.5635 12.9151L11.5355 12.4399ZM11.016 11.1283L10.9995 10.6526L10.3249 10.6761L10.5735 11.3036L11.016 11.1283ZM2.36149 10.1712L0.562344 14.5389L1.44266 14.9015L3.24181 10.5339L2.36149 10.1712ZM6.86504 10.5692L2.88243 9.8834L2.72086 10.8217L6.70348 11.5075L6.86504 10.5692ZM6.76999 14.5635L7.25567 11.1045L6.31284 10.9721L5.82716 14.4311L6.76999 14.5635ZM1.02252 15.1958L6.31859 14.9729L6.27856 14.0217L0.982486 14.2446L1.02252 15.1958ZM14.9453 13.4712L13.5896 12.6311L13.0881 13.4404L14.4438 14.2805L14.9453 13.4712ZM15.8813 15.4795L15.1338 13.6921L14.2554 14.0595L15.0029 15.8468L15.8813 15.4795ZM12.9672 13.3332L15.0705 15.9607L15.8137 15.3657L13.7105 12.7382L12.9672 13.3332ZM13.6674 12.2168L13.3211 10.9395L12.4022 11.1886L12.7485 12.4659L13.6674 12.2168ZM11.5635 12.9151L13.236 12.8166L13.18 11.8661L11.5075 11.9647L11.5635 12.9151ZM11.9781 12.2646L11.4586 10.9531L10.5735 11.3036L11.0929 12.6152L11.9781 12.2646ZM11.0326 11.6041L12.8782 11.5398L12.8451 10.5883L10.9995 10.6526L11.0326 11.6041Z" fill="#F6851B"/>
  <path d="M8.97197 17.7934L7.54871 17.2277L12.4985 18.072L8.97197 17.7934Z" fill="#C0AD9E" stroke="#C0AD9E" stroke-width="0.952079"/>
  <path d="M2.80167 10.3525L1.99078 9.2981L2.29909 8.99377L2.80167 10.3525Z" fill="#763D16" stroke="#763D16" stroke-width="0.952079"/>
  <path d="M13.0602 17.4463L12.4985 18.072L7.54871 17.2277L13.0602 17.4463Z" fill="#D7C1B3" stroke="#D7C1B3" stroke-width="0.952079"/>
  <path d="M13.3262 15.9118L7.54871 17.2277L8.90018 14.3688L13.3262 15.9118Z" fill="#E4761B" stroke="#E4761B" stroke-width="0.952079"/>
  <path d="M7.54871 17.2276L13.3262 15.9117L13.0602 17.4462L7.54871 17.2276Z" fill="#D7C1B3" stroke="#D7C1B3" stroke-width="0.952079"/>
  <path fill-rule="evenodd" clip-rule="evenodd" d="M1.70355 3.90601L1.8936 7.20211L5.78753 4.83612L1.70355 3.90601ZM1.73734 8.41511L2.29904 8.99375L2.11744 8.02078L1.73734 8.41511Z" fill="#763D16"/>
  <path d="M1.8936 7.20211L1.41835 7.22951L1.46394 8.0202L2.1408 7.60894L1.8936 7.20211ZM1.70355 3.90601L1.80926 3.44185L1.19185 3.30124L1.2283 3.93341L1.70355 3.90601ZM5.78753 4.83612L6.03472 5.24294L7.03879 4.63286L5.89323 4.37196L5.78753 4.83612ZM2.29904 8.99375L1.95747 9.32533L3.05651 10.4575L2.767 8.90641L2.29904 8.99375ZM1.73734 8.41511L1.3946 8.08474L1.07503 8.41628L1.39577 8.74669L1.73734 8.41511ZM2.11744 8.02078L2.5854 7.93344L2.41588 7.02522L1.7747 7.69041L2.11744 8.02078ZM2.36885 7.17471L2.1788 3.8786L1.2283 3.93341L1.41835 7.22951L2.36885 7.17471ZM5.54033 4.42929L1.64641 6.79528L2.1408 7.60894L6.03472 5.24294L5.54033 4.42929ZM1.59784 4.37016L5.68182 5.30027L5.89323 4.37196L1.80926 3.44185L1.59784 4.37016ZM2.64062 8.66218L2.07891 8.08354L1.39577 8.74669L1.95747 9.32533L2.64062 8.66218ZM1.64948 8.10812L1.83109 9.0811L2.767 8.90641L2.5854 7.93344L1.64948 8.10812ZM2.08008 8.74548L2.46018 8.35115L1.7747 7.69041L1.3946 8.08474L2.08008 8.74548Z" fill="#763D16"/>
  <path d="M10.07 11.977L11.016 11.1283L10.8809 13.2028L10.07 11.977Z" fill="#CD6116" stroke="#CD6116" stroke-width="0.952079"/>
  <path d="M11.0161 11.1283L10.07 11.977L8.69324 12.7013L11.0161 11.1283Z" fill="#CD6116" stroke="#CD6116" stroke-width="0.952079"/>
  <path d="M15.4421 15.6632L15.1845 15.4703L13.3389 13.0358L15.4421 15.6632Z" fill="#F6851B" stroke="#F6851B" stroke-width="0.952079"/>
  <path d="M8.69319 12.7014L6.78424 11.0383L11.016 11.1283L8.69319 12.7014Z" fill="#CD6116" stroke="#CD6116" stroke-width="0.952079"/>
  <path d="M10.8809 13.2028L11.0161 11.1283L11.5355 12.4399L10.8809 13.2028Z" fill="#E4751F" stroke="#E4751F" stroke-width="0.952079"/>
  <path d="M1.55151 7.5279L1.8936 7.20215L2.11744 8.02082L1.55151 7.5279Z" fill="#763D16" stroke="#763D16" stroke-width="0.952079"/>
  <path d="M10.8809 13.2029L8.69324 12.7014L10.07 11.9771L10.8809 13.2029Z" fill="#233447" stroke="#233447" stroke-width="0.952079"/>
  <path d="M5.78753 4.83617L1.70355 3.90606L3.37177 1L5.78753 4.83617Z" fill="#763D16" stroke="#763D16" stroke-width="0.952079"/>
  <path d="M12.4984 18.0721L12.7307 18.715L8.97192 17.7935L12.4984 18.0721Z" fill="#C0AD9E" stroke="#C0AD9E" stroke-width="0.952079"/>
  <path d="M8.90018 14.3688L8.69324 12.7014L10.8809 13.2029L8.90018 14.3688Z" fill="#F6851B" stroke="#F6851B" stroke-width="0.952079"/>
  <path d="M6.78424 11.0383L8.69319 12.7014L8.90014 14.3687L6.78424 11.0383Z" fill="#E4751F" stroke="#E4751F" stroke-width="0.952079"/>
  <path fill-rule="evenodd" clip-rule="evenodd" d="M8.90016 14.3687L6.78427 11.0383L6.29858 14.4973L8.90016 14.3687ZM13.208 12.3413L11.5355 12.4399L15.1845 15.4703L13.208 12.3413Z" fill="#F6851B"/>
  <path d="M6.78427 11.0383L7.18607 10.7831L6.49265 9.69162L6.31285 10.9721L6.78427 11.0383ZM8.90016 14.3687L8.92366 14.8442L9.74057 14.8038L9.30197 14.1134L8.90016 14.3687ZM6.29858 14.4973L5.82717 14.4311L5.74712 15.0012L6.32208 14.9728L6.29858 14.4973ZM11.5355 12.4399L11.5075 11.9647L10.3036 12.0357L11.2314 12.8061L11.5355 12.4399ZM13.208 12.3413L13.6104 12.0871L13.4604 11.8496L13.18 11.8661L13.208 12.3413ZM15.1845 15.4703L14.8804 15.8365L15.587 15.2161L15.1845 15.4703ZM6.38246 11.2936L8.49836 14.624L9.30197 14.1134L7.18607 10.7831L6.38246 11.2936ZM6.77 14.5635L7.25568 11.1045L6.31285 10.9721L5.82717 14.4311L6.77 14.5635ZM8.87666 13.8933L6.27508 14.0219L6.32208 14.9728L8.92366 14.8442L8.87666 13.8933ZM11.5635 12.9151L13.236 12.8166L13.18 11.8661L11.5075 11.9647L11.5635 12.9151ZM15.4886 15.1041L11.8397 12.0737L11.2314 12.8061L14.8804 15.8365L15.4886 15.1041ZM12.8055 12.5956L14.782 15.7245L15.587 15.2161L13.6104 12.0871L12.8055 12.5956Z" fill="#F6851B"/>
  <path d="M11.5355 12.4399L13.6134 15.6503L10.8809 13.2029L11.5355 12.4399Z" fill="#E4751F" stroke="#E4751F" stroke-width="0.952079"/>
  <path d="M10.8809 13.2029L13.6134 15.6503L13.3262 15.9118L10.8809 13.2029Z" fill="#F6851B" stroke="#F6851B" stroke-width="0.952079"/>
  <path fill-rule="evenodd" clip-rule="evenodd" d="M13.6134 15.6503L15.1845 15.4703L11.5355 12.4399L13.6134 15.6503ZM8.90015 14.3687L13.3262 15.9118L10.8809 13.2029L8.90015 14.3687Z" fill="#F6851B"/>
  <path d="M15.1845 15.4703L15.2387 15.9432L16.3463 15.8163L15.4886 15.1041L15.1845 15.4703ZM13.6134 15.6503L13.2138 15.909L13.3742 16.1569L13.6676 16.1233L13.6134 15.6503ZM11.5355 12.4399L11.8396 12.0737L11.1359 12.6986L11.5355 12.4399ZM13.3262 15.9118L13.1695 16.3613L13.6796 15.5928L13.3262 15.9118ZM8.90015 14.3687L8.65868 13.9585L7.77286 14.4799L8.74344 14.8182L8.90015 14.3687ZM10.8809 13.2029L11.2343 12.8839L10.9741 12.5957L10.6394 12.7926L10.8809 13.2029ZM15.1303 14.9974L13.5592 15.1774L13.6676 16.1233L15.2387 15.9432L15.1303 14.9974ZM11.2314 12.8062L14.8803 15.8365L15.4886 15.1041L11.8396 12.0737L11.2314 12.8062ZM14.013 15.3917L11.9351 12.1813L11.1359 12.6986L13.2138 15.909L14.013 15.3917ZM13.4829 15.4623L9.05686 13.9192L8.74344 14.8182L13.1695 16.3613L13.4829 15.4623ZM10.5275 13.5219L12.9728 16.2308L13.6796 15.5928L11.2343 12.8839L10.5275 13.5219ZM9.14162 14.779L11.1224 13.6131L10.6394 12.7926L8.65868 13.9585L9.14162 14.779Z" fill="#F6851B"/>
  <path fill-rule="evenodd" clip-rule="evenodd" d="M14.9226 18.3549L15.5983 16.979L12.7307 18.7149L13.0601 17.4462L12.4984 18.072L12.7307 18.7149L14.9226 18.3549Z" fill="#C0AD9E"/>
  <path d="M15.5983 16.979L16.0256 17.1889L16.742 15.7302L15.3518 16.5718L15.5983 16.979ZM14.9226 18.3549L14.9998 18.8246L15.2418 18.7849L15.3499 18.5647L14.9226 18.3549ZM12.7307 18.7149L12.283 18.8767L12.4174 19.2488L12.8079 19.1847L12.7307 18.7149ZM13.0601 17.4462L13.5209 17.5658L12.7059 17.1282L13.0601 17.4462ZM12.4984 18.072L12.1442 17.754L11.9539 17.9659L12.0507 18.2337L12.4984 18.072ZM15.1711 16.7691L14.4953 18.145L15.3499 18.5647L16.0256 17.1889L15.1711 16.7691ZM12.9772 19.1222L15.8449 17.3862L15.3518 16.5718L12.4842 18.3077L12.9772 19.1222ZM12.5994 17.3266L12.2699 18.5953L13.1915 18.8346L13.5209 17.5658L12.5994 17.3266ZM12.8527 18.39L13.4144 17.7642L12.7059 17.1282L12.1442 17.754L12.8527 18.39ZM13.1784 18.5532L12.9461 17.9102L12.0507 18.2337L12.283 18.8767L13.1784 18.5532ZM14.8455 17.8851L12.6535 18.2452L12.8079 19.1847L14.9998 18.8246L14.8455 17.8851Z" fill="#C0AD9E"/>
  <path fill-rule="evenodd" clip-rule="evenodd" d="M12.7307 18.7149L13.0601 17.4462L13.474 17.279L15.5984 16.979L12.7307 18.7149Z" fill="#C0AD9E"/>
  <path d="M12.7307 18.7149L12.27 18.5953L11.9757 19.7284L12.9772 19.1222L12.7307 18.7149ZM13.0601 17.4462L12.8819 17.0048L12.6596 17.0946L12.5994 17.3266L13.0601 17.4462ZM13.474 17.279L13.4074 16.8077L13.3498 16.8158L13.2957 16.8376L13.474 17.279ZM15.5984 16.979L15.8449 17.3862L15.5318 16.5076L15.5984 16.979ZM13.1915 18.8346L13.5209 17.5658L12.5994 17.3266L12.27 18.5953L13.1915 18.8346ZM13.2384 17.8876L13.6523 17.7204L13.2957 16.8376L12.8819 17.0048L13.2384 17.8876ZM13.5406 17.7504L15.6649 17.4504L15.5318 16.5076L13.4074 16.8077L13.5406 17.7504ZM15.3518 16.5718L12.4842 18.3077L12.9772 19.1222L15.8449 17.3862L15.3518 16.5718Z" fill="#C0AD9E"/>
  <path d="M15.1845 15.4703L15.704 15.7918L14.1245 15.9847L15.1845 15.4703Z" fill="#161616" stroke="#161616" stroke-width="0.952079"/>
  <path fill-rule="evenodd" clip-rule="evenodd" d="M13.6134 15.6504L14.1244 15.9847L15.1845 15.4703L13.6134 15.6504ZM15.8644 16.0018L13.9428 16.2376L15.5984 16.9791L15.8644 16.0018Z" fill="#161616"/>
  <path d="M14.1244 15.9847L13.8638 16.383L14.0895 16.5307L14.3322 16.413L14.1244 15.9847ZM13.6134 15.6504L13.5592 15.1774L12.2502 15.3274L13.3528 16.0487L13.6134 15.6504ZM15.1845 15.4703L15.3923 15.8986L15.1303 14.9974L15.1845 15.4703ZM13.9428 16.2376L13.8849 15.7651L12.1881 15.9732L13.7482 16.672L13.9428 16.2376ZM15.8644 16.0018L16.3238 16.1269L16.51 15.443L15.8065 15.5293L15.8644 16.0018ZM15.5984 16.9791L15.4038 17.4135L15.9115 17.641L16.0577 17.1041L15.5984 16.9791ZM14.385 15.5863L13.874 15.252L13.3528 16.0487L13.8638 16.383L14.385 15.5863ZM14.9767 15.042L13.9166 15.5564L14.3322 16.413L15.3923 15.8986L14.9767 15.042ZM13.6676 16.1233L15.2387 15.9433L15.1303 14.9974L13.5592 15.1774L13.6676 16.1233ZM14.0008 16.7101L15.9224 16.4743L15.8065 15.5293L13.8849 15.7651L14.0008 16.7101ZM15.793 16.5446L14.1374 15.8031L13.7482 16.672L15.4038 17.4135L15.793 16.5446ZM15.4051 15.8768L15.1391 16.854L16.0577 17.1041L16.3238 16.1269L15.4051 15.8768Z" fill="#161616"/>
  <path fill-rule="evenodd" clip-rule="evenodd" d="M13.3262 15.9117L13.6134 15.6503L14.1244 15.9846L13.3262 15.9117ZM13.474 17.279L13.0601 17.4462L13.3262 15.9117L13.474 17.279ZM13.9428 16.2375L13.474 17.279L15.5983 16.979L13.9428 16.2375ZM13.9428 16.2375L15.7039 15.7917L15.8644 16.0017L13.9428 16.2375Z" fill="#161616"/>
  <path d="M13.6134 15.6503L13.874 15.2519L13.5655 15.0501L13.2929 15.2983L13.6134 15.6503ZM13.3262 15.9117L13.0057 15.5597L12.885 15.6696L12.8571 15.8304L13.3262 15.9117ZM14.1244 15.9846L14.0811 16.4587L14.385 15.5862L14.1244 15.9846ZM13.0601 17.4462L12.5911 17.3649L12.4449 18.2081L13.2384 17.8876L13.0601 17.4462ZM13.9428 16.2375L13.826 15.776L13.6031 15.8324L13.5087 16.0421L13.9428 16.2375ZM15.5983 16.979L15.6649 17.4504L17.2998 17.2195L15.7929 16.5445L15.5983 16.979ZM15.7039 15.7917L16.0822 15.5027L15.8915 15.2532L15.5871 15.3302L15.7039 15.7917ZM15.8644 16.0017L15.9224 16.4742L16.7473 16.373L16.2427 15.7127L15.8644 16.0017ZM13.2929 15.2983L13.0057 15.5597L13.6467 16.2637L13.9339 16.0023L13.2929 15.2983ZM14.385 15.5862L13.874 15.2519L13.3528 16.0486L13.8638 16.383L14.385 15.5862ZM13.2829 16.3858L14.0811 16.4587L14.1677 15.5105L13.3695 15.4377L13.2829 16.3858ZM13.2384 17.8876L13.6523 17.7204L13.2957 16.8376L12.8818 17.0048L13.2384 17.8876ZM12.8571 15.8304L12.5911 17.3649L13.5292 17.5275L13.7952 15.9931L12.8571 15.8304ZM13.9473 17.2279L13.7995 15.8606L12.8529 15.9629L13.0007 17.3302L13.9473 17.2279ZM13.5087 16.0421L13.0399 17.0837L13.9081 17.4744L14.3769 16.4329L13.5087 16.0421ZM13.5406 17.7504L15.6649 17.4504L15.5318 16.5076L13.4074 16.8077L13.5406 17.7504ZM15.7929 16.5445L14.1374 15.803L13.7482 16.6719L15.4038 17.4135L15.7929 16.5445ZM14.0596 16.699L15.8207 16.2532L15.5871 15.3302L13.826 15.776L14.0596 16.699ZM15.3257 16.0807L15.4862 16.2908L16.2427 15.7127L16.0822 15.5027L15.3257 16.0807ZM15.8065 15.5292L13.8848 15.765L14.0008 16.71L15.9224 16.4742L15.8065 15.5292Z" fill="#161616"/>
  <path fill-rule="evenodd" clip-rule="evenodd" d="M14.1244 15.9846L13.9428 16.2375L13.3262 15.9118L13.474 17.2791L13.9428 16.2375L15.704 15.7917L14.1244 15.9846Z" fill="#161616"/>
  <path d="M14.1244 15.9846L14.0667 15.5121L13.8595 15.5374L13.7378 15.707L14.1244 15.9846ZM13.3262 15.9118L13.5486 15.4909L12.7567 15.0725L12.853 15.9629L13.3262 15.9118ZM13.474 17.2791L13.0008 17.3302L13.1891 19.0721L13.9081 17.4744L13.474 17.2791ZM15.704 15.7917L15.8208 16.2532L15.6463 15.3192L15.704 15.7917ZM14.3295 16.5152L14.5111 16.2623L13.7378 15.707L13.5562 15.9598L14.3295 16.5152ZM13.1039 16.3327L13.7205 16.6584L14.1652 15.8166L13.5486 15.4909L13.1039 16.3327ZM13.9473 17.2279L13.7995 15.8606L12.853 15.9629L13.0008 17.3302L13.9473 17.2279ZM13.5087 16.0421L13.04 17.0837L13.9081 17.4744L14.3769 16.4329L13.5087 16.0421ZM15.5872 15.3303L13.826 15.776L14.0596 16.699L15.8208 16.2532L15.5872 15.3303ZM14.1821 16.4572L15.7617 16.2643L15.6463 15.3192L14.0667 15.5121L14.1821 16.4572Z" fill="#161616"/>
  <path d="M14.1244 15.9846L13.9428 16.2375L13.3262 15.9117L14.1244 15.9846Z" fill="#161616" stroke="#161616" stroke-width="0.952079"/>
</svg>
