<svg width="30" height="30" viewBox="0 0 30 30" fill="none" xmlns="http://www.w3.org/2000/svg">
<path d="M26.6784 20.0048L25.0979 25.1287L21.9953 24.3151L26.6784 20.0048Z" fill="#E4761B" stroke="#E4761B" stroke-width="0.952079"/>
<path d="M21.9953 24.3151L24.9878 20.3836L26.6784 20.0048L21.9953 24.3151Z" fill="#E4761B" stroke="#E4761B" stroke-width="0.952079"/>
<path fill-rule="evenodd" clip-rule="evenodd" d="M25.8489 15.1476L24.3526 16.1414L26.678 20.0045L25.8489 15.1476ZM26.6779 20.0053L24.3526 16.1421L24.9873 20.3841L26.6779 20.0053Z" fill="#F6851B"/>
<path d="M24.3526 16.1414L24.0893 15.7448L23.7099 15.9968L23.9448 16.3869L24.3526 16.1414ZM25.8489 15.1476L26.3181 15.0675L26.195 14.3463L25.5855 14.7511L25.8489 15.1476ZM26.678 20.0045L26.2701 20.25L27.1472 19.9244L26.678 20.0045ZM24.3526 16.1421L24.7604 15.8966L23.8818 16.2126L24.3526 16.1421ZM26.6779 20.0053L26.782 20.4698L27.4262 20.3254L27.0858 19.7598L26.6779 20.0053ZM24.9873 20.3841L24.5165 20.4546L24.5923 20.9605L25.0914 20.8486L24.9873 20.3841ZM24.616 16.5379L26.1123 15.5442L25.5855 14.7511L24.0893 15.7448L24.616 16.5379ZM27.0858 19.759L24.7605 15.8959L23.9448 16.3869L26.2701 20.25L27.0858 19.759ZM25.3796 15.2277L26.2087 20.0846L27.1472 19.9244L26.3181 15.0675L25.3796 15.2277ZM23.9447 16.3876L26.2701 20.2508L27.0858 19.7598L24.7604 15.8966L23.9447 16.3876ZM25.4581 20.3137L24.8234 16.0717L23.8818 16.2126L24.5165 20.4546L25.4581 20.3137ZM26.5738 19.5408L24.8832 19.9196L25.0914 20.8486L26.782 20.4698L26.5738 19.5408Z" fill="#F6851B"/>
<path fill-rule="evenodd" clip-rule="evenodd" d="M22.4503 13.2233L22.4484 13.2241L22.4517 13.2235L26.3995 13.571L26.5354 12.4602L26.5355 12.4601L26.7493 11.5347L22.4529 13.2223L22.4483 13.2231L22.4503 13.2233ZM22.4503 13.2233L22.4517 13.2235L26.5354 12.4602L26.5355 12.4592L22.4529 13.2223L22.4503 13.2233Z" fill="#763D16"/>
<path d="M22.4484 13.2241L22.2743 12.781L22.5358 13.692L22.4484 13.2241ZM26.3995 13.571L26.3577 14.0452L26.8161 14.0855L26.872 13.6288L26.3995 13.571ZM26.5355 12.4601L26.623 12.9281L26.9292 12.8708L26.9994 12.5673L26.5355 12.4601ZM26.7493 11.5347L27.2131 11.6419L27.4165 10.7612L26.5752 11.0916L26.7493 11.5347ZM22.4483 13.2231L22.3608 12.7552L22.4066 13.6974L22.4483 13.2231ZM26.5355 12.4592L27.008 12.5171L27.087 11.8718L26.448 11.9913L26.5355 12.4592ZM22.6224 13.6672L22.6243 13.6664L22.2762 12.7802L22.2743 12.781L22.6224 13.6672ZM22.3643 12.7555L22.3609 12.7561L22.5358 13.692L22.5392 13.6914L22.3643 12.7555ZM26.4412 13.0968L22.4935 12.7492L22.41 13.6977L26.3577 14.0452L26.4412 13.0968ZM26.0628 12.4024L25.9269 13.5131L26.872 13.6288L27.0079 12.518L26.0628 12.4024ZM26.448 11.9922L26.4479 11.9922L26.6229 12.9281L26.623 12.9281L26.448 11.9922ZM26.2855 11.4276L26.0717 12.353L26.9994 12.5673L27.2131 11.6419L26.2855 11.4276ZM22.627 13.6654L26.9233 11.9778L26.5752 11.0916L22.2789 12.7792L22.627 13.6654ZM22.5358 13.6911L22.5404 13.6902L22.3655 12.7543L22.3608 12.7552L22.5358 13.6911ZM22.492 12.7491L22.49 12.7489L22.4066 13.6974L22.4086 13.6975L22.492 12.7491ZM22.4935 12.7492L22.492 12.7491L22.4086 13.6975L22.41 13.6977L22.4935 12.7492ZM26.4479 11.9922L22.3643 12.7555L22.5392 13.6914L26.6228 12.9281L26.4479 11.9922ZM26.063 12.4014L26.0628 12.4023L27.0079 12.518L27.008 12.5171L26.063 12.4014ZM22.5404 13.6902L26.6229 12.9271L26.448 11.9913L22.3655 12.7543L22.5404 13.6902ZM22.6243 13.6664L22.627 13.6654L22.2789 12.7792L22.2762 12.7802L22.6243 13.6664Z" fill="#763D16"/>
<path fill-rule="evenodd" clip-rule="evenodd" d="M26.5364 12.4601L26.5363 12.4601L26.5363 12.4601L26.5364 12.4601ZM26.5364 12.4601L27.2618 11.926L26.7501 11.5347L26.5363 12.4601L26.5359 12.4598L26.3999 13.5715L27.1124 12.9194L26.5364 12.4601ZM26.3999 13.5727L25.8493 15.1503L22.4488 13.2249L26.3999 13.5727Z" fill="#763D16"/>
<path d="M26.5363 12.4601L26.0721 12.3548L25.7889 13.6031L26.819 12.8432L26.5363 12.4601ZM27.2618 11.926L27.544 12.3094L28.0549 11.9332L27.551 11.5479L27.2618 11.926ZM26.7501 11.5347L27.0393 11.1566L26.4525 10.7079L26.2863 11.4276L26.7501 11.5347ZM26.5359 12.4598L26.8327 12.0876L26.1668 11.5565L26.0634 12.4019L26.5359 12.4598ZM26.3999 13.5715L25.9274 13.5137L25.7709 14.7925L26.7213 13.9227L26.3999 13.5715ZM27.1124 12.9194L27.4338 13.2705L27.8447 12.8944L27.4091 12.5471L27.1124 12.9194ZM25.8493 15.1503L25.6148 15.5645L26.1109 15.8454L26.2988 15.3072L25.8493 15.1503ZM26.3999 13.5727L26.8494 13.7296L27.0509 13.1522L26.4417 13.0985L26.3999 13.5727ZM22.4488 13.2249L22.4905 12.7507L22.2142 13.6392L22.4488 13.2249ZM26.819 12.8432L26.819 12.8432L26.2538 12.0771L26.2537 12.0771L26.819 12.8432ZM26.0721 12.3548L26.0721 12.3548L27.0006 12.5655L27.0006 12.5654L26.0721 12.3548ZM26.2409 12.8334L26.2409 12.8334L26.8318 12.0869L26.8318 12.0869L26.2409 12.8334ZM26.8186 12.8435L27.544 12.3094L26.9796 11.5427L26.2541 12.0768L26.8186 12.8435ZM27.551 11.5479L27.0393 11.1566L26.4609 11.9129L26.9726 12.3042L27.551 11.5479ZM26.2863 11.4276L26.0725 12.353L27.0002 12.5672L27.2139 11.6419L26.2863 11.4276ZM26.2391 12.8319L26.2395 12.8323L26.8332 12.0879L26.8327 12.0876L26.2391 12.8319ZM26.8724 13.6293L27.0084 12.5176L26.0634 12.4019L25.9274 13.5137L26.8724 13.6293ZM26.791 12.5682L26.0785 13.2203L26.7213 13.9227L27.4338 13.2705L26.791 12.5682ZM26.2396 12.8324L26.8156 13.2916L27.4091 12.5471L26.8331 12.0879L26.2396 12.8324ZM26.2988 15.3072L26.8494 13.7296L25.9505 13.4159L25.3999 14.9934L26.2988 15.3072ZM22.2142 13.6392L25.6148 15.5645L26.0839 14.736L22.6833 12.8107L22.2142 13.6392ZM26.4417 13.0985L22.4905 12.7507L22.407 13.6991L26.3582 14.0469L26.4417 13.0985Z" fill="#763D16"/>
<path d="M18.6602 23.0666L19.7354 23.3958L21.996 24.315L18.6602 23.0666Z" fill="#E2761B" stroke="#E2761B" stroke-width="0.952079"/>
<path fill-rule="evenodd" clip-rule="evenodd" d="M21.3862 13.7393L25.8491 15.1491L22.4485 13.2238L21.3862 13.7393ZM26.3997 13.5718L25.8492 15.1494L26.8726 13.9196L26.3997 13.5718Z" fill="#763D16"/>
<path d="M25.8491 15.1491L25.7057 15.603L26.0836 14.7349L25.8491 15.1491ZM21.3862 13.7393L21.1784 13.311L20.1027 13.833L21.2428 14.1932L21.3862 13.7393ZM22.4485 13.2238L22.6831 12.8095L22.4655 12.6864L22.2407 12.7955L22.4485 13.2238ZM25.8492 15.1494L25.3997 14.9925L26.2151 15.4539L25.8492 15.1494ZM26.3997 13.5718L26.6818 13.1884L26.1627 12.8065L25.9503 13.415L26.3997 13.5718ZM26.8726 13.9196L27.2385 14.2242L27.5618 13.8357L27.1547 13.5362L26.8726 13.9196ZM25.9925 14.6952L21.5296 13.2853L21.2428 14.1932L25.7057 15.603L25.9925 14.6952ZM22.214 13.638L25.6145 15.5634L26.0836 14.7349L22.6831 12.8095L22.214 13.638ZM21.5941 14.1675L22.6563 13.652L22.2407 12.7955L21.1784 13.311L21.5941 14.1675ZM26.2986 15.3063L26.8492 13.7287L25.9503 13.415L25.3997 14.9925L26.2986 15.3063ZM26.5067 13.6151L25.4833 14.8449L26.2151 15.4539L27.2385 14.2242L26.5067 13.6151ZM26.1177 13.9553L26.5905 14.3031L27.1547 13.5362L26.6818 13.1884L26.1177 13.9553Z" fill="#763D16"/>
<path d="M23.5108 8.38397L22.4485 13.2222L21.3862 13.7377L23.5108 8.38397Z" fill="#763D16" stroke="#763D16" stroke-width="0.952079"/>
<path d="M26.7495 11.5329L22.4486 13.2222L23.5109 8.38397L26.7495 11.5329Z" fill="#763D16" stroke="#763D16" stroke-width="0.952079"/>
<path d="M23.5112 8.38517L28 7.88831L26.7499 11.5341L23.5112 8.38517Z" fill="#763D16" stroke="#763D16" stroke-width="0.952079"/>
<path d="M25.8491 15.1489L24.3528 16.1427L21.3862 13.7391L25.8491 15.1489Z" fill="#F6851B" stroke="#F6851B" stroke-width="0.952079"/>
<path d="M27.8057 4.40289L28 7.88719L23.5112 8.38406L27.8057 4.40289Z" fill="#763D16" stroke="#763D16" stroke-width="0.952079"/>
<path d="M27.8058 4.40289L18.8348 10.6572L18.7182 6.41521L27.8058 4.40289Z" fill="#E2761B" stroke="#E2761B" stroke-width="0.952079"/>
<path d="M12.0466 5.90668L18.7182 6.41597L18.8348 10.658L12.0466 5.90668Z" fill="#F6851B" stroke="#F6851B" stroke-width="0.952079"/>
<path d="M21.3865 13.7377L18.8345 10.6571L23.5111 8.38397L21.3865 13.7377Z" fill="#763D16" stroke="#763D16" stroke-width="0.952079"/>
<path d="M21.3863 13.7391L24.3529 16.1427L20.188 16.5836L21.3863 13.7391Z" fill="#E4761B" stroke="#E4761B" stroke-width="0.952079"/>
<path d="M20.1882 16.5833L18.8345 10.6581L21.3865 13.7387L20.1882 16.5833Z" fill="#E4761B" stroke="#E4761B" stroke-width="0.952079"/>
<path d="M23.5111 8.38406L18.8345 10.6572L27.8055 4.40289L23.5111 8.38406Z" fill="#763D16" stroke="#763D16" stroke-width="0.952079"/>
<path d="M12.1046 24.216L14.2226 26.3339L11.3402 23.8185L12.1046 24.216Z" fill="#C0AD9E" stroke="#C0AD9E" stroke-width="0.952079"/>
<path d="M21.9953 24.3165L22.9993 20.6583L24.9878 20.385L21.9953 24.3165Z" fill="#CD6116" stroke="#CD6116" stroke-width="0.952079"/>
<path d="M3.51593 14.0235L7.18208 10.3281L3.98877 13.5826L3.51593 14.0235Z" fill="#E2761B" stroke="#E2761B" stroke-width="0.952079"/>
<path fill-rule="evenodd" clip-rule="evenodd" d="M15.2658 10.5462L18.8348 10.658L12.0466 5.90668L15.2658 10.5462ZM22.9987 20.6566L24.9873 20.3833L24.3525 16.1413L22.9987 20.6566Z" fill="#F6851B"/>
<path d="M18.8348 10.658L18.8199 11.1338L20.4162 11.1838L19.1078 10.268L18.8348 10.658ZM15.2658 10.5462L14.8747 10.8176L15.0113 11.0145L15.2509 11.022L15.2658 10.5462ZM12.0466 5.90668L12.3195 5.51668L11.6555 6.17806L12.0466 5.90668ZM24.9873 20.3833L25.0521 20.8549L25.5294 20.7893L25.4581 20.3129L24.9873 20.3833ZM22.9987 20.6566L22.5428 20.5199L22.3302 21.229L23.0636 21.1282L22.9987 20.6566ZM24.3525 16.1413L24.8233 16.0708L23.8965 16.0046L24.3525 16.1413ZM18.8497 10.1822L15.2807 10.0704L15.2509 11.022L18.8199 11.1338L18.8497 10.1822ZM11.7736 6.29668L18.5618 11.048L19.1078 10.268L12.3195 5.51668L11.7736 6.29668ZM15.6569 10.2748L12.4377 5.6353L11.6555 6.17806L14.8747 10.8176L15.6569 10.2748ZM24.9225 19.9117L22.9339 20.185L23.0636 21.1282L25.0521 20.8549L24.9225 19.9117ZM23.8817 16.2117L24.5165 20.4538L25.4581 20.3129L24.8233 16.0708L23.8817 16.2117ZM23.4547 20.7933L24.8085 16.278L23.8965 16.0046L22.5428 20.5199L23.4547 20.7933Z" fill="#F6851B"/>
<path d="M24.3533 16.1419L22.9996 20.6572L22.8895 18.4523L24.3533 16.1419Z" fill="#E4751F" stroke="#E4751F" stroke-width="0.952079"/>
<path d="M20.188 16.5829L24.3529 16.1419L22.889 18.4523L20.188 16.5829Z" fill="#CD6116" stroke="#CD6116" stroke-width="0.952079"/>
<path d="M15.2657 10.5479L18.8346 10.6597L20.1884 16.5849L15.2657 10.5479Z" fill="#F6851B" stroke="#F6851B" stroke-width="0.952079"/>
<path fill-rule="evenodd" clip-rule="evenodd" d="M5.63315 2L15.2649 10.5461L12.0457 5.90663L5.63315 2ZM3.67114 27.9996L12.0398 25.5153L2 21.8819L3.67114 27.9996Z" fill="#E4761B"/>
<path d="M15.2649 10.5461L14.9489 10.9022L15.656 10.2748L15.2649 10.5461ZM5.63315 2L5.88082 1.59346L5.3172 2.35608L5.63315 2ZM12.0457 5.90663L12.4368 5.63525L12.3794 5.5525L12.2933 5.50009L12.0457 5.90663ZM12.0398 25.5153L12.1753 25.9716L13.5621 25.5599L12.2018 25.0676L12.0398 25.5153ZM3.67114 27.9996L3.21193 28.1251L3.34015 28.5944L3.80662 28.456L3.67114 27.9996ZM2 21.8819L2.16199 21.4343L1.29892 21.1219L1.54079 22.0074L2 21.8819ZM15.5808 10.1901L5.94909 1.64392L5.3172 2.35608L14.9489 10.9022L15.5808 10.1901ZM11.6546 6.17801L14.8738 10.8175L15.656 10.2748L12.4368 5.63525L11.6546 6.17801ZM5.38548 2.40654L11.798 6.31317L12.2933 5.50009L5.88082 1.59346L5.38548 2.40654ZM11.9043 25.0589L3.53567 27.5433L3.80662 28.456L12.1753 25.9716L11.9043 25.0589ZM1.83801 22.3295L11.8778 25.9629L12.2018 25.0676L2.16199 21.4343L1.83801 22.3295ZM4.13036 27.8742L2.45921 21.7565L1.54079 22.0074L3.21193 28.1251L4.13036 27.8742Z" fill="#E4761B"/>
<path d="M4.75977 15.5534L7.92069 13.1747L10.5699 13.7647L4.75977 15.5534Z" fill="#763D16" stroke="#763D16" stroke-width="0.952079"/>
<path d="M10.5698 13.7617L7.92059 13.1717L9.33912 7.55707L10.5698 13.7617Z" fill="#763D16" stroke="#763D16" stroke-width="0.952079"/>
<path d="M3.98825 13.5846L7.91997 13.1747L4.75905 15.5534L3.98825 13.5846Z" fill="#763D16" stroke="#763D16" stroke-width="0.952079"/>
<path d="M22.889 18.4528L21.2567 17.6641L20.188 16.5834L22.889 18.4528Z" fill="#CD6116" stroke="#CD6116" stroke-width="0.952079"/>
<path d="M3.98806 13.5828L3.70953 12.1729L7.91978 13.1729L3.98806 13.5828Z" fill="#763D16" stroke="#763D16" stroke-width="0.952079"/>
<path d="M20.9208 19.4405L21.2577 17.6642L22.8899 18.453L20.9208 19.4405Z" fill="#233447" stroke="#233447" stroke-width="0.952079"/>
<path d="M23.0001 20.6579L20.9208 19.4406L22.8899 18.4531L23.0001 20.6579Z" fill="#F6851B" stroke="#F6851B" stroke-width="0.952079"/>
<path fill-rule="evenodd" clip-rule="evenodd" d="M15.2654 10.5445L9.33872 7.55707L10.5694 13.7617L15.2654 10.5445ZM9.33828 7.55714L7.91975 13.1718L3.36621 10.9855L9.33828 7.55714ZM7.91972 13.1727L3.70948 12.1728L3.36618 10.9865L7.91972 13.1727Z" fill="#763D16"/>
<path d="M9.33872 7.55707L9.55299 7.13198L8.68201 6.69295L8.87177 7.64969L9.33872 7.55707ZM15.2654 10.5445L15.5345 10.9372L16.199 10.482L15.4797 10.1194L15.2654 10.5445ZM10.5694 13.7617L10.1025 13.8543L10.2429 14.5624L10.8385 14.1544L10.5694 13.7617ZM7.91975 13.1718L7.71371 13.6009L8.23865 13.8529L8.38129 13.2884L7.91975 13.1718ZM9.33828 7.55714L9.79982 7.67375L10.0748 6.58543L9.10127 7.14429L9.33828 7.55714ZM3.36621 10.9855L3.12921 10.5727L2.3446 11.0231L3.16017 11.4147L3.36621 10.9855ZM3.70948 12.1728L3.2522 12.3051L3.32937 12.5718L3.59948 12.6359L3.70948 12.1728ZM7.91972 13.1727L7.80972 13.6359L8.12576 12.7436L7.91972 13.1727ZM3.36618 10.9865L3.57222 10.5574L2.61317 10.0969L2.9089 11.1188L3.36618 10.9865ZM9.12445 7.98216L15.0512 10.9696L15.4797 10.1194L9.55299 7.13198L9.12445 7.98216ZM11.0363 13.6691L9.80566 7.46445L8.87177 7.64969L10.1025 13.8543L11.0363 13.6691ZM14.9964 10.1518L10.3004 13.369L10.8385 14.1544L15.5345 10.9372L14.9964 10.1518ZM8.38129 13.2884L9.79982 7.67375L8.87674 7.44053L7.45821 13.0552L8.38129 13.2884ZM3.16017 11.4147L7.71371 13.6009L8.12579 12.7426L3.57225 10.5564L3.16017 11.4147ZM9.10127 7.14429L3.12921 10.5727L3.60321 11.3984L9.57528 7.96999L9.10127 7.14429ZM3.59948 12.6359L7.80972 13.6359L8.02972 12.7096L3.81948 11.7096L3.59948 12.6359ZM2.9089 11.1188L3.2522 12.3051L4.16675 12.0405L3.82346 10.8542L2.9089 11.1188ZM8.12576 12.7436L3.57222 10.5574L3.16014 11.4157L7.71368 13.6019L8.12576 12.7436Z" fill="#763D16"/>
<path fill-rule="evenodd" clip-rule="evenodd" d="M10.5694 13.7651L10.5693 13.7651L10.5694 13.7651L10.8673 16.547L17.356 16.6774L17.3576 16.678L17.3573 16.6774L17.3575 16.6774L17.3573 16.6773L15.2654 10.5479L10.5699 13.7648L10.5693 13.7645L10.5694 13.7651ZM10.5694 13.7651L10.5694 13.7651L17.356 16.6774L17.3573 16.6774L17.3573 16.6773L10.5699 13.7648L10.5694 13.7651Z" fill="#E4761B"/>
<path d="M10.5693 13.7651L10.301 13.3719L9.58361 13.8614L10.3822 14.2029L10.5693 13.7651ZM10.8673 16.547L10.3939 16.5977L10.4386 17.0145L10.8577 17.0229L10.8673 16.547ZM17.3576 16.678L17.1699 17.1155L18.1542 17.5378L17.8081 16.5242L17.3576 16.678ZM17.3575 16.6774L17.3482 17.1534L17.5452 16.2399L17.3575 16.6774ZM15.2654 10.5479L15.7159 10.3942L15.5135 9.80093L14.9963 10.1552L15.2654 10.5479ZM10.5693 13.7645L10.757 13.3271L10.0093 13.0062L10.096 13.8152L10.5693 13.7645ZM10.8377 14.1584L10.8377 14.1583L10.3011 13.3719L10.301 13.3719L10.8377 14.1584ZM10.7565 13.3274L10.7565 13.3274L10.3822 14.2029L10.3822 14.2029L10.7565 13.3274ZM11.3406 16.4963L11.0427 13.7145L10.096 13.8158L10.3939 16.5977L11.3406 16.4963ZM17.3656 16.2014L10.8768 16.071L10.8577 17.0229L17.3465 17.1533L17.3656 16.2014ZM17.5453 16.2406L17.5437 16.2399L17.1683 17.1149L17.1699 17.1155L17.5453 16.2406ZM16.9068 16.8312L16.9071 16.8319L17.8081 16.5242L17.8078 16.5236L16.9068 16.8312ZM17.3668 16.2015L17.3667 16.2015L17.348 17.1534L17.3482 17.1534L17.3668 16.2015ZM17.1697 17.1148L17.1699 17.1149L17.5452 16.2399L17.545 16.2398L17.1697 17.1148ZM14.8149 10.7017L16.9068 16.8311L17.8078 16.5236L15.7159 10.3942L14.8149 10.7017ZM10.8389 14.1575L15.5344 10.9406L14.9963 10.1552L10.3008 13.3721L10.8389 14.1575ZM10.3816 14.202L10.3821 14.2022L10.7576 13.3273L10.757 13.3271L10.3816 14.202ZM11.0427 13.7144L11.0426 13.7138L10.096 13.8152L10.096 13.8158L11.0427 13.7144ZM11.0427 13.7143L11.0427 13.7142L10.0961 13.816L10.0961 13.816L11.0427 13.7143ZM17.5438 16.2399L10.7571 13.3277L10.3817 14.2026L17.1683 17.1148L17.5438 16.2399ZM17.3669 16.2015L17.3656 16.2014L17.3465 17.1533L17.3478 17.1534L17.3669 16.2015ZM16.9065 16.8302L16.9065 16.8303L17.8082 16.5245L17.8081 16.5244L16.9065 16.8302ZM10.3822 14.2022L17.1696 17.1148L17.545 16.2399L10.7576 13.3273L10.3822 14.2022ZM10.8384 14.1578L10.839 14.1575L10.3008 13.3721L10.3003 13.3724L10.8384 14.1578Z" fill="#E4761B"/>
<path fill-rule="evenodd" clip-rule="evenodd" d="M17.3564 16.6761L20.187 16.583L15.2643 10.546L17.3564 16.6761ZM10.5685 13.7625L4.75836 15.5513L10.8665 16.545L10.5685 13.7625Z" fill="#F6851B"/>
<path d="M20.187 16.583L20.2027 17.0588L21.1634 17.0271L20.5559 16.2821L20.187 16.583ZM17.3564 16.6761L16.9059 16.8299L17.0198 17.1635L17.3721 17.1519L17.3564 16.6761ZM15.2643 10.546L15.6332 10.2452L14.8137 10.6998L15.2643 10.546ZM4.75836 15.5513L4.61829 15.0963L4.68192 16.0211L4.75836 15.5513ZM10.5685 13.7625L11.0418 13.7118L10.9803 13.1377L10.4284 13.3076L10.5685 13.7625ZM10.8665 16.545L10.79 17.0149L11.4063 17.1151L11.3398 16.4943L10.8665 16.545ZM20.1713 16.1072L17.3408 16.2004L17.3721 17.1519L20.2027 17.0588L20.1713 16.1072ZM14.8953 10.8469L19.8181 16.8838L20.5559 16.2821L15.6332 10.2452L14.8953 10.8469ZM17.8069 16.5224L15.7148 10.3923L14.8137 10.6998L16.9059 16.8299L17.8069 16.5224ZM4.89843 16.0062L10.7086 14.2175L10.4284 13.3076L4.61829 15.0963L4.89843 16.0062ZM10.9429 16.0751L4.8348 15.0814L4.68192 16.0211L10.79 17.0149L10.9429 16.0751ZM10.0952 13.8132L10.3931 16.5957L11.3398 16.4943L11.0418 13.7118L10.0952 13.8132Z" fill="#F6851B"/>
<path d="M21.2567 17.6641L20.9199 19.4404L20.188 16.5834L21.2567 17.6641Z" fill="#CD6116" stroke="#CD6116" stroke-width="0.952079"/>
<path d="M5.63315 2L15.2649 10.5461L9.33816 7.55872L5.63315 2Z" fill="#763D16" stroke="#763D16" stroke-width="0.952079"/>
<path d="M2 21.8823L10.1225 21.5593L12.0398 25.5156L2 21.8823Z" fill="#E4761B" stroke="#E4761B" stroke-width="0.952079"/>
<path d="M12.0405 25.5144L10.1232 21.5581L14.1132 21.3718L12.0405 25.5144Z" fill="#CD6116" stroke="#CD6116" stroke-width="0.952079"/>
<path fill-rule="evenodd" clip-rule="evenodd" d="M10.8674 16.5465L2 21.8816L4.75933 15.5527L10.8674 16.5465ZM20.9208 19.4398L23 20.6571L24.1465 23.2471L20.9208 19.4398ZM2 21.8822L10.1225 21.5592L10.8674 16.547L2 21.8822ZM20.1883 16.5834L20.7194 18.4342L18.1544 18.5771L20.1883 16.5834ZM17.3572 16.6765L18.1539 18.5771L20.1878 16.5834L17.3572 16.6765Z" fill="#F6851B"/>
<path d="M2 21.8816L1.56363 21.6914L0.967667 23.0583L2.24542 22.2895L2 21.8816ZM10.8674 16.5465L11.1128 16.9544L12.2253 16.2851L10.9439 16.0766L10.8674 16.5465ZM4.75933 15.5527L4.83577 15.0829L4.47076 15.0235L4.32296 15.3625L4.75933 15.5527ZM23 20.6571L23.4353 20.4644L23.3731 20.324L23.2406 20.2463L23 20.6571ZM20.9208 19.4398L21.1613 19.029L20.5576 19.7475L20.9208 19.4398ZM24.1465 23.2471L23.7833 23.5548L24.5818 23.0544L24.1465 23.2471ZM10.1225 21.5592L10.1414 22.0349L10.5354 22.0192L10.5934 21.6292L10.1225 21.5592ZM2 21.8822L1.75458 21.4743L2.01891 22.3578L2 21.8822ZM10.8674 16.547L11.3383 16.617L11.4866 15.6189L10.622 16.1391L10.8674 16.547ZM20.7194 18.4342L20.7459 18.9095L21.3416 18.8763L21.177 18.3029L20.7194 18.4342ZM20.1883 16.5834L20.6459 16.4521L20.4255 15.6842L19.855 16.2434L20.1883 16.5834ZM18.1544 18.5771L17.8212 18.2371L16.9177 19.1227L18.1809 19.0524L18.1544 18.5771ZM18.1539 18.5771L17.7149 18.7611L17.9861 19.4081L18.4872 18.917L18.1539 18.5771ZM17.3572 16.6765L17.3416 16.2008L16.6511 16.2235L16.9182 16.8606L17.3572 16.6765ZM20.1878 16.5834L20.521 16.9233L21.3942 16.0674L20.1721 16.1076L20.1878 16.5834ZM2.24542 22.2895L11.1128 16.9544L10.622 16.1386L1.75458 21.4737L2.24542 22.2895ZM4.32296 15.3625L1.56363 21.6914L2.43637 22.0719L5.1957 15.743L4.32296 15.3625ZM10.9439 16.0766L4.83577 15.0829L4.68289 16.0226L10.791 17.0163L10.9439 16.0766ZM23.2406 20.2463L21.1613 19.029L20.6803 19.8506L22.7595 21.0679L23.2406 20.2463ZM24.5818 23.0544L23.4353 20.4644L22.5647 20.8498L23.7112 23.4398L24.5818 23.0544ZM20.5576 19.7475L23.7833 23.5548L24.5097 22.9393L21.284 19.1321L20.5576 19.7475ZM10.1036 21.0835L1.98109 21.4065L2.01891 22.3578L10.1414 22.0349L10.1036 21.0835ZM10.3966 16.477L9.65166 21.4892L10.5934 21.6292L11.3383 16.617L10.3966 16.477ZM2.24542 22.2901L11.1128 16.9549L10.622 16.1391L1.75458 21.4743L2.24542 22.2901ZM21.177 18.3029L20.6459 16.4521L19.7307 16.7147L20.2619 18.5655L21.177 18.3029ZM18.1809 19.0524L20.7459 18.9095L20.693 17.9589L18.1279 18.1018L18.1809 19.0524ZM19.855 16.2434L17.8212 18.2371L18.4876 18.917L20.5215 16.9233L19.855 16.2434ZM18.5929 18.393L17.7962 16.4925L16.9182 16.8606L17.7149 18.7611L18.5929 18.393ZM19.8546 16.2434L17.8207 18.2371L18.4872 18.917L20.521 16.9233L19.8546 16.2434ZM17.3729 17.1523L20.2034 17.0592L20.1721 16.1076L17.3416 16.2008L17.3729 17.1523Z" fill="#F6851B"/>
<path d="M14.2231 26.3331L12.0402 25.5133L19.6316 26.7368L14.2231 26.3331Z" fill="#C0AD9E" stroke="#C0AD9E" stroke-width="0.952079"/>
<path d="M4.75957 15.5527L3.51593 14.0248L3.98877 13.5839L4.75957 15.5527Z" fill="#763D16" stroke="#763D16" stroke-width="0.952079"/>
<path d="M20.4931 25.8301L19.6316 26.7368L12.0402 25.5133L20.4931 25.8301Z" fill="#D7C1B3" stroke="#D7C1B3" stroke-width="0.952079"/>
<path d="M20.9012 23.6077L12.0402 25.5144L14.113 21.3718L20.9012 23.6077Z" fill="#E4761B" stroke="#E4761B" stroke-width="0.952079"/>
<path d="M12.0402 25.514L20.9012 23.6073L20.4931 25.8308L12.0402 25.514Z" fill="#D7C1B3" stroke="#D7C1B3" stroke-width="0.952079"/>
<path fill-rule="evenodd" clip-rule="evenodd" d="M3.07477 6.21136L3.36625 10.9875L9.33832 7.55912L3.07477 6.21136ZM3.12763 12.7443L3.98911 13.5827L3.71059 12.1729L3.12763 12.7443Z" fill="#763D16"/>
<path d="M3.36625 10.9875L2.89109 11.0165L2.93783 11.7824L3.60325 11.4004L3.36625 10.9875ZM3.07477 6.21136L3.17491 5.74598L2.56138 5.61396L2.59961 6.24036L3.07477 6.21136ZM9.33832 7.55912L9.57532 7.97197L10.6508 7.35459L9.43845 7.09373L9.33832 7.55912ZM3.98911 13.5827L3.65709 13.9239L4.75233 14.9899L4.45612 13.4905L3.98911 13.5827ZM3.12763 12.7443L2.79441 12.4043L2.44634 12.7455L2.79561 13.0854L3.12763 12.7443ZM3.71059 12.1729L4.1776 12.0806L4.00679 11.216L3.37736 11.8329L3.71059 12.1729ZM3.8414 10.9585L3.54992 6.18237L2.59961 6.24036L2.89109 11.0165L3.8414 10.9585ZM9.10131 7.14627L3.12924 10.5747L3.60325 11.4004L9.57532 7.97197L9.10131 7.14627ZM2.97463 6.67675L9.23818 8.02451L9.43845 7.09373L3.17491 5.74598L2.97463 6.67675ZM4.32113 13.2416L3.45965 12.4031L2.79561 13.0854L3.65709 13.9239L4.32113 13.2416ZM3.24357 12.2651L3.5221 13.675L4.45612 13.4905L4.1776 12.0806L3.24357 12.2651ZM3.46085 13.0842L4.04381 12.5128L3.37736 11.8329L2.79441 12.4043L3.46085 13.0842Z" fill="#763D16"/>
<path d="M15.9071 17.9072L17.358 16.6774L17.1507 19.6835L15.9071 17.9072Z" fill="#CD6116" stroke="#CD6116" stroke-width="0.952079"/>
<path d="M17.3573 16.6774L15.9063 17.9072L13.7947 18.9568L17.3573 16.6774Z" fill="#CD6116" stroke="#CD6116" stroke-width="0.952079"/>
<path d="M24.1465 23.2471L23.7514 22.9676L20.9208 19.4398L24.1465 23.2471Z" fill="#F6851B" stroke="#F6851B" stroke-width="0.952079"/>
<path d="M13.7951 18.9568L10.8673 16.547L17.3576 16.6774L13.7951 18.9568Z" fill="#CD6116" stroke="#CD6116" stroke-width="0.952079"/>
<path d="M17.1506 19.6835L17.3579 16.6774L18.1546 18.578L17.1506 19.6835Z" fill="#E4751F" stroke="#E4751F" stroke-width="0.952079"/>
<path d="M2.8425 11.4585L3.36716 10.9865L3.71046 12.1728L2.8425 11.4585Z" fill="#763D16" stroke="#763D16" stroke-width="0.952079"/>
<path d="M17.15 19.6823L13.7947 18.9556L15.9063 17.906L17.15 19.6823Z" fill="#233447" stroke="#233447" stroke-width="0.952079"/>
<path d="M9.33832 7.55872L3.07477 6.21096L5.6333 2L9.33832 7.55872Z" fill="#763D16" stroke="#763D16" stroke-width="0.952079"/>
<path d="M19.6312 26.7382L19.9874 27.6698L14.2226 26.3345L19.6312 26.7382Z" fill="#C0AD9E" stroke="#C0AD9E" stroke-width="0.952079"/>
<path d="M14.1121 21.3723L13.7947 18.9562L17.15 19.6829L14.1121 21.3723Z" fill="#F6851B" stroke="#F6851B" stroke-width="0.952079"/>
<path d="M10.8673 16.547L13.7951 18.9568L14.1125 21.3728L10.8673 16.547Z" fill="#E4751F" stroke="#E4751F" stroke-width="0.952079"/>
<path fill-rule="evenodd" clip-rule="evenodd" d="M14.1132 21.3728L10.8681 16.547L10.1232 21.5592L14.1132 21.3728ZM20.7197 18.4341L18.1546 18.577L23.751 22.968L20.7197 18.4341Z" fill="#F6851B"/>
<path d="M10.8681 16.547L11.2632 16.2814L10.5778 15.2622L10.3973 16.477L10.8681 16.547ZM14.1132 21.3728L14.1355 21.8484L14.9801 21.8089L14.5083 21.1072L14.1132 21.3728ZM10.1232 21.5592L9.65236 21.4892L9.56728 22.0617L10.1454 22.0347L10.1232 21.5592ZM18.1546 18.577L18.1282 18.1017L16.8672 18.1719L17.8608 18.9515L18.1546 18.577ZM20.7197 18.4341L21.1154 18.1695L20.9644 17.9437L20.6932 17.9588L20.7197 18.4341ZM23.751 22.968L23.4572 23.3426L24.1468 22.7035L23.751 22.968ZM10.4731 16.8126L13.7182 21.6385L14.5083 21.1072L11.2632 16.2814L10.4731 16.8126ZM10.5941 21.6291L11.339 16.617L10.3973 16.477L9.65236 21.4892L10.5941 21.6291ZM14.091 20.8973L10.101 21.0836L10.1454 22.0347L14.1355 21.8484L14.091 20.8973ZM18.1811 19.0523L20.7461 18.9094L20.6932 17.9588L18.1282 18.1017L18.1811 19.0523ZM24.0449 22.5935L18.4485 18.2025L17.8608 18.9515L23.4572 23.3426L24.0449 22.5935ZM20.3239 18.6987L23.3553 23.2326L24.1468 22.7035L21.1154 18.1695L20.3239 18.6987Z" fill="#F6851B"/>
<path d="M18.1546 18.5771L21.3414 23.229L17.1506 19.6826L18.1546 18.5771Z" fill="#E4751F" stroke="#E4751F" stroke-width="0.952079"/>
<path d="M17.1506 19.6816L21.3414 23.228L20.901 23.6068L17.1506 19.6816Z" fill="#F6851B" stroke="#F6851B" stroke-width="0.952079"/>
<path fill-rule="evenodd" clip-rule="evenodd" d="M21.341 23.2284L23.7506 22.9675L18.1542 18.5764L21.341 23.2284ZM14.1122 21.3708L20.9004 23.6067L17.1501 19.6815L14.1122 21.3708Z" fill="#F6851B"/>
<path d="M23.7506 22.9675L23.8018 23.4408L24.9645 23.3149L24.0444 22.593L23.7506 22.9675ZM21.341 23.2284L20.9483 23.4974L21.1092 23.7323L21.3923 23.7016L21.341 23.2284ZM18.1542 18.5764L18.4481 18.2019L17.7615 18.8455L18.1542 18.5764ZM20.9004 23.6067L20.7515 24.0589L21.2446 23.2779L20.9004 23.6067ZM14.1122 21.3708L13.8809 20.9548L12.9311 21.483L13.9633 21.823L14.1122 21.3708ZM17.1501 19.6815L17.4943 19.3526L17.2402 19.0867L16.9187 19.2654L17.1501 19.6815ZM23.6994 22.4942L21.2898 22.7551L21.3923 23.7016L23.8018 23.4408L23.6994 22.4942ZM17.8604 18.9509L23.4567 23.342L24.0444 22.593L18.4481 18.2019L17.8604 18.9509ZM21.7338 22.9593L18.5469 18.3074L17.7615 18.8455L20.9483 23.4974L21.7338 22.9593ZM21.0493 23.1546L14.2611 20.9187L13.9633 21.823L20.7515 24.0589L21.0493 23.1546ZM16.8059 20.0103L20.5562 23.9356L21.2446 23.2779L17.4943 19.3526L16.8059 20.0103ZM14.3436 21.7869L17.3814 20.0975L16.9187 19.2654L13.8809 20.9548L14.3436 21.7869Z" fill="#F6851B"/>
<path fill-rule="evenodd" clip-rule="evenodd" d="M23.348 27.1488L24.3844 25.1552L19.9863 27.6706L23.348 27.1488ZM19.6311 26.7371L19.9874 27.6687L20.4926 25.8303L19.6311 26.7371Z" fill="#C0AD9E"/>
<path d="M24.3844 25.1552L24.8067 25.3747L25.5536 23.9381L24.148 24.7419L24.3844 25.1552ZM23.348 27.1488L23.421 27.6192L23.6592 27.5823L23.7704 27.3684L23.348 27.1488ZM19.9863 27.6706L19.7499 27.2573L20.0593 28.141L19.9863 27.6706ZM19.9874 27.6687L19.5427 27.8388L20.0615 29.1954L20.4464 27.7949L19.9874 27.6687ZM19.6311 26.7371L19.286 26.4092L19.0793 26.6268L19.1865 26.9071L19.6311 26.7371ZM20.4926 25.8303L20.9516 25.9565L20.1475 25.5024L20.4926 25.8303ZM23.962 24.9356L22.9256 26.9293L23.7704 27.3684L24.8067 25.3747L23.962 24.9356ZM20.2226 28.0838L24.6207 25.5684L24.148 24.7419L19.7499 27.2573L20.2226 28.0838ZM23.275 26.6784L19.9133 27.2001L20.0593 28.141L23.421 27.6192L23.275 26.6784ZM20.432 27.4987L20.0757 26.5671L19.1865 26.9071L19.5427 27.8388L20.432 27.4987ZM20.0336 25.7042L19.5283 27.5426L20.4464 27.7949L20.9516 25.9565L20.0336 25.7042ZM19.9762 27.065L20.8377 26.1582L20.1475 25.5024L19.286 26.4092L19.9762 27.065Z" fill="#C0AD9E"/>
<path fill-rule="evenodd" clip-rule="evenodd" d="M21.1279 25.5886L19.9879 27.6692L24.386 25.1538L21.1279 25.5886ZM21.1277 25.5878L20.493 25.83L19.9877 27.6684L21.1277 25.5878Z" fill="#C0AD9E"/>
<path d="M19.9879 27.6692L19.5704 27.4405L18.7598 28.92L20.2242 28.0824L19.9879 27.6692ZM21.1279 25.5886L21.0649 25.1167L20.8262 25.1486L20.7104 25.3598L21.1279 25.5886ZM24.386 25.1538L24.6223 25.567L24.323 24.682L24.386 25.1538ZM20.493 25.83L20.3232 25.3852L20.0979 25.4712L20.0339 25.7038L20.493 25.83ZM21.1277 25.5878L21.5452 25.8165L22.167 24.6817L20.958 25.143L21.1277 25.5878ZM19.9877 27.6684L19.5287 27.5423L20.4052 27.8972L19.9877 27.6684ZM20.4054 27.898L21.5454 25.8173L20.7104 25.3598L19.5704 27.4405L20.4054 27.898ZM24.1497 24.7406L19.7516 27.256L20.2242 28.0824L24.6223 25.567L24.1497 24.7406ZM21.1909 26.0604L24.449 25.6257L24.323 24.682L21.0649 25.1167L21.1909 26.0604ZM20.6627 26.2748L21.2975 26.0325L20.958 25.143L20.3232 25.3852L20.6627 26.2748ZM20.4468 27.7946L20.952 25.9561L20.0339 25.7038L19.5287 27.5423L20.4468 27.7946ZM20.7103 25.359L19.5703 27.4397L20.4052 27.8972L21.5452 25.8165L20.7103 25.359Z" fill="#C0AD9E"/>
<path d="M23.7506 22.9673L24.5474 23.4332L22.1248 23.7126L23.7506 22.9673Z" fill="#161616" stroke="#161616" stroke-width="0.952079"/>
<path fill-rule="evenodd" clip-rule="evenodd" d="M21.3412 23.2282L22.125 23.7126L23.7508 22.9673L21.3412 23.2282ZM24.7935 23.7366L21.8463 24.0782L24.3854 25.1527L24.7935 23.7366Z" fill="#161616"/>
<path d="M22.125 23.7126L21.8747 24.1176L22.0916 24.2516L22.3233 24.1454L22.125 23.7126ZM21.3412 23.2282L21.29 22.7549L19.9116 22.9042L21.0909 23.6331L21.3412 23.2282ZM23.7508 22.9673L23.9491 23.4001L23.6995 22.4941L23.7508 22.9673ZM21.8463 24.0782L21.7915 23.6054L19.9985 23.8132L21.6608 24.5166L21.8463 24.0782ZM24.7935 23.7366L25.2509 23.8684L25.4489 23.1814L24.7387 23.2638L24.7935 23.7366ZM24.3854 25.1527L24.1999 25.5911L24.6942 25.8003L24.8429 25.2845L24.3854 25.1527ZM22.3753 23.3077L21.5915 22.8233L21.0909 23.6331L21.8747 24.1176L22.3753 23.3077ZM23.5524 22.5346L21.9266 23.2799L22.3233 24.1454L23.9491 23.4001L23.5524 22.5346ZM21.3925 23.7015L23.802 23.4406L23.6995 22.4941L21.29 22.7549L21.3925 23.7015ZM21.9011 24.5511L24.8483 24.2095L24.7387 23.2638L21.7915 23.6054L21.9011 24.5511ZM24.571 24.7143L22.0319 23.6398L21.6608 24.5166L24.1999 25.5911L24.571 24.7143ZM24.3361 23.6048L23.928 25.0209L24.8429 25.2845L25.2509 23.8684L24.3361 23.6048Z" fill="#161616"/>
<path fill-rule="evenodd" clip-rule="evenodd" d="M20.8988 23.608L20.8997 23.6073L20.8995 23.6081L20.8988 23.608ZM20.9003 23.6082L20.8995 23.6081L20.4919 25.8289L21.1267 25.5867L20.9003 23.6082ZM20.9002 23.6068L20.8997 23.6073L20.9 23.6054L20.9002 23.6068ZM20.9002 23.6068L20.9003 23.6082L22.123 23.7136L21.3392 23.2292L20.9002 23.6068ZM21.1267 25.589L24.3848 25.1542L21.8461 24.08L24.7932 23.7384L24.547 23.434L21.8461 24.0799L21.8457 24.0798L21.1267 25.589ZM21.8461 24.0799L21.8461 24.08L21.846 24.08L21.8461 24.0799Z" fill="#161616"/>
<path d="M20.8988 23.608L20.5883 23.2472L19.7305 23.9851L20.8579 24.0823L20.8988 23.608ZM20.4919 25.8289L20.0237 25.743L19.871 26.5754L20.6617 26.2737L20.4919 25.8289ZM21.1267 25.5867L21.2964 26.0315L21.6417 25.8997L21.5997 25.5326L21.1267 25.5867ZM20.9 23.6054L21.373 23.5513L20.4318 23.5195L20.9 23.6054ZM22.123 23.7136L22.0821 24.1879L22.3733 23.3087L22.123 23.7136ZM21.3392 23.2292L21.5895 22.8243L21.293 22.641L21.0288 22.8683L21.3392 23.2292ZM24.3848 25.1542L24.4478 25.6261L26.1763 25.3954L24.5703 24.7158L24.3848 25.1542ZM21.1267 25.589L20.6969 25.3843L20.3193 26.177L21.1897 26.0609L21.1267 25.589ZM24.7932 23.7384L24.848 24.2112L25.7073 24.1116L25.1633 23.439L24.7932 23.7384ZM24.547 23.434L24.9172 23.1347L24.7284 22.9012L24.4363 22.9711L24.547 23.434ZM21.8457 24.0798L22.0312 23.6414L21.6118 23.4639L21.4159 23.875L21.8457 24.0798ZM21.846 24.08L21.7354 23.617L21.9009 24.5528L21.846 24.08ZM20.5892 23.2464L20.5883 23.2472L21.2092 23.9689L21.2101 23.9682L20.5892 23.2464ZM20.4315 23.5213L20.4313 23.5222L21.3677 23.694L21.3679 23.6932L20.4315 23.5213ZM20.8579 24.0823L20.8586 24.0824L20.9404 23.1338L20.9397 23.1338L20.8579 24.0823ZM20.8586 24.0824L20.8594 24.0825L20.9412 23.1339L20.9404 23.1338L20.8586 24.0824ZM20.4313 23.5222L20.0237 25.743L20.9602 25.9148L21.3677 23.694L20.4313 23.5222ZM20.6617 26.2737L21.2964 26.0315L20.957 25.1419L20.3222 25.3842L20.6617 26.2737ZM21.5997 25.5326L21.3733 23.5541L20.4274 23.6623L20.6538 25.6408L21.5997 25.5326ZM20.5897 23.2459L20.5892 23.2464L21.2101 23.9682L21.2106 23.9677L20.5897 23.2459ZM20.4318 23.5195L20.4315 23.5213L21.3679 23.6932L21.3682 23.6914L20.4318 23.5195ZM21.3731 23.5527L21.373 23.5513L20.4271 23.6595L20.4272 23.661L21.3731 23.5527ZM21.3733 23.5541L21.3731 23.5527L20.4272 23.661L20.4274 23.6623L21.3733 23.5541ZM20.8594 24.0825L22.0821 24.1879L22.1639 23.2394L20.9412 23.1339L20.8594 24.0825ZM22.3733 23.3087L21.5895 22.8243L21.0889 23.6341L21.8727 24.1186L22.3733 23.3087ZM21.0288 22.8683L20.5897 23.2459L21.2106 23.9677L21.6497 23.5901L21.0288 22.8683ZM24.3218 24.6824L21.0637 25.1172L21.1897 26.0609L24.4478 25.6261L24.3218 24.6824ZM21.6606 24.5184L24.1993 25.5926L24.5703 24.7158L22.0317 23.6416L21.6606 24.5184ZM24.7384 23.2655L21.7913 23.6071L21.9009 24.5528L24.848 24.2112L24.7384 23.2655ZM24.1769 23.7334L24.423 24.0377L25.1633 23.439L24.9172 23.1347L24.1769 23.7334ZM21.9568 24.5429L24.6578 23.897L24.4363 22.9711L21.7354 23.617L21.9568 24.5429ZM21.6602 24.5182L21.6606 24.5183L22.0316 23.6415L22.0312 23.6414L21.6602 24.5182ZM21.5565 25.7937L22.2755 24.2845L21.4159 23.875L20.6969 25.3843L21.5565 25.7937ZM21.6608 24.5184L21.6608 24.5184L22.0315 23.6415L22.0314 23.6415L21.6608 24.5184ZM21.7912 23.6071L21.7911 23.6071L21.9009 24.5528L21.9011 24.5528L21.7912 23.6071ZM21.9566 24.543L21.9567 24.543L21.7355 23.6169L21.7354 23.617L21.9566 24.543Z" fill="#161616"/>
<path fill-rule="evenodd" clip-rule="evenodd" d="M22.1252 23.7138L21.8467 24.0803L24.5478 23.4343L22.1252 23.7138ZM21.8463 24.0795L20.9006 23.6074L21.1273 25.5887L21.8463 24.0795Z" fill="#161616"/>
<path d="M21.8467 24.0803L21.4677 23.7922L20.6613 24.8532L21.9574 24.5432L21.8467 24.0803ZM22.1252 23.7138L22.0707 23.2409L21.8691 23.2642L21.7463 23.4258L22.1252 23.7138ZM24.5478 23.4343L24.6585 23.8973L24.4932 22.9614L24.5478 23.4343ZM20.9006 23.6074L21.1132 23.1815L20.3279 22.7895L20.4277 23.6616L20.9006 23.6074ZM21.8463 24.0795L22.2761 24.2842L22.4771 23.8623L22.0589 23.6535L21.8463 24.0795ZM21.1273 25.5887L20.6544 25.6428L20.8431 27.2922L21.5571 25.7934L21.1273 25.5887ZM22.2257 24.3683L22.5042 24.0019L21.7463 23.4258L21.4677 23.7922L22.2257 24.3683ZM24.437 22.9713L21.736 23.6173L21.9574 24.5432L24.6585 23.8973L24.437 22.9713ZM22.1798 24.1867L24.6023 23.9072L24.4932 22.9614L22.0707 23.2409L22.1798 24.1867ZM20.688 24.0334L21.6337 24.5054L22.0589 23.6535L21.1132 23.1815L20.688 24.0334ZM21.6003 25.5346L21.3736 23.5533L20.4277 23.6616L20.6544 25.6428L21.6003 25.5346ZM21.4166 23.8747L20.6976 25.384L21.5571 25.7934L22.2761 24.2842L21.4166 23.8747Z" fill="#161616"/>
<path d="M22.1248 23.7129L21.8463 24.0793L20.9006 23.6073L22.1248 23.7129Z" fill="#161616" stroke="#161616" stroke-width="0.952079"/>
</svg>
