<svg width="30" height="30" viewBox="0 0 30 30" fill="none" xmlns="http://www.w3.org/2000/svg">
<path d="M7.05622 17.98L6.40506 17.8907L5.75391 17.7418H5.78644C6.58373 13.9357 9.7643 10.9205 13.8934 10.0564L14.1864 11.2182C10.5655 11.9777 7.77207 14.6152 7.05622 17.9503V17.98Z" fill="#EEECEC"/>
<path d="M25.5812 18.0397V17.9801V17.9801C24.872 14.6253 22.0612 11.9718 18.4185 11.2182L18.7115 10.0564C22.8227 10.9299 25.9941 13.9247 26.8184 17.7119C26.8422 17.7364 26.854 17.7687 26.8509 17.8013L25.5812 18.0397Z" fill="#EEECEC"/>
<rect x="5.23267" y="9.63898" width="8.79061" height="1.19153" fill="#EEECEC"/>
<path d="M28.3486 22H24.4417C24.082 22 23.7905 21.7333 23.7905 21.4042V17.8297C23.7905 17.5006 24.082 17.2339 24.4417 17.2339H28.3486C28.7083 17.2339 28.9998 17.5006 28.9998 17.8297V21.4042C28.9998 21.7333 28.7083 22 28.3486 22Z" fill="#EEECEC"/>
<path d="M8.16309 22H4.25614C3.8965 22 3.60498 21.7333 3.60498 21.4042V17.8297C3.60498 17.5006 3.8965 17.2339 4.25614 17.2339H8.16309C8.52272 17.2339 8.81425 17.5006 8.81425 17.8297V21.4042C8.81425 21.7333 8.52272 22 8.16309 22Z" fill="#EEECEC"/>
<path d="M3.60489 12.7663C2.90506 12.7722 2.23359 12.5135 1.74907 12.0514C1.26099 11.6122 0.990473 11.0096 1.00026 10.3833C0.993838 9.743 1.27657 9.12865 1.78166 8.68534C2.26169 8.23879 2.92039 7.99128 3.60489 8.00023C4.95295 8.00941 6.07641 8.94739 6.20952 10.1748V10.3833C6.21594 11.0236 5.93321 11.6379 5.42812 12.0812C4.94809 12.5277 4.28939 12.7753 3.60489 12.7663Z" fill="#EEECEC"/>
<path d="M16.3026 12.7663C15.6028 12.7722 14.9313 12.5135 14.4468 12.0514C13.9587 11.6122 13.6882 11.0096 13.6979 10.3833C13.6916 9.743 13.9743 9.12865 14.4794 8.68534C14.9594 8.23879 15.6181 7.99128 16.3026 8.00023C17.7411 8.00023 18.9072 9.06718 18.9072 10.3833C18.9136 11.0236 18.6309 11.6379 18.1258 12.0812C17.6458 12.5277 16.9871 12.7753 16.3026 12.7663Z" fill="#EEECEC"/>
</svg>
