<svg width="21" height="11" viewBox="0 0 21 11" fill="none" xmlns="http://www.w3.org/2000/svg">
  <path d="M4.38236 7.42693L3.91115 7.36077L3.43994 7.25048H3.46348C4.04044 4.43198 6.34205 2.19919 9.33002 1.55927L9.54206 2.41959C6.92185 2.98203 4.90037 4.93519 4.38236 7.40489V7.42693Z" fill="#00E6B3"/>
  <path d="M17.7883 7.47109V7.42697C17.275 4.94266 15.241 2.97768 12.605 2.41959L12.817 1.55927C15.7921 2.20611 18.0871 4.42387 18.6836 7.2284C18.7008 7.24651 18.7093 7.27041 18.7071 7.29456L17.7883 7.47109Z" fill="#00E6B3"/>
  <rect x="3.06299" y="1.25043" width="6.36128" height="0.88236" fill="#00E6B3"/>
  <path d="M19.7909 10.4049H16.9636C16.7034 10.4049 16.4924 10.2074 16.4924 9.96375V7.31667C16.4924 7.073 16.7034 6.87549 16.9636 6.87549H19.7909C20.0511 6.87549 20.2621 7.073 20.2621 7.31667V9.96375C20.2621 10.2074 20.0511 10.4049 19.7909 10.4049Z" fill="#00E6B3"/>
  <path d="M5.18347 10.4049H2.35622C2.09597 10.4049 1.88501 10.2074 1.88501 9.96375V7.31667C1.88501 7.073 2.09597 6.87549 2.35622 6.87549H5.18347C5.44371 6.87549 5.65467 7.073 5.65467 7.31667V9.96375C5.65467 10.2074 5.44371 10.4049 5.18347 10.4049Z" fill="#00E6B3"/>
  <path d="M1.88502 3.56666C1.37859 3.57097 0.89268 3.37945 0.542059 3.03724C0.188867 2.712 -0.00689448 2.26571 0.000185586 1.80194C-0.0044593 1.32779 0.200141 0.872842 0.565644 0.544564C0.913019 0.21388 1.38968 0.0305932 1.88502 0.0372221C2.86053 0.0440199 3.67352 0.738618 3.76985 1.64754V1.80194C3.77449 2.2761 3.56989 2.73104 3.20439 3.05932C2.85702 3.38996 2.38035 3.57329 1.88502 3.56666Z" fill="#00E6B3"/>
  <path d="M11.0735 3.56666C10.5671 3.57097 10.0812 3.37945 9.73054 3.03724C9.37734 2.712 9.18158 2.26571 9.18866 1.80194C9.18406 1.32779 9.38862 0.872842 9.75412 0.544564C10.1015 0.21388 10.5782 0.0305932 11.0735 0.0372221C12.1144 0.0372221 12.9583 0.827327 12.9583 1.80194C12.963 2.2761 12.7584 2.73104 12.3929 3.05932C12.0455 3.38996 11.5688 3.57329 11.0735 3.56666Z" fill="#00E6B3"/>
</svg>
