<svg width="30" height="30" viewBox="0 0 30 30" fill="none" xmlns="http://www.w3.org/2000/svg">
<path d="M7.05561 17.979L6.40445 17.8897L5.7533 17.7408H5.78583C6.58312 13.9349 9.76369 10.9199 13.8927 10.0558L14.1858 11.2175C10.5649 11.977 7.77146 14.6144 7.05561 17.9493V17.979Z" fill="#00E6B3"/>
<path d="M25.5815 18.0382V17.9786C24.8723 14.624 22.0615 11.9706 18.4188 11.217L18.7118 10.0553C22.823 10.9287 25.9944 13.9234 26.8187 17.7105C26.8425 17.7349 26.8543 17.7672 26.8512 17.7998L25.5815 18.0382Z" fill="#00E6B3"/>
<rect x="5.23245" y="9.6391" width="8.7906" height="1.19147" fill="#00E6B3"/>
<path d="M28.3488 21.9995H24.4419C24.0823 21.9995 23.7907 21.7328 23.7907 21.4037V17.8293C23.7907 17.5003 24.0823 17.2336 24.4419 17.2336H28.3488C28.7085 17.2336 29 17.5003 29 17.8293V21.4037C29 21.7328 28.7085 21.9995 28.3488 21.9995Z" fill="#00E6B3"/>
<path d="M8.16284 21.9995H4.25589C3.89626 21.9995 3.60474 21.7328 3.60474 21.4037V17.8293C3.60474 17.5003 3.89626 17.2336 4.25589 17.2336H8.16284C8.52248 17.2336 8.814 17.5003 8.814 17.8293V21.4037C8.814 21.7328 8.52248 21.9995 8.16284 21.9995Z" fill="#00E6B3"/>
<path d="M3.60489 12.7661C2.90506 12.7719 2.23359 12.5133 1.74907 12.0512C1.26099 11.612 0.990473 11.0094 1.00026 10.3832C0.993838 9.74291 1.27657 9.12859 1.78166 8.68531C2.26169 8.23878 2.92039 7.99128 3.60489 8.00023C4.95295 8.00941 6.07641 8.94734 6.20952 10.1747V10.3832C6.21594 11.0234 5.9332 11.6378 5.42812 12.081C4.94808 12.5275 4.28939 12.7751 3.60489 12.7661Z" fill="#00E6B3"/>
<path d="M16.302 12.7661C15.6022 12.7719 14.9307 12.5133 14.4462 12.0512C13.9581 11.612 13.6876 11.0094 13.6974 10.3832C13.691 9.74291 13.9737 9.12859 14.4788 8.68531C14.9588 8.23878 15.6175 7.99128 16.302 8.00023C17.7405 8.00023 18.9066 9.06713 18.9066 10.3832C18.9131 11.0234 18.6303 11.6378 18.1252 12.081C17.6453 12.5275 16.9865 12.7751 16.302 12.7661Z" fill="#00E6B3"/>
</svg>
