<svg width="30" height="30" viewBox="0 0 30 30" fill="none" xmlns="http://www.w3.org/2000/svg">
<path fill-rule="evenodd" clip-rule="evenodd" d="M23.4346 14.2383C23.7517 13.3173 24.6262 12.6535 25.6535 12.6535C26.9474 12.6535 28 13.7061 28 15C28 16.2939 26.9474 17.3465 25.6535 17.3465C24.6262 17.3465 23.7517 16.6827 23.4346 15.7617H21.7381C21.5921 17.0616 21.0773 18.2513 20.301 19.2237L21.5028 20.4256C22.3782 19.9985 23.4661 20.1475 24.1924 20.874C25.1073 21.7889 25.1073 23.2775 24.1924 24.1924C23.735 24.6499 23.1341 24.8786 22.5332 24.8786C21.9323 24.8786 21.3314 24.6499 20.874 24.1924C20.1475 23.466 19.9986 22.3783 20.4256 21.5028L19.2237 20.301C18.2513 21.0774 17.0616 21.5921 15.7617 21.7381V23.4346C16.6827 23.7517 17.3465 24.6262 17.3465 25.6535C17.3465 26.9474 16.2939 28 15 28C13.7061 28 12.6535 26.9474 12.6535 25.6535C12.6535 24.6262 13.3173 23.7517 14.2383 23.4346V21.7381C12.9384 21.5922 11.7487 21.0774 10.7763 20.301L9.57443 21.5028C10.0014 22.3783 9.85241 23.466 9.12603 24.1924C8.66859 24.6499 8.0677 24.8786 7.4668 24.8786C6.86591 24.8786 6.26502 24.6499 5.80758 24.1924C4.89265 23.2775 4.89265 21.7889 5.80758 20.874C6.53395 20.1475 7.62179 19.9985 8.49721 20.4256L9.69905 19.2237C8.9226 18.2513 8.40788 17.0616 8.26189 15.7617H6.56539C6.24831 16.6827 5.37375 17.3465 4.3465 17.3465C3.05264 17.3465 2 16.2939 2 15C2 13.7061 3.05264 12.6535 4.3465 12.6535C5.37375 12.6535 6.24831 13.3173 6.56539 14.2383H8.26189C8.40788 12.9384 8.92265 11.7487 9.69905 10.7763L8.49721 9.57443C8.17307 9.73256 7.82009 9.81224 7.4668 9.81224C6.86591 9.81224 6.26502 9.58352 5.80758 9.12603C4.89265 8.21111 4.89265 6.7225 5.80758 5.80758C6.72245 4.8926 8.21116 4.8926 9.12603 5.80758C9.85246 6.53395 10.0014 7.62174 9.57443 8.49716L10.7763 9.699C11.7487 8.9226 12.9384 8.40788 14.2383 8.26189V6.56539C13.3173 6.24831 12.6535 5.37375 12.6535 4.3465C12.6535 3.05264 13.7061 2 15 2C16.2939 2 17.3465 3.05264 17.3465 4.3465C17.3465 5.37375 16.6827 6.24831 15.7617 6.56539V8.26189C17.0616 8.40783 18.2513 8.9226 19.2237 9.699L20.4256 8.49716C19.9986 7.62174 20.1476 6.53395 20.874 5.80758C21.7888 4.8926 23.2775 4.8926 24.1924 5.80758C25.1073 6.7225 25.1073 8.21111 24.1924 9.12603C23.735 9.58352 23.1341 9.81224 22.5332 9.81224C22.1799 9.81224 21.8269 9.73251 21.5028 9.57443L20.301 10.7763C21.0774 11.7487 21.5921 12.9384 21.7381 14.2383H23.4346ZM22.5327 6.64496C22.3219 6.64496 22.1112 6.7252 21.9507 6.88561C21.6297 7.20655 21.6297 7.72873 21.9507 8.04962C22.2716 8.37046 22.7938 8.37046 23.1147 8.04962C23.4356 7.72873 23.4356 7.2065 23.1147 6.88561C22.9542 6.7252 22.7434 6.64496 22.5327 6.64496ZM19.9543 13.2378L19.7066 13.1445C18.755 12.7861 17.7198 12.8176 16.7918 13.2337C16.2279 13.4866 15.5997 13.5036 15.0229 13.2821C14.4461 13.0605 13.9909 12.6271 13.7413 12.0618L12.9093 10.1776C13.5507 9.89836 14.258 9.74312 15.001 9.74312C17.282 9.74312 19.228 11.2033 19.9543 13.2378ZM15.8227 4.3465C15.8227 3.89267 15.4535 3.52344 14.9996 3.52344C14.5458 3.52344 14.1766 3.89267 14.1766 4.3465C14.1766 4.80033 14.5458 5.16956 14.9996 5.16956C15.4535 5.16956 15.8227 4.80033 15.8227 4.3465ZM6.88537 8.04962C6.56449 7.72873 6.56449 7.2065 6.88537 6.88561C7.04584 6.7252 7.25663 6.64496 7.46738 6.64496C7.67812 6.64496 7.88891 6.7252 8.04938 6.88561C8.37027 7.2065 8.37027 7.72873 8.04938 8.04962C7.72844 8.37051 7.20636 8.37051 6.88537 8.04962ZM3.52344 14.9989C3.52344 15.4528 3.89267 15.8219 4.3465 15.8219C4.80038 15.8219 5.16956 15.4527 5.16956 14.9989C5.16956 14.5451 4.80033 14.1758 4.3465 14.1758C3.89267 14.1758 3.52344 14.545 3.52344 14.9989ZM6.88537 23.1164C6.56449 22.7955 6.56449 22.2733 6.88537 21.9524C7.04584 21.792 7.25663 21.7118 7.46738 21.7118C7.67812 21.7118 7.88891 21.792 8.04938 21.9524C8.37032 22.2733 8.37032 22.7955 8.04938 23.1164C7.72844 23.4373 7.20631 23.4373 6.88537 23.1164ZM11.3834 17.0151L9.99906 16.6255C10.6046 18.4835 12.2187 19.8902 14.192 20.1956C13.9626 18.6985 12.8723 17.4341 11.3834 17.0151ZM14.9996 26.4759C14.5458 26.4759 14.1766 26.1066 14.1766 25.6528C14.1766 25.199 14.5458 24.8297 14.9996 24.8297C15.4535 24.8297 15.8227 25.199 15.8227 25.6528C15.8227 26.1066 15.4535 26.4759 14.9996 26.4759ZM11.7976 15.5476C13.945 16.152 15.4956 18.0222 15.7304 20.2057C18.2853 19.8494 20.2584 17.6504 20.2584 14.9988L20.2581 14.9783L19.1693 14.5682C18.5964 14.3523 17.9732 14.3715 17.4146 14.6219C16.4779 15.0418 15.4344 15.0703 14.4762 14.7022C13.5181 14.3341 12.762 13.6142 12.3474 12.6752L11.6032 10.9898C10.473 11.9491 9.75216 13.3764 9.74338 14.9695L11.7976 15.5476ZM23.1147 21.9524C23.4355 22.2733 23.4355 22.7955 23.1147 23.1164C22.7937 23.4373 22.2716 23.4373 21.9506 23.1164C21.6298 22.7955 21.6298 22.2733 21.9506 21.9524C22.1111 21.792 22.3219 21.7118 22.5326 21.7118C22.7434 21.7118 22.9541 21.792 23.1147 21.9524ZM24.8307 14.9989C24.8307 15.4527 25.1999 15.8219 25.6538 15.8219C26.1076 15.8219 26.4769 15.4527 26.4769 14.9989C26.4769 14.5451 26.1076 14.1758 25.6538 14.1758C25.2 14.1758 24.8307 14.5451 24.8307 14.9989Z" fill="#44D7B6"/>
</svg>
