<svg width="30" height="30" viewBox="0 0 30 30" fill="none" xmlns="http://www.w3.org/2000/svg">
  <path fill-rule="evenodd" clip-rule="evenodd" d="M22.137 14.3555C22.4053 13.5762 23.1453 13.0145 24.0145 13.0145C25.1093 13.0145 26 13.9052 26 15C26 16.0948 25.1093 16.9855 24.0145 16.9855C23.1453 16.9855 22.4053 16.4238 22.137 15.6445H20.7015C20.5779 16.7444 20.1424 17.7511 19.4854 18.5739L20.5024 19.5909C21.2431 19.2295 22.1636 19.3556 22.7782 19.9703C23.5524 20.7444 23.5524 22.004 22.7782 22.7782C22.3911 23.1653 21.8827 23.3588 21.3742 23.3588C20.8658 23.3588 20.3573 23.1653 19.9703 22.7782C19.3556 22.1636 19.2295 21.2431 19.5909 20.5024L18.5739 19.4855C17.7511 20.1424 16.7444 20.5779 15.6445 20.7015V22.137C16.4238 22.4053 16.9855 23.1453 16.9855 24.0145C16.9855 25.1093 16.0948 26 15 26C13.9052 26 13.0145 25.1093 13.0145 24.0145C13.0145 23.1453 13.5762 22.4053 14.3555 22.137V20.7015C13.2556 20.578 12.2489 20.1424 11.4261 19.4855L10.4091 20.5024C10.7705 21.2431 10.6443 22.1636 10.0297 22.7782C9.64266 23.1653 9.13421 23.3588 8.62576 23.3588C8.11731 23.3588 7.60886 23.1653 7.2218 22.7782C6.44763 22.004 6.44763 20.7444 7.2218 19.9703C7.83642 19.3556 8.7569 19.2295 9.49764 19.5909L10.5146 18.5739C9.85759 17.7511 9.42205 16.7444 9.29852 15.6445H7.86302C7.59472 16.4238 6.85471 16.9855 5.9855 16.9855C4.8907 16.9855 4 16.0948 4 15C4 13.9052 4.8907 13.0145 5.9855 13.0145C6.85471 13.0145 7.59472 13.5762 7.86302 14.3555H9.29852C9.42205 13.2556 9.85763 12.2489 10.5146 11.4261L9.49764 10.4091C9.22337 10.5429 8.92469 10.6104 8.62576 10.6104C8.11731 10.6104 7.60886 10.4168 7.2218 10.0297C6.44763 9.25555 6.44763 7.99596 7.2218 7.2218C7.99592 6.44759 9.25559 6.44759 10.0297 7.2218C10.6444 7.83642 10.7705 8.75686 10.4091 9.49759L11.4261 10.5145C12.2489 9.85759 13.2556 9.42205 14.3555 9.29852V7.86302C13.5762 7.59472 13.0145 6.85471 13.0145 5.9855C13.0145 4.8907 13.9052 4 15 4C16.0948 4 16.9855 4.8907 16.9855 5.9855C16.9855 6.85471 16.4238 7.59472 15.6445 7.86302V9.29852C16.7444 9.42201 17.7511 9.85759 18.5739 10.5145L19.5909 9.49759C19.2295 8.75686 19.3557 7.83642 19.9703 7.2218C20.7444 6.44759 22.0041 6.44759 22.7782 7.2218C23.5524 7.99596 23.5524 9.25555 22.7782 10.0297C22.3911 10.4168 21.8827 10.6104 21.3742 10.6104C21.0753 10.6104 20.7766 10.5429 20.5024 10.4091L19.4854 11.4261C20.1424 12.2489 20.5779 13.2556 20.7015 14.3555H22.137ZM21.3738 7.93037C21.1955 7.93037 21.0171 7.99826 20.8814 8.13399C20.6098 8.40556 20.6098 8.8474 20.8814 9.11892C21.1529 9.3904 21.5947 9.3904 21.8663 9.11892C22.1378 8.8474 22.1378 8.40551 21.8663 8.13399C21.7305 7.99826 21.5521 7.93037 21.3738 7.93037ZM19.1921 13.5089L18.9825 13.43C18.1773 13.1267 17.3013 13.1534 16.5161 13.5054C16.039 13.7194 15.5074 13.7338 15.0194 13.5464C14.5313 13.3588 14.1462 12.9921 13.935 12.5139L13.231 10.9195C13.7737 10.6832 14.3722 10.5519 15.0008 10.5519C16.9309 10.5519 18.5775 11.7874 19.1921 13.5089ZM15.6961 5.9855C15.6961 5.60149 15.3838 5.28906 14.9997 5.28906C14.6157 5.28906 14.3033 5.60149 14.3033 5.9855C14.3033 6.36951 14.6157 6.68194 14.9997 6.68194C15.3838 6.68194 15.6961 6.36951 15.6961 5.9855ZM8.13377 9.11892C7.86225 8.8474 7.86225 8.40551 8.13377 8.13399C8.26955 7.99826 8.44791 7.93037 8.62623 7.93037C8.80455 7.93037 8.98292 7.99826 9.1187 8.13399C9.39022 8.40551 9.39022 8.8474 9.1187 9.11892C8.84714 9.39044 8.40538 9.39044 8.13377 9.11892ZM5.28906 14.9991C5.28906 15.3831 5.60149 15.6955 5.9855 15.6955C6.36955 15.6955 6.68194 15.3831 6.68194 14.9991C6.68194 14.6151 6.36951 14.3026 5.9855 14.3026C5.60149 14.3026 5.28906 14.615 5.28906 14.9991ZM8.13377 21.8677C7.86225 21.5962 7.86225 21.1543 8.13377 20.8828C8.26955 20.747 8.44791 20.6791 8.62623 20.6791C8.80455 20.6791 8.98292 20.747 9.1187 20.8828C9.39026 21.1543 9.39026 21.5961 9.1187 21.8677C8.84714 22.1392 8.40533 22.1392 8.13377 21.8677ZM11.9397 16.7051L10.7684 16.3754C11.2808 17.9476 12.6466 19.1379 14.3163 19.3962C14.1222 18.1295 13.1996 17.0596 11.9397 16.7051ZM14.9997 24.7104C14.6157 24.7104 14.3033 24.3979 14.3033 24.0139C14.3033 23.6299 14.6157 23.3175 14.9997 23.3175C15.3837 23.3175 15.6961 23.6299 15.6961 24.0139C15.6961 24.3979 15.3838 24.7104 14.9997 24.7104ZM12.2903 15.4634C14.1073 15.9748 15.4193 17.5573 15.618 19.4048C17.7799 19.1033 19.4494 17.2426 19.4494 14.999L19.4492 14.9816L18.5279 14.6346C18.0431 14.452 17.5158 14.4682 17.0431 14.68C16.2506 15.0353 15.3676 15.0595 14.5568 14.748C13.746 14.4365 13.1063 13.8274 12.7555 13.0328L12.1258 11.6067C11.1695 12.4184 10.5595 13.6262 10.5521 14.9742L12.2903 15.4634ZM21.8663 20.8828C22.1378 21.1543 22.1378 21.5962 21.8663 21.8677C21.5947 22.1392 21.1529 22.1392 20.8813 21.8677C20.6098 21.5962 20.6098 21.1543 20.8813 20.8828C21.0171 20.747 21.1955 20.6791 21.3738 20.6791C21.5521 20.6791 21.7304 20.747 21.8663 20.8828ZM23.3183 14.9991C23.3183 15.3831 23.6307 15.6955 24.0148 15.6955C24.3988 15.6955 24.7112 15.3831 24.7112 14.9991C24.7112 14.6151 24.3988 14.3026 24.0148 14.3026C23.6307 14.3026 23.3183 14.6151 23.3183 14.9991Z" fill="#44D7B6"/>
</svg>
