<svg width="30" height="30" viewBox="0 0 30 30" fill="none" xmlns="http://www.w3.org/2000/svg">
  <path d="M17.1315 12.6874C18.3031 13.859 18.3031 15.7585 17.1315 16.9301C15.9599 18.1017 14.0603 18.1017 12.8887 16.9301C11.7171 15.7585 11.7171 13.859 12.8887 12.6874C14.0603 11.5158 15.9599 11.5158 17.1315 12.6874" fill="#44D7B6"/>
  <path fill-rule="evenodd" clip-rule="evenodd" d="M21.9271 7.0001H23.9999C25.6545 7.0001 27 8.34559 27 10.0001V22.0005C27 23.6551 25.6545 25.0006 23.9999 25.0006H6.0001C4.3455 25.0006 3 23.6544 3 21.9998L3.00806 10.0039C3.00948 8.35296 4.35282 7.00821 6.003 7.00526L8.07288 7.00157L9.57222 4H20.4263L21.9271 7.0001ZM8.9994 15.2503C8.9994 18.5588 11.6911 21.2505 14.9996 21.2505C18.3081 21.2505 20.9998 18.5588 20.9998 15.2503C20.9998 11.9418 18.3081 9.2501 14.9996 9.2501C11.6911 9.2501 8.9994 11.9418 8.9994 15.2503Z" fill="url(#paint0_linear)"/>
  <defs>
    <linearGradient id="paint0_linear" x1="4.37538" y1="2.12577" x2="1.07976" y2="28.3406" gradientUnits="userSpaceOnUse">
      <stop stop-color="#BDFFF5"/>
      <stop offset="1" stop-color="#44D7B6"/>
    </linearGradient>
  </defs>
</svg>
