<svg width="30" height="30" viewBox="0 0 30 30" fill="none" xmlns="http://www.w3.org/2000/svg">
<path d="M27.8333 14.6912H23.9804L21.1483 6.75881C20.9862 6.30487 20.5428 6 20.0447 6C19.5465 6 19.1037 6.30487 18.9416 6.75881L14.4213 19.419L10.4862 8.39062C10.324 7.93669 9.88125 7.63181 9.38308 7.63181C8.88492 7.63181 8.44217 7.93669 8.28 8.39062L6.03008 14.6912H2.16667C1.52267 14.6912 1 15.1952 1 15.8162C1 16.4372 1.52267 16.9412 2.16667 16.9412H6.86192C7.36008 16.9412 7.80283 16.6363 7.965 16.1824L9.3825 12.2134L13.3188 23.2406C13.481 23.6951 13.9243 24 14.4219 24C14.9195 24 15.3628 23.6951 15.525 23.2412L20.0447 10.581L22.0449 16.1824C22.2065 16.6363 22.6498 16.9412 23.148 16.9412H27.8333C28.4773 16.9412 29 16.4372 29 15.8162C29 15.1952 28.4773 14.6912 27.8333 14.6912Z" fill="#00E6B3"/>
</svg>
