<svg width="21" height="13" viewBox="0 0 21 13" fill="none" xmlns="http://www.w3.org/2000/svg">
  <path d="M19.5 6.11602H16.7076L14.655 0.533979C14.5375 0.214542 14.2162 0 13.8551 0C13.4941 0 13.1732 0.214542 13.0557 0.533979L9.77957 9.443L6.92753 1.68229C6.81 1.36285 6.48912 1.14831 6.12807 1.14831C5.76702 1.14831 5.44613 1.36285 5.3286 1.68229L3.69796 6.11602H0.897918C0.431174 6.11602 0.0523682 6.47069 0.0523682 6.90769C0.0523682 7.34469 0.431174 7.69935 0.897918 7.69935H4.30083C4.66188 7.69935 4.98277 7.48481 5.1003 7.16538L6.12764 4.37238L8.98053 12.1323C9.09806 12.4521 9.41937 12.6667 9.77999 12.6667C10.1406 12.6667 10.4619 12.4521 10.5795 12.1327L13.8551 3.22367L15.3048 7.16538C15.4219 7.48481 15.7432 7.69935 16.1043 7.69935H19.5C19.9668 7.69935 20.3456 7.34469 20.3456 6.90769C20.3456 6.47069 19.9668 6.11602 19.5 6.11602Z" fill="#00E6B3"/>
</svg>
