<svg width="30" height="30" viewBox="0 0 30 30" fill="none" xmlns="http://www.w3.org/2000/svg">
<path fill-rule="evenodd" clip-rule="evenodd" d="M20.2885 18.7566L27.8413 26.3095C28.0529 26.521 28.0529 26.8639 27.8414 27.0755L27.0755 27.8414C26.8639 28.0529 26.5211 28.0529 26.3095 27.8414L18.7566 20.2886C16.9881 21.721 14.7397 22.5834 12.2917 22.5834C6.61689 22.5834 2 17.9665 2 12.2917C2 6.61689 6.61684 2 12.2917 2C17.9665 2 22.5834 6.61689 22.5834 12.2917C22.5834 14.7397 21.7211 16.9881 20.2885 18.7566ZM4.16667 12.2917C4.16667 16.7721 7.8113 20.4167 12.2917 20.4167C16.7721 20.4167 20.4167 16.7721 20.4167 12.2917C20.4167 7.8113 16.7721 4.16667 12.2917 4.16667C7.8113 4.16667 4.16667 7.8113 4.16667 12.2917Z" fill="#878EA1"/>
</svg>
