<svg width="129" height="17" viewBox="0 0 129 17" fill="none" xmlns="http://www.w3.org/2000/svg">
  <path d="M4.972 13L0.385 5.08H1.43L5.489 12.131L9.537 5.08H10.582L6.006 13H4.972ZM12.9242 13C12.5576 13 12.2422 12.8717 11.9782 12.615C11.7216 12.351 11.5932 12.0357 11.5932 11.669V7.951C11.5932 7.58433 11.7216 7.27267 11.9782 7.016C12.2422 6.752 12.5576 6.62 12.9242 6.62H16.7522C17.1262 6.62 17.4416 6.752 17.6982 7.016C17.9622 7.27267 18.0942 7.58433 18.0942 7.951V10.261H12.4952V11.669C12.4952 11.7863 12.5356 11.889 12.6162 11.977C12.7042 12.0577 12.8069 12.098 12.9242 12.098H18.0942V13H12.9242ZM12.4952 9.359H17.1812V7.951C17.1812 7.83367 17.1372 7.73467 17.0492 7.654C16.9686 7.566 16.8696 7.522 16.7522 7.522H12.9242C12.8069 7.522 12.7042 7.566 12.6162 7.654C12.5356 7.73467 12.4952 7.83367 12.4952 7.951V9.359ZM19.2424 13V6.62H24.4124C24.7791 6.62 25.0908 6.752 25.3474 7.016C25.6114 7.27267 25.7434 7.58433 25.7434 7.951V13H24.8414V7.951C24.8414 7.83367 24.7974 7.73467 24.7094 7.654C24.6288 7.566 24.5298 7.522 24.4124 7.522H20.5844C20.4671 7.522 20.3644 7.566 20.2764 7.654C20.1884 7.73467 20.1444 7.83367 20.1444 7.951V13H19.2424ZM28.2216 13C27.8476 13 27.5323 12.8717 27.2756 12.615C27.019 12.351 26.8906 12.0357 26.8906 11.669V4.53H27.7926V6.62H30.5536V7.522H27.7926V11.669C27.7926 11.7863 27.833 11.889 27.9136 11.977C28.0016 12.0577 28.1043 12.098 28.2216 12.098H30.5536V13H28.2216ZM32.7333 13C32.3667 13 32.0513 12.8717 31.7873 12.615C31.5307 12.351 31.4023 12.0357 31.4023 11.669V6.62H32.3043V11.669C32.3043 11.7863 32.3447 11.889 32.4253 11.977C32.5133 12.0577 32.616 12.098 32.7333 12.098H36.5613C36.6787 12.098 36.7813 12.0577 36.8693 11.977C36.9573 11.889 37.0013 11.7863 37.0013 11.669V6.62H37.9033V11.669C37.9033 12.0357 37.7713 12.351 37.5073 12.615C37.2507 12.8717 36.9353 13 36.5613 13H32.7333ZM40.3708 13C40.0041 13 39.6888 12.8717 39.4248 12.615C39.1681 12.351 39.0398 12.0357 39.0398 11.669V9.359H44.6278V7.951C44.6278 7.83367 44.5838 7.73467 44.4958 7.654C44.4151 7.566 44.3161 7.522 44.1988 7.522H39.0398V6.62H44.1988C44.5728 6.62 44.8881 6.752 45.1448 7.016C45.4088 7.27267 45.5408 7.58433 45.5408 7.951V13H40.3708ZM40.3708 12.098H44.6278V10.261H39.9418V11.669C39.9418 11.7863 39.9821 11.889 40.0628 11.977C40.1508 12.0577 40.2534 12.098 40.3708 12.098ZM46.6238 13V7.951C46.6238 7.58433 46.7521 7.27267 47.0088 7.016C47.2728 6.752 47.5881 6.62 47.9548 6.62H51.5408V7.522H47.9548C47.8374 7.522 47.7348 7.566 47.6468 7.654C47.5661 7.73467 47.5258 7.83367 47.5258 7.951V13H46.6238ZM53.3197 15.53V14.617H57.3017C57.419 14.617 57.518 14.573 57.5987 14.485C57.6867 14.4043 57.7307 14.3053 57.7307 14.188V13H53.4737C53.107 13 52.7917 12.8717 52.5277 12.615C52.271 12.351 52.1427 12.0357 52.1427 11.669V6.642H53.0447V11.669C53.0447 11.7863 53.085 11.889 53.1657 11.977C53.2537 12.0577 53.3563 12.098 53.4737 12.098H57.3017C57.419 12.098 57.518 12.0577 57.5987 11.977C57.6867 11.889 57.7307 11.7863 57.7307 11.669V6.642H58.6327V14.188C58.6327 14.562 58.5043 14.8773 58.2477 15.134C57.991 15.398 57.6757 15.53 57.3017 15.53H53.3197ZM62.835 13V5.069H63.726V12.109H70.755V13H62.835ZM72.6833 13C72.3166 13 72.0013 12.8717 71.7373 12.615C71.4806 12.351 71.3523 12.0357 71.3523 11.669V9.359H76.9403V7.951C76.9403 7.83367 76.8963 7.73467 76.8083 7.654C76.7276 7.566 76.6286 7.522 76.5113 7.522H71.3523V6.62H76.5113C76.8853 6.62 77.2006 6.752 77.4573 7.016C77.7213 7.27267 77.8533 7.58433 77.8533 7.951V13H72.6833ZM72.6833 12.098H76.9403V10.261H72.2543V11.669C72.2543 11.7863 72.2946 11.889 72.3753 11.977C72.4633 12.0577 72.5659 12.098 72.6833 12.098ZM78.7327 13V4.53H79.6347V6.62H83.9027C84.2693 6.62 84.581 6.752 84.8377 7.016C85.1017 7.27267 85.2337 7.58433 85.2337 7.951V11.669C85.2337 12.0357 85.1017 12.351 84.8377 12.615C84.581 12.8717 84.2693 13 83.9027 13H78.7327ZM80.0747 12.098H83.9027C84.02 12.098 84.119 12.0577 84.1997 11.977C84.2877 11.889 84.3317 11.7863 84.3317 11.669V7.951C84.3317 7.83367 84.2877 7.73467 84.1997 7.654C84.119 7.566 84.02 7.522 83.9027 7.522H80.0747C79.9573 7.522 79.8547 7.566 79.7667 7.654C79.6787 7.73467 79.6347 7.83367 79.6347 7.951V11.669C79.6347 11.7863 79.6787 11.889 79.7667 11.977C79.8547 12.0577 79.9573 12.098 80.0747 12.098Z" fill="#EEECEC"/>
  <path d="M106.43 13.5949C106.682 13.5949 106.895 13.5078 107.067 13.3338C107.239 13.1597 107.325 12.945 107.325 12.6897C107.325 12.4344 107.239 12.2197 107.067 12.0456C106.895 11.8716 106.682 11.7845 106.43 11.7845H100.201V0.905164C100.201 0.649861 100.115 0.435175 99.9428 0.261105C99.7707 0.087035 99.5585 0 99.3061 0C99.0652 0 98.8587 0.087035 98.6866 0.261105C98.5146 0.435175 98.4285 0.649861 98.4285 0.905164C98.4285 0.905164 98.4285 5.80426 98.4285 8.2538C98.4285 9.73244 98.4285 11.0154 98.4285 11.0154C98.4285 11.2707 99.1398 12.7763 99.3061 12.9504C99.4724 13.1244 98.9946 13.5272 99.0938 13.572C99.193 13.6168 99.6367 13.5949 99.768 13.5949C99.8926 13.5949 99.9967 13.5949 100.08 13.5949C102.197 13.5949 106.43 13.5949 106.43 13.5949Z" fill="#EEECEC"/>
  <path d="M99.2187 13.5949C99.4213 13.5949 99.5912 13.5455 99.7282 13.4469C99.8653 13.3483 99.9755 13.2061 100.059 13.0204L105.351 1.20108C105.494 0.899362 105.497 0.623751 105.36 0.374251C105.223 0.12475 104.975 0 104.618 0C104.403 0 104.234 0.0377152 104.108 0.113146C103.983 0.188576 103.873 0.330733 103.778 0.539617C103.778 0.539617 100.951 7.50367 100.059 9.54807C99.8012 10.1392 99.7634 9.74389 99.5529 10.2267C99.4328 10.5019 99.1928 11.0522 99.1928 11.0522L94.6956 0.539617C94.5535 0.209851 94.3013 0.0312278 93.939 0.00374734L93.8374 0C93.4679 0 93.2176 0.127651 93.0865 0.382954C92.9554 0.638257 92.9733 0.963187 93.1402 1.35775L98.3784 13.0204C98.5572 13.4034 98.8373 13.5949 99.2187 13.5949Z" fill="#EEECEC"/>
  <path fill-rule="evenodd" clip-rule="evenodd" d="M114.836 13.0292C114.171 13.4528 113.419 13.6645 112.582 13.6645C111.745 13.6645 110.993 13.4528 110.328 13.0292C109.663 12.6056 109.138 12.0312 108.753 11.3059C108.369 10.5806 108.177 9.75958 108.177 8.84281C108.177 7.92604 108.386 7.10211 108.805 6.37101C109.224 5.63992 109.792 5.06259 110.509 4.63902C111.226 4.21545 112.031 4.00366 112.926 4.00366C113.821 4.00366 114.624 4.21545 115.335 4.63902C116.046 5.06259 116.611 5.63992 117.03 6.37101C117.449 7.10211 117.658 7.92604 117.658 8.84281V12.7246C117.658 12.9799 117.575 13.1917 117.409 13.3599C117.242 13.5282 117.033 13.6123 116.781 13.6123C116.528 13.6123 116.319 13.5282 116.153 13.3599L116.094 13.2948C115.967 13.138 115.903 12.948 115.903 12.7246V12.0763L115.857 12.1339C115.565 12.4837 115.224 12.7821 114.836 13.0292ZM111.369 11.6714C111.833 11.9558 112.353 12.0979 112.926 12.0979C113.511 12.0979 114.033 11.9558 114.492 11.6714C114.951 11.3871 115.312 10.9984 115.576 10.5052C115.84 10.012 115.972 9.45786 115.972 8.84281C115.972 8.21616 115.84 7.65623 115.576 7.16303C115.312 6.66983 114.951 6.28108 114.492 5.99676C114.033 5.71245 113.511 5.57029 112.926 5.57029C112.353 5.57029 111.833 5.71245 111.369 5.99676C110.904 6.28108 110.537 6.66983 110.268 7.16303C109.998 7.65623 109.863 8.21616 109.863 8.84281C109.863 9.45786 109.998 10.012 110.268 10.5052C110.537 10.9984 110.904 11.3871 111.369 11.6714Z" fill="#EEECEC"/>
  <path fill-rule="evenodd" clip-rule="evenodd" d="M126.505 13.0291C125.794 13.4527 124.985 13.6645 124.079 13.6645C123.184 13.6645 122.381 13.4527 121.67 13.0291C120.959 12.6056 120.397 12.0282 119.984 11.2971C119.571 10.566 119.359 9.74212 119.347 8.82535V0.887757C119.347 0.62085 119.43 0.406163 119.597 0.243698C119.763 0.0812327 119.972 0 120.225 0C120.488 0 120.701 0.0812327 120.861 0.243698C121.022 0.406163 121.102 0.62085 121.102 0.887757V5.58765C121.504 5.10025 121.988 4.7144 122.556 4.43008C123.124 4.14577 123.746 4.00361 124.423 4.00361C125.261 4.00361 126.012 4.2154 126.677 4.63897C127.343 5.06254 127.868 5.63697 128.252 6.36226C128.636 7.08755 128.828 7.90858 128.828 8.82535C128.828 9.74212 128.619 10.566 128.2 11.2971C127.782 12.0282 127.217 12.6056 126.505 13.0291ZM122.522 11.6714C122.986 11.9557 123.505 12.0979 124.079 12.0979C124.664 12.0979 125.186 11.9557 125.645 11.6714C126.104 11.3871 126.468 10.9954 126.738 10.4964C127.007 9.99742 127.142 9.4404 127.142 8.82535C127.142 8.1987 127.007 7.64167 126.738 7.15428C126.468 6.66688 126.104 6.28103 125.645 5.99671C125.186 5.7124 124.664 5.57024 124.079 5.57024C123.505 5.57024 122.986 5.7124 122.522 5.99671C122.057 6.28103 121.693 6.66688 121.429 7.15428C121.165 7.64167 121.033 8.1987 121.033 8.82535C121.033 9.4404 121.165 9.99742 121.429 10.4964C121.693 10.9954 122.057 11.3871 122.522 11.6714Z" fill="#EEECEC"/>
</svg>
