<svg width="30" height="30" viewBox="0 0 30 30" fill="none" xmlns="http://www.w3.org/2000/svg">
<path d="M28.8419 8.46964C28.6085 7.83461 28.1448 7.32963 27.5361 7.04767C26.9276 6.76582 26.2479 6.74095 25.6223 6.97784C24.9966 7.21474 24.4991 7.68542 24.2213 8.30307C23.9435 8.92073 23.919 9.61065 24.1524 10.2456C24.2217 10.4341 24.3109 10.6091 24.4165 10.7694L20.4466 14.984L16.1861 7.75785C16.9518 7.32297 17.4708 6.49207 17.4708 5.54005C17.4708 4.13945 16.3481 3 14.9681 3C13.5881 3 12.4654 4.13945 12.4654 5.54005C12.4654 6.49373 12.9862 7.32597 13.7541 7.76018L9.52718 15.0073L5.46582 10.9333C5.98962 10.2591 6.16516 9.33124 5.84841 8.46958C5.61495 7.83461 5.15115 7.32963 4.54264 7.04767C3.93402 6.76582 3.25431 6.74095 2.62869 6.97784C2.00306 7.21479 1.50552 7.68553 1.22776 8.30313C0.949947 8.92078 0.925447 9.61065 1.15885 10.2457C1.53406 11.2662 2.49109 11.8978 3.50631 11.8978C3.53273 11.8978 3.55914 11.8969 3.58561 11.896L4.98184 20.4853H24.9373L26.1906 11.8779C26.2927 11.8909 26.396 11.8978 26.4999 11.8978C26.79 11.8978 27.0849 11.8462 27.3721 11.7375H27.3722C28.665 11.2478 29.3244 9.78177 28.8419 8.46964Z" fill="url(#paint0_linear)"/>
<path fill-rule="evenodd" clip-rule="evenodd" d="M5.6665 27.0001V21.2361H24.3257V27.0001H5.6665ZM8.93066 24.1968L10.085 25.3684L11.2392 24.1969L10.0849 23.0253L8.93066 24.1968ZM14.9673 25.3684L13.813 24.1968L14.9672 23.0253L16.1216 24.1969L14.9673 25.3684ZM18.7371 24.1968L19.8913 25.3684L21.0456 24.1969L19.8913 23.0253L18.7371 24.1968Z" fill="#44D7B6"/>
<defs>
<linearGradient id="paint0_linear" x1="2.60461" y1="1.4395" x2="0.631285" y2="23.434" gradientUnits="userSpaceOnUse">
<stop stop-color="#BDFFF5"/>
<stop offset="1" stop-color="#44D7B6"/>
</linearGradient>
</defs>
</svg>
