<svg width="30" height="30" viewBox="0 0 30 30" fill="none" xmlns="http://www.w3.org/2000/svg">
<path fill-rule="evenodd" clip-rule="evenodd" d="M12.207 13.4561C12.207 11.9914 13.46 10.7997 15.0001 10.7997C16.5402 10.7997 17.7932 11.9914 17.7932 13.4561C17.7932 14.6698 16.9328 15.6952 15.7619 16.0114V24.2752C15.7619 24.6753 15.4208 24.9997 15.0001 24.9997C14.5794 24.9997 14.2384 24.6753 14.2384 24.2752V16.0114C13.0675 15.6951 12.207 14.6698 12.207 13.4561ZM13.7305 13.4565C13.7305 14.1223 14.3 14.664 15.0001 14.664C15.7001 14.664 16.2696 14.1223 16.2696 13.4565C16.2696 12.7907 15.7001 12.249 15.0001 12.249C14.3 12.249 13.7305 12.7907 13.7305 13.4565Z" fill="#44D7B6"/>
<path d="M11.4759 9.58409C11.1784 9.30115 10.6961 9.30115 10.3986 9.58409C8.03691 11.8302 8.03656 15.466 10.3986 17.7124C10.6961 17.9954 11.1784 17.9954 11.4759 17.7124C11.7733 17.4295 11.7733 16.9708 11.4759 16.6879C9.70961 15.0081 9.70931 12.2888 11.4759 10.6087C11.7733 10.3257 11.7733 9.86698 11.4759 9.58409Z" fill="#44D7B6"/>
<path d="M19.6014 9.58405C19.304 9.30116 18.8216 9.30116 18.5241 9.58405C18.2267 9.86694 18.2267 10.3257 18.5241 10.6086C20.2864 12.2847 20.2864 15.0118 18.5241 16.6878C18.2267 16.9707 18.2267 17.4295 18.5241 17.7124C18.8217 17.9953 19.3039 17.9953 19.6014 17.7124C21.9577 15.4714 21.9577 11.825 19.6014 9.58405Z" fill="#44D7B6"/>
<path d="M9.17794 8.42216C9.47543 8.13928 9.47543 7.68053 9.17794 7.39759C8.8805 7.1147 8.39816 7.1147 8.10068 7.39759C4.47718 10.8438 4.47718 16.4512 8.10068 19.8975C8.39806 20.1804 8.8804 20.1805 9.17794 19.8975C9.47543 19.6146 9.47543 19.1559 9.17794 18.8729C6.14851 15.9916 6.14851 11.3035 9.17794 8.42216Z" fill="#44D7B6"/>
<path d="M21.8993 7.39759C21.6018 7.1147 21.1195 7.1147 20.822 7.39759C20.5245 7.68048 20.5245 8.13923 20.822 8.42216C23.8514 11.3035 23.8514 15.9916 20.822 18.8729C20.5245 19.1558 20.5245 19.6146 20.822 19.8975C21.1195 20.1804 21.6018 20.1804 21.8993 19.8975C25.5228 16.4512 25.5228 10.8438 21.8993 7.39759Z" fill="#44D7B6"/>
<path d="M6.87964 6.23674C7.17713 5.95385 7.17713 5.4951 6.87964 5.21217C6.5822 4.92928 6.09986 4.92928 5.80237 5.21217C0.727034 10.0392 0.738054 17.267 5.80237 22.0836C6.09976 22.3665 6.5821 22.3667 6.87964 22.0836C7.17713 21.8008 7.17713 21.342 6.87964 21.0591C2.43737 16.834 2.43737 10.4618 6.87964 6.23674Z" fill="#44D7B6"/>
<path d="M24.1976 5.21217C23.9002 4.92928 23.4178 4.92928 23.1203 5.21217C22.8228 5.49506 22.8228 5.9538 23.1203 6.23674C27.5627 10.4618 27.5627 16.834 23.1203 21.0591C22.8228 21.342 22.8228 21.8007 23.1203 22.0836C23.4179 22.3666 23.9001 22.3666 24.1976 22.0836C29.2729 17.2567 29.262 10.0288 24.1976 5.21217Z" fill="#44D7B6"/>
</svg>
